<?xml version="1.0" encoding="UTF-8"?>
<svg version="1.1" xmlns="http://www.w3.org/2000/svg" width="302" height="310">
<path d="M0 0 C99.66 0 199.32 0 302 0 C302 102.3 302 204.6 302 310 C202.34 310 102.68 310 0 310 C0 207.7 0 105.4 0 0 Z " fill="#E9E9E9" transform="translate(0,0)"/>
<path d="M0 0 C9.96116505 2.21359223 9.96116505 2.21359223 14.1875 4.125 C17.9585956 5.69433792 20.85954115 6.60592081 25 6 C25.99 5.34 26.98 4.68 28 4 C28 13.9 28 23.8 28 34 C28.66 34 29.32 34 30 34 C30 23.44 30 12.88 30 2 C32.475 4.475 32.475 4.475 35 7 C41.13366506 5.27735364 47.01288108 3.28019382 52.87109375 0.76953125 C55 0 55 0 58 0 C58 7.59 58 15.18 58 23 C51.69231526 25.80341544 45.40239284 28.47167378 38.98046875 30.97460938 C35.74742357 32.08241443 35.74742357 32.08241443 33 34 C40.92 36.97 48.84 39.94 57 43 C50.36574752 49.63425248 37.05563595 52.93954837 28 54 C19.88469664 52.99785991 11.80369402 49.52993979 5 45 C4.67 44.34 4.34 43.68 4 43 C7.45627381 41.66128359 10.91534297 40.32994608 14.375 39 C15.35984375 38.6184375 16.3446875 38.236875 17.359375 37.84375 C18.77089844 37.30234375 18.77089844 37.30234375 20.2109375 36.75 C21.08024902 36.41484375 21.94956055 36.0796875 22.84521484 35.734375 C25 35 25 35 27 35 C27 34.34 27 33.68 27 33 C26.32710937 32.89429688 25.65421875 32.78859375 24.9609375 32.6796875 C21.35712729 31.85242764 18.03315932 30.52795715 14.625 29.125 C13.67367187 28.74021484 13.67367187 28.74021484 12.703125 28.34765625 C8.44399055 26.61792614 4.22699455 24.81156909 0 23 C0 15.41 0 7.82 0 0 Z " fill="#2E2E2E" transform="translate(121,24)"/>
<path d="M0 0 C0 7.59 0 15.18 0 23 C-1.7325 23.721875 -3.465 24.44375 -5.25 25.1875 C-6.33410156 25.63996094 -7.41820312 26.09242188 -8.53515625 26.55859375 C-10.83248394 27.51430279 -13.13195136 28.4648856 -15.43359375 29.41015625 C-16.50738281 29.85230469 -17.58117187 30.29445312 -18.6875 30.75 C-19.68136719 31.15734375 -20.67523438 31.5646875 -21.69921875 31.984375 C-23.91923591 32.79879158 -23.91923591 32.79879158 -25 34 C-24.40985107 34.23187012 -23.81970215 34.46374023 -23.21166992 34.70263672 C-20.53550102 35.75646216 -17.861493 36.81566624 -15.1875 37.875 C-14.25873047 38.23980469 -13.32996094 38.60460937 -12.37304688 38.98046875 C-11.0340332 39.51220703 -11.0340332 39.51220703 -9.66796875 40.0546875 C-8.84578857 40.37937012 -8.0236084 40.70405273 -7.17651367 41.03857422 C-5 42 -5 42 -2 44 C-4.83309344 45.10478537 -7.6664669 46.2088433 -10.5 47.3125 C-11.29148438 47.62123047 -12.08296875 47.92996094 -12.8984375 48.24804688 C-14.49207287 48.86851966 -16.08847512 49.48193055 -17.6875 50.08837891 C-19.16440181 50.67059506 -20.6259835 51.29446714 -22.0625 51.97021484 C-29.23311777 55.19450304 -34.75565047 52.88325028 -41.81640625 50.2734375 C-43.40112165 49.64737709 -44.9831724 49.01453019 -46.5625 48.375 C-47.38041016 48.05015625 -48.19832031 47.7253125 -49.04101562 47.390625 C-51.02975306 46.59978204 -53.01523399 45.80075781 -55 45 C-55 44.34 -55 43.68 -55 43 C-51.06552291 41.49198432 -47.12695023 39.99497086 -43.1875 38.5 C-42.06794922 38.07074219 -40.94839844 37.64148438 -39.79492188 37.19921875 C-38.72177734 36.79316406 -37.64863281 36.38710937 -36.54296875 35.96875 C-35.0583313 35.40317383 -35.0583313 35.40317383 -33.54370117 34.82617188 C-31 34 -31 34 -28 34 C-28 23.77 -28 13.54 -28 3 C-26.68 4.32 -25.36 5.64 -24 7 C-19.10287109 6.89639361 -14.76106508 4.83397038 -10.3125 2.9375 C-3.39559497 0 -3.39559497 0 0 0 Z " fill="#323232" transform="translate(146,143)"/>
<path d="M0 0 C0 7.59 0 15.18 0 23 C-7.44528537 26.13957817 -14.91426038 29.14816878 -22.48046875 31.984375 C-24.89846347 32.76797561 -24.89846347 32.76797561 -26 34 C-25.06148193 34.3556604 -25.06148193 34.3556604 -24.10400391 34.71850586 C-21.27725731 35.7904212 -18.45112254 36.86394047 -15.625 37.9375 C-14.64015625 38.31068359 -13.6553125 38.68386719 -12.640625 39.06835938 C-11.69960937 39.42607422 -10.75859375 39.78378906 -9.7890625 40.15234375 C-8.48509521 40.6472229 -8.48509521 40.6472229 -7.15478516 41.15209961 C-5 42 -5 42 -3 43 C-3 43.66 -3 44.32 -3 45 C-3.96486328 45.34611328 -3.96486328 45.34611328 -4.94921875 45.69921875 C-6.30466797 46.18841797 -6.30466797 46.18841797 -7.6875 46.6875 C-9.18603516 47.22503906 -9.18603516 47.22503906 -10.71484375 47.7734375 C-12.95329955 48.60919864 -15.17475124 49.49163 -17.37890625 50.4140625 C-18.49136719 50.87554687 -19.60382813 51.33703125 -20.75 51.8125 C-21.77609375 52.25207031 -22.8021875 52.69164062 -23.859375 53.14453125 C-30.74269532 55.01946552 -37.00223711 52.12452775 -43.375 49.625 C-44.19355469 49.32078125 -45.01210937 49.0165625 -45.85546875 48.703125 C-46.63277344 48.40148437 -47.41007813 48.09984375 -48.2109375 47.7890625 C-48.91524902 47.51787598 -49.61956055 47.24668945 -50.34521484 46.96728516 C-52 46 -52 46 -53 43 C-49.21048756 41.49451631 -45.41804969 39.99654686 -41.625 38.5 C-40.54476562 38.07074219 -39.46453125 37.64148438 -38.3515625 37.19921875 C-37.3203125 36.79316406 -36.2890625 36.38710937 -35.2265625 35.96875 C-33.79691162 35.40317383 -33.79691162 35.40317383 -32.33837891 34.82617188 C-30 34 -30 34 -28 34 C-28 23.44 -28 12.88 -28 2 C-24 6 -24 6 -24 8 C-21.43724147 7.04235345 -18.87478711 6.0839064 -16.3125 5.125 C-15.2306543 4.72087891 -15.2306543 4.72087891 -14.12695312 4.30859375 C-13.42119141 4.04433594 -12.71542969 3.78007812 -11.98828125 3.5078125 C-11.29943848 3.25032227 -10.6105957 2.99283203 -9.90087891 2.72753906 C-8.31051759 2.11884696 -6.73682015 1.46685099 -5.16796875 0.8046875 C-3 0 -3 0 0 0 Z " fill="#2E2E2E" transform="translate(214,143)"/>
<path d="M0 0 C3.3240218 0.66480436 5.78541394 1.19334732 8.8125 2.41015625 C9.49570313 2.67763672 10.17890625 2.94511719 10.8828125 3.22070312 C12.29561598 3.78243587 13.70707977 4.34754968 15.1171875 4.91601562 C18.88510822 6.38408285 21.87942593 7.37825582 26 7 C26.33 6.01 26.66 5.02 27 4 C27.33 4 27.66 4 28 4 C28 13.9 28 23.8 28 34 C16.75 30.625 16.75 30.625 13.0859375 29.17578125 C12.02705322 28.76066284 12.02705322 28.76066284 10.94677734 28.3371582 C10.09809082 27.999021 9.2494043 27.66088379 8.375 27.3125 C5.61125 26.219375 2.8475 25.12625 0 24 C0 16.08 0 8.16 0 0 Z " fill="#303030" transform="translate(121,262)"/>
<path d="M0 0 C5.15091966 1.03018393 9.59376114 2.79062661 14.38476562 4.828125 C18.25243597 6.4301651 21.844109 7.48613403 26 8 C26.33 7.01 26.66 6.02 27 5 C27.33 5 27.66 5 28 5 C28 14.57 28 24.14 28 34 C23.54898097 33.2581635 20.61023253 32.607803 16.6015625 30.93359375 C15.72322754 30.57064209 14.84489258 30.20769043 13.93994141 29.83374023 C12.84601074 29.37298096 11.75208008 28.91222168 10.625 28.4375 C7.11875 26.973125 3.6125 25.50875 0 24 C0 16.08 0 8.16 0 0 Z " fill="#313131" transform="translate(87,202)"/>
<path d="M0 0 C0 7.92 0 15.84 0 24 C-4.10170815 25.67294724 -8.20612174 27.33858944 -12.3125 29 C-13.47974609 29.47695313 -14.64699219 29.95390625 -15.84960938 30.4453125 C-16.96787109 30.89648438 -18.08613281 31.34765625 -19.23828125 31.8125 C-20.7857605 32.44091797 -20.7857605 32.44091797 -22.36450195 33.08203125 C-25 34 -25 34 -28 34 C-28 23.44 -28 12.88 -28 2 C-24 6 -24 6 -24 8 C-17.21344283 5.80777879 -10.53666997 3.50086439 -3.9609375 0.734375 C-2 0 -2 0 0 0 Z " fill="#323232" transform="translate(179,262)"/>
<path d="M0 0 C6.73224732 1.12204122 6.73224732 1.12204122 9.98046875 2.4453125 C10.66947266 2.71730469 11.35847656 2.98929688 12.06835938 3.26953125 C13.49391076 3.84500729 14.91837564 4.42318136 16.34179688 5.00390625 C20.58437665 6.78721535 20.58437665 6.78721535 25 6 C25.99 5.01 26.98 4.02 28 3 C28 12.9 28 22.8 28 33 C23.72706144 32.28784357 20.54731541 31.61459336 16.6015625 30.15234375 C15.28406006 29.66882446 15.28406006 29.66882446 13.93994141 29.17553711 C12.84601074 28.76698486 11.75208008 28.35843262 10.625 27.9375 C7.11875 26.638125 3.6125 25.33875 0 24 C0 16.08 0 8.16 0 0 Z " fill="#323232" transform="translate(19,143)"/>
<path d="M0 0 C6.2918297 1.88754891 11.79220588 3.63391565 17.67578125 6.23046875 C20.32994839 7.10924342 22.22339633 7.34877403 25 7 C25.99 6.01 26.98 5.02 28 4 C28 13.9 28 23.8 28 34 C24.12679662 33.22535932 21.09522235 32.3673787 17.48046875 30.93359375 C16.45888672 30.53076172 15.43730469 30.12792969 14.38476562 29.71289062 C13.32966797 29.29201172 12.27457031 28.87113281 11.1875 28.4375 C10.11306641 28.01275391 9.03863281 27.58800781 7.93164062 27.15039062 C5.28627718 26.10400242 2.64293864 25.05249769 0 24 C0 16.08 0 8.16 0 0 Z " fill="#2F2F2F" transform="translate(121,83)"/>
<path d="M0 0 C0 7.92 0 15.84 0 24 C-4.10170815 25.67294724 -8.20612174 27.33858944 -12.3125 29 C-13.47974609 29.47695312 -14.64699219 29.95390625 -15.84960938 30.4453125 C-16.96787109 30.89648438 -18.08613281 31.34765625 -19.23828125 31.8125 C-20.7857605 32.44091797 -20.7857605 32.44091797 -22.36450195 33.08203125 C-25 34 -25 34 -28 34 C-28 23.77 -28 13.54 -28 3 C-27.34 3 -26.68 3 -26 3 C-24.375 5.5 -24.375 5.5 -23 8 C-20.27036868 7.0429738 -17.54128758 6.08442654 -14.8125 5.125 C-14.04357422 4.85558594 -13.27464844 4.58617188 -12.48242188 4.30859375 C-9.30168529 3.18919289 -6.14304276 2.0572171 -3.01171875 0.8046875 C-1 0 -1 0 0 0 Z " fill="#323232" transform="translate(179,83)"/>
<path d="M0 0 C5.09489013 0.63186236 9.45613355 2.18303554 14.1875 4.0625 C19.42607772 6.25285922 19.42607772 6.25285922 25 7 C25.99 6.01 26.98 5.02 28 4 C28 13.9 28 23.8 28 34 C1.87804878 24.87804878 1.87804878 24.87804878 0 23 C-0.08713831 21.29227642 -0.10700007 19.58101351 -0.09765625 17.87109375 C-0.09443359 16.83662109 -0.09121094 15.80214844 -0.08789062 14.73632812 C-0.07951172 13.64771484 -0.07113281 12.55910156 -0.0625 11.4375 C-0.05798828 10.34501953 -0.05347656 9.25253906 -0.04882812 8.12695312 C-0.03699826 5.41791505 -0.02051543 2.70898401 0 0 Z " fill="#303030" transform="translate(87,143)"/>
<path d="M0 0 C6.2918297 1.88754891 11.79220588 3.63391565 17.67578125 6.23046875 C20.32994839 7.10924342 22.22339633 7.34877403 25 7 C25.99 6.01 26.98 5.02 28 4 C28 13.9 28 23.8 28 34 C22.00074479 32.00024826 16.02340896 29.98009474 10.0625 27.875 C9.30904297 27.61074219 8.55558594 27.34648437 7.77929688 27.07421875 C2.24230623 25.12115312 2.24230623 25.12115312 0 24 C0 16.08 0 8.16 0 0 Z " fill="#323232" transform="translate(156,202)"/>
<path d="M0 0 C5.86778282 1.95592761 11.64435323 3.95357183 17.421875 6.1328125 C19.9375754 6.97900263 22.38879695 7.53975198 25 8 C25.66 6.68 26.32 5.36 27 4 C27.33 4 27.66 4 28 4 C28 13.9 28 23.8 28 34 C16.75 30.625 16.75 30.625 13.0859375 29.17578125 C12.02705322 28.76066284 12.02705322 28.76066284 10.94677734 28.3371582 C10.09809082 27.999021 9.2494043 27.66088379 8.375 27.3125 C5.61125 26.219375 2.8475 25.12625 0 24 C0 16.08 0 8.16 0 0 Z " fill="#323232" transform="translate(190,83)"/>
<path d="M0 0 C0 7.92 0 15.84 0 24 C-3.66500806 25.42726322 -7.33071246 26.85247164 -10.99853516 28.27246094 C-12.86060415 28.99441847 -14.72132407 29.71985238 -16.58203125 30.4453125 C-17.74863281 30.89648438 -18.91523437 31.34765625 -20.1171875 31.8125 C-21.19597168 32.23144531 -22.27475586 32.65039062 -23.38623047 33.08203125 C-26 34 -26 34 -28 34 C-28 24.1 -28 14.2 -28 4 C-26.68 5.32 -25.36 6.64 -24 8 C-17.2438229 6.16148278 -10.88508713 3.79129451 -4.46875 0.98828125 C-2 0 -2 0 0 0 Z " fill="#313131" transform="translate(146,202)"/>
<path d="M0 0 C0 7.92 0 15.84 0 24 C-3.66500806 25.42726322 -7.33071246 26.85247164 -10.99853516 28.27246094 C-12.86060415 28.99441847 -14.72132407 29.71985238 -16.58203125 30.4453125 C-17.74863281 30.89648438 -18.91523438 31.34765625 -20.1171875 31.8125 C-21.19597168 32.23144531 -22.27475586 32.65039062 -23.38623047 33.08203125 C-26 34 -26 34 -28 34 C-28 23.77 -28 13.54 -28 3 C-26.02 4.65 -24.04 6.3 -22 8 C-21.05362671 7.63648438 -21.05362671 7.63648438 -20.08813477 7.265625 C-17.24691166 6.17536689 -14.40472223 5.08765065 -11.5625 4 C-10.56927734 3.6184375 -9.57605469 3.236875 -8.55273438 2.84375 C-7.60849609 2.4828125 -6.66425781 2.121875 -5.69140625 1.75 C-4.81685791 1.41484375 -3.94230957 1.0796875 -3.04125977 0.734375 C-1 0 -1 0 0 0 Z " fill="#313131" transform="translate(214,202)"/>
<path d="M0 0 C6.09721093 1.19784176 11.78058185 2.85991866 17.5625 5.125 C18.28501953 5.40214844 19.00753906 5.67929688 19.75195312 5.96484375 C21.50347008 6.63761185 23.25206364 7.31798311 25 8 C25.66 6.68 26.32 5.36 27 4 C27.33 4 27.66 4 28 4 C28 13.9 28 23.8 28 34 C23.565625 32.370625 19.13125 30.74125 14.5625 29.0625 C13.16201416 28.54953369 11.76152832 28.03656738 10.31860352 27.50805664 C9.22475342 27.10449951 8.13090332 26.70094238 7.00390625 26.28515625 C5.31503296 25.66459351 5.31503296 25.66459351 3.59204102 25.03149414 C1 24 1 24 0 23 C-0.08713831 21.29227642 -0.10700007 19.58101351 -0.09765625 17.87109375 C-0.09443359 16.83662109 -0.09121094 15.80214844 -0.08789062 14.73632812 C-0.07951172 13.64771484 -0.07113281 12.55910156 -0.0625 11.4375 C-0.05798828 10.34501953 -0.05347656 9.25253906 -0.04882812 8.12695312 C-0.03699826 5.41791505 -0.02051543 2.70898401 0 0 Z " fill="#313131" transform="translate(156,143)"/>
<path d="M0 0 C0 7.59 0 15.18 0 23 C-6.32929243 25.66897874 -12.6698675 28.2985434 -19.0625 30.8125 C-20.65771484 31.44091797 -20.65771484 31.44091797 -22.28515625 32.08203125 C-25 33 -25 33 -28 33 C-28 22.77 -28 12.54 -28 2 C-26.68 3.65 -25.36 5.3 -24 7 C-17.41145292 5.7920997 -11.71699068 3.75720772 -5.6015625 1.0234375 C-3 0 -3 0 0 0 Z " fill="#303030" transform="translate(77,143)"/>
<path d="M0 0 C0 7.92 0 15.84 0 24 C-3.66500806 25.42726322 -7.33071246 26.85247164 -10.99853516 28.27246094 C-12.86060415 28.99441847 -14.72132407 29.71985238 -16.58203125 30.4453125 C-17.74863281 30.89648438 -18.91523438 31.34765625 -20.1171875 31.8125 C-21.19597168 32.23144531 -22.27475586 32.65039062 -23.38623047 33.08203125 C-26 34 -26 34 -28 34 C-28 23.77 -28 13.54 -28 3 C-24 7 -24 7 -24 9 C-23.34402832 8.72736328 -22.68805664 8.45472656 -22.01220703 8.17382812 C-19.05129741 6.9455834 -16.08819119 5.72272945 -13.125 4.5 C-12.09246094 4.07074219 -11.05992187 3.64148438 -9.99609375 3.19921875 C-9.00996094 2.79316406 -8.02382812 2.38710937 -7.0078125 1.96875 C-5.64100342 1.40317383 -5.64100342 1.40317383 -4.24658203 0.82617188 C-2 0 -2 0 0 0 Z " fill="#313131" transform="translate(248,83)"/>
<path d="M0 0 C3.32183883 0.66436777 5.83866529 1.21141047 8.8828125 2.41015625 C9.57503906 2.67763672 10.26726562 2.94511719 10.98046875 3.22070312 C12.4182545 3.78507986 13.85575166 4.35019232 15.29296875 4.91601562 C18.33397961 6.08978898 20.70998752 7 24 7 C24.99 6.01 25.98 5.02 27 4 C27 13.57 27 23.14 27 33 C22.73191153 32.28865192 19.71227246 31.66588373 15.8203125 30.15234375 C14.98258301 29.82999756 14.14485352 29.50765137 13.28173828 29.17553711 C12.24001465 28.76698486 11.19829102 28.35843262 10.125 27.9375 C5.113125 25.9884375 5.113125 25.9884375 0 24 C0 16.08 0 8.16 0 0 Z " fill="#2F2F2F" transform="translate(224,143)"/>
<path d="M0 0 C9.6875 3.5625 9.6875 3.5625 12.71362305 4.69750977 C13.51324463 4.98424561 14.31286621 5.27098145 15.13671875 5.56640625 C15.94842529 5.86490479 16.76013184 6.16340332 17.59643555 6.47094727 C21.12296797 7.24717842 23.80434808 6.59782596 27 5 C27 14.24 27 23.48 27 33 C19.125 31.875 19.125 31.875 14.94140625 30.15234375 C14.14677979 29.82999756 13.35215332 29.50765137 12.53344727 29.17553711 C11.55303467 28.76698486 10.57262207 28.35843262 9.5625 27.9375 C4.8290625 25.9884375 4.8290625 25.9884375 0 24 C0 16.08 0 8.16 0 0 Z " fill="#2E2E2E" transform="translate(53,83)"/>
<path d="M0 0 C0 7.92 0 15.84 0 24 C-3.68390137 25.42569784 -7.36816737 26.85038713 -11.0534668 28.27246094 C-12.30793105 28.75688538 -13.56216368 29.24191004 -14.81616211 29.72753906 C-16.61511705 30.42409214 -18.41496689 31.11833262 -20.21484375 31.8125 C-21.29886475 32.23144531 -22.38288574 32.65039062 -23.49975586 33.08203125 C-26 34 -26 34 -27 34 C-27 23.77 -27 13.54 -27 3 C-24 6 -24 6 -23 8 C-16.21905671 6.15474331 -9.82232383 3.77422647 -3.37109375 0.98828125 C-1 0 -1 0 0 0 Z " fill="#2E2E2E" transform="translate(110,83)"/>
<path d="M0 0 C0 7.59 0 15.18 0 23 C-21.42857143 33 -21.42857143 33 -27 33 C-27 23.1 -27 13.2 -27 3 C-25.68 4.32 -24.36 5.64 -23 7 C-18.49522232 6.88207388 -13.98942152 4.56668839 -9.8125 2.9375 C-2.26372998 0 -2.26372998 0 0 0 Z " fill="#2E2E2E" transform="translate(281,143)"/>
<path d="M0 0 C2 2 2 2 2.22705078 4.88916016 C2.21657715 6.09362793 2.20610352 7.2980957 2.1953125 8.5390625 C2.18886719 9.84101562 2.18242187 11.14296875 2.17578125 12.484375 C2.15906929 13.86458595 2.14213939 15.24479429 2.125 16.625 C2.11497006 18.01301452 2.10584423 19.40103589 2.09765625 20.7890625 C2.07401863 24.19288026 2.04106867 27.59635506 2 31 C8.38846086 33.68160054 14.77405941 36.34882695 21.25 38.8125 C22.89742187 39.44091797 22.89742187 39.44091797 24.578125 40.08203125 C25.37734375 40.38496094 26.1765625 40.68789062 27 41 C20.36574752 47.63425248 7.05563595 50.93954837 -2 52 C-10.11530336 50.99785991 -18.19630598 47.52993979 -25 43 C-25.33 42.34 -25.66 41.68 -26 41 C-22.54372619 39.66128359 -19.08465703 38.32994608 -15.625 37 C-14.64015625 36.6184375 -13.6553125 36.236875 -12.640625 35.84375 C-11.22910156 35.30234375 -11.22910156 35.30234375 -9.7890625 34.75 C-8.91975098 34.41484375 -8.05043945 34.0796875 -7.15478516 33.734375 C-5 33 -5 33 -3 33 C-3.33 23.1 -3.66 13.2 -4 3 C-3.34 2.67 -2.68 2.34 -2 2 C-2 11.9 -2 21.8 -2 32 C-1.34 32 -0.68 32 0 32 C0 21.44 0 10.88 0 0 Z " fill="#353535" transform="translate(151,26)"/>
<path d="M0 0 C2 2 2 2 2.22705078 4.98095703 C2.21657715 6.22731934 2.20610352 7.47368164 2.1953125 8.7578125 C2.1924826 9.42086395 2.18965271 10.08391541 2.18673706 10.76705933 C2.17553435 12.88655583 2.15043051 15.00563104 2.125 17.125 C2.11497028 18.56119182 2.10584441 19.99739025 2.09765625 21.43359375 C2.075595 24.95586628 2.04106494 28.47789203 2 32 C2.93851807 32.3556604 2.93851807 32.3556604 3.89599609 32.71850586 C6.72274269 33.7904212 9.54887746 34.86394047 12.375 35.9375 C13.35984375 36.31068359 14.3446875 36.68386719 15.359375 37.06835938 C16.30039063 37.42607422 17.24140625 37.78378906 18.2109375 38.15234375 C19.51490479 38.6472229 19.51490479 38.6472229 20.84521484 39.15209961 C23 40 23 40 25 41 C25 41.66 25 42.32 25 43 C24.03513672 43.34611328 24.03513672 43.34611328 23.05078125 43.69921875 C21.69533203 44.18841797 21.69533203 44.18841797 20.3125 44.6875 C18.81396484 45.22503906 18.81396484 45.22503906 17.28515625 45.7734375 C15.04670045 46.60919864 12.82524876 47.49163 10.62109375 48.4140625 C9.50863281 48.87554687 8.39617187 49.33703125 7.25 49.8125 C6.22390625 50.25207031 5.1978125 50.69164062 4.140625 51.14453125 C-2.74269532 53.01946552 -9.00223711 50.12452775 -15.375 47.625 C-16.19355469 47.32078125 -17.01210937 47.0165625 -17.85546875 46.703125 C-18.63277344 46.40148437 -19.41007813 46.09984375 -20.2109375 45.7890625 C-20.91524902 45.51787598 -21.61956055 45.24668945 -22.34521484 44.96728516 C-24 44 -24 44 -25 41 C-21.21048756 39.49451631 -17.41804969 37.99654686 -13.625 36.5 C-12.54476562 36.07074219 -11.46453125 35.64148438 -10.3515625 35.19921875 C-9.3203125 34.79316406 -8.2890625 34.38710937 -7.2265625 33.96875 C-5.79691162 33.40317383 -5.79691162 33.40317383 -4.33837891 32.82617188 C-2 32 -2 32 0 32 C0 21.44 0 10.88 0 0 Z " fill="#353535" transform="translate(186,145)"/>
<path d="M0 0 C0.77472656 0.30808594 1.54945312 0.61617188 2.34765625 0.93359375 C3.13785156 1.25457031 3.92804688 1.57554688 4.7421875 1.90625 C6.32724525 2.54385805 7.91315554 3.17935171 9.5 3.8125 C10.19496582 4.09416016 10.88993164 4.37582031 11.60595703 4.66601562 C13.59128885 5.39671799 15.55683288 5.93287068 17.6171875 6.40625 C17.6171875 7.06625 17.6171875 7.72625 17.6171875 8.40625 C13.43861307 9.95242565 9.24818369 11.46356444 5.0546875 12.96875 C3.87326172 13.40638672 2.69183594 13.84402344 1.47460938 14.29492188 C0.32412109 14.70419922 -0.82636719 15.11347656 -2.01171875 15.53515625 C-3.06431885 15.91744385 -4.11691895 16.29973145 -5.20141602 16.69360352 C-10.66221456 17.91684586 -15.35826821 16.65165059 -20.44140625 14.55859375 C-21.32119141 14.20087891 -22.20097656 13.84316406 -23.10742188 13.47460938 C-24.00267578 13.10142578 -24.89792969 12.72824219 -25.8203125 12.34375 C-27.20379883 11.77817383 -27.20379883 11.77817383 -28.61523438 11.20117188 C-30.8740963 10.27656 -33.1297152 9.34480136 -35.3828125 8.40625 C-33.32047423 4.28157345 -26.81900652 3.26902893 -22.6953125 1.71875 C-21.60541016 1.29013672 -20.51550781 0.86152344 -19.39257812 0.41992188 C-18.33361328 0.01966797 -17.27464844 -0.38058594 -16.18359375 -0.79296875 C-15.21591064 -1.16252686 -14.24822754 -1.53208496 -13.2512207 -1.9128418 C-8.47410882 -3.04684171 -4.45663833 -1.80037065 0 0 Z " fill="#323232" transform="translate(126.3828125,119.59375)"/>
<path d="M0 0 C1.45599609 0.54043945 1.45599609 0.54043945 2.94140625 1.09179688 C3.86308594 1.44177734 4.78476563 1.79175781 5.734375 2.15234375 C6.57709961 2.47066162 7.41982422 2.78897949 8.28808594 3.11694336 C10.25 4.0625 10.25 4.0625 11.25 6.0625 C8.39735322 7.19148402 5.54300063 8.31577567 2.6875 9.4375 C1.88763672 9.75460938 1.08777344 10.07171875 0.26367188 10.3984375 C-10.88398472 14.76649886 -18.08644312 15.91529845 -29.20703125 11.13085938 C-30.04621094 10.75767578 -30.88539063 10.38449219 -31.75 10 C-32.62011719 9.62294922 -33.49023438 9.24589844 -34.38671875 8.85742188 C-36.51200567 7.93490722 -38.6327138 7.00319645 -40.75 6.0625 C-36.35013045 2.51529875 -31.54878449 0.81135434 -26.3125 -1.1875 C-25.37083984 -1.56390625 -24.42917969 -1.9403125 -23.45898438 -2.328125 C-22.54568359 -2.67875 -21.63238281 -3.029375 -20.69140625 -3.390625 C-19.86326416 -3.71192383 -19.03512207 -4.03322266 -18.18188477 -4.36425781 C-12.07609079 -5.80351133 -5.63021825 -2.14647322 0 0 Z " fill="#313131" transform="translate(165.75,240.9375)"/>
<path d="M0 0 C1.60139407 0.61872417 3.207001 1.22664253 4.81640625 1.82421875 C6.39932223 2.44305421 7.9813557 3.06415175 9.5625 3.6875 C10.78936523 4.16799805 10.78936523 4.16799805 12.04101562 4.65820312 C14.02813622 5.43678254 16.01418427 6.21809845 18 7 C14.57202546 9.28531636 11.02706684 10.59366727 7.1875 12 C6.13852539 12.39058594 6.13852539 12.39058594 5.06835938 12.7890625 C3.68882974 13.30009499 2.30717014 13.80541809 0.92333984 14.3046875 C-0.76912549 14.91653585 -2.4536285 15.55031515 -4.13671875 16.1875 C-9.38876642 17.67784913 -13.42143982 17.1391549 -18.3984375 15.03125 C-19.37167969 14.62519531 -20.34492188 14.21914062 -21.34765625 13.80078125 C-22.34667969 13.37152344 -23.34570312 12.94226563 -24.375 12.5 C-25.39722656 12.07074219 -26.41945312 11.64148438 -27.47265625 11.19921875 C-29.9859351 10.14223232 -32.49465545 9.07562623 -35 8 C-31.3591287 4.3591287 -26.17105915 3.04220219 -21.4375 1.1875 C-20.37724609 0.74212891 -19.31699219 0.29675781 -18.22460938 -0.16210938 C-10.95319623 -2.99262245 -6.99532962 -3.37757162 0 0 Z " fill="#323232" transform="translate(262,120)"/>
<path d="M0 0 C0.92232422 0.37705078 1.84464844 0.75410156 2.79492188 1.14257812 C5.0537838 2.06719 7.3094027 2.99894864 9.5625 3.9375 C5.84492395 8.20687393 0.69124908 9.44195576 -4.5 11.3125 C-5.49966797 11.70566406 -6.49933594 12.09882812 -7.52929688 12.50390625 C-14.84862733 15.13867498 -19.33203477 15.02178779 -26.4375 11.9375 C-27.59121094 11.49148437 -28.74492187 11.04546875 -29.93359375 10.5859375 C-31.38958984 9.95558594 -31.38958984 9.95558594 -32.875 9.3125 C-35.7224451 8.08739324 -38.49606448 6.91797851 -41.4375 5.9375 C-41.4375 5.2775 -41.4375 4.6175 -41.4375 3.9375 C-37.59341683 2.39026662 -33.7359532 0.87958686 -29.875 -0.625 C-28.78896484 -1.06263672 -27.70292969 -1.50027344 -26.58398438 -1.95117188 C-16.08151325 -6.00531726 -10.08508882 -4.20393551 0 0 Z " fill="#323232" transform="translate(235.4375,63.0625)"/>
<path d="M0 0 C0.9178125 0.37705078 1.835625 0.75410156 2.78125 1.14257812 C5.0245671 2.06560964 7.26381811 2.99734524 9.5 3.9375 C8.02350641 6.89048719 5.68610705 7.08082332 2.7109375 8.09960938 C1.94007812 8.35548828 1.16921875 8.61136719 0.375 8.875 C-1.12840309 9.38175052 -2.63101851 9.89084423 -4.1328125 10.40234375 C-4.87047852 10.65097168 -5.60814453 10.89959961 -6.36816406 11.15576172 C-8.3782378 11.89285014 -10.25433589 12.75945978 -12.1796875 13.69140625 C-19.12000675 16.29606724 -25.39240658 12.55219086 -31.875 9.875 C-32.80183594 9.49794922 -33.72867188 9.12089844 -34.68359375 8.73242188 C-36.95802479 7.80623604 -39.22999667 6.87447332 -41.5 5.9375 C-41.5 5.2775 -41.5 4.6175 -41.5 3.9375 C-37.84531379 2.38668643 -34.1747803 0.87750737 -30.5 -0.625 C-28.95505859 -1.28145508 -28.95505859 -1.28145508 -27.37890625 -1.95117188 C-16.47849427 -6.35993723 -10.5589129 -4.44303094 0 0 Z " fill="#313131" transform="translate(98.5,63.0625)"/>
<path d="M0 0 C0 0.66 0 1.32 0 2 C-4.0113565 3.54669296 -8.0352944 5.05760862 -12.0625 6.5625 C-13.19623047 7.00013672 -14.32996094 7.43777344 -15.49804688 7.88867188 C-26.19562528 11.84958283 -32.19737125 10.20606339 -42.4375 5.9375 C-43.82098633 5.37192383 -43.82098633 5.37192383 -45.23242188 4.79492188 C-47.4912838 3.87031 -49.7469027 2.93855136 -52 2 C-38.0298218 -13.08873994 -16.04114137 -7.2028951 0 0 Z " fill="#313131" transform="translate(177,7)"/>
<path d="M0 0 C1.43208982 0.52310543 2.86830359 1.03507147 4.30859375 1.53515625 C5.68551962 2.04258134 7.06182797 2.55168541 8.4375 3.0625 C9.14326172 3.31837891 9.84902344 3.57425781 10.57617188 3.83789062 C15.76617116 5.76617116 15.76617116 5.76617116 18 8 C14.01053032 9.54951362 10.00711578 11.05927318 6 12.5625 C4.31197266 13.21895508 4.31197266 13.21895508 2.58984375 13.88867188 C-8.39318894 17.96716647 -14.46063752 16.62435935 -25 11.9375 C-25.87011719 11.56044922 -26.74023438 11.18339844 -27.63671875 10.79492188 C-29.76200567 9.87240722 -31.8827138 8.94069645 -34 8 C-29.64532385 4.51849959 -24.95578102 2.67659368 -19.8125 0.625 C-18.90435547 0.23183594 -17.99621094 -0.16132812 -17.06054688 -0.56640625 C-10.26225291 -3.26236534 -6.56403428 -3.00792687 0 0 Z " fill="#313131" transform="translate(57,120)"/>
<path d="M0 0 C1.01771484 0.42925781 2.03542969 0.85851562 3.08398438 1.30078125 C5.58175602 2.35617772 8.07408964 3.42276057 10.5625 4.5 C7.04902713 8.01347287 2.05682291 9.05362838 -2.5625 10.6875 C-3.5834375 11.06841797 -4.604375 11.44933594 -5.65625 11.84179688 C-16.32686835 15.62040273 -22.31808524 13.93760841 -32.4375 9.4375 C-33.30761719 9.06044922 -34.17773438 8.68339844 -35.07421875 8.29492188 C-37.19950567 7.37240722 -39.3202138 6.44069645 -41.4375 5.5 C-37.31288068 2.19786154 -33.04287604 0.61760546 -28.125 -1.1875 C-27.29548828 -1.50783203 -26.46597656 -1.82816406 -25.61132812 -2.15820312 C-15.67251224 -5.83721232 -9.50681654 -4.11941432 0 0 Z " fill="#313131" transform="translate(201.4375,122.5)"/>
<path d="M0 0 C0.66 1.65 1.32 3.3 2 5 C2.66 5 3.32 5 4 5 C4.66 3.35 5.32 1.7 6 0 C15.18533351 2.94884341 24.15149227 6.12774801 33 10 C31.125 14.75 31.125 14.75 30 17 C23.80414032 16.30827723 18.53289733 13.8694486 12.89648438 11.3515625 C3.05194947 7.25596742 -4.43557617 10.19629206 -13.9375 14.0625 C-15.79969658 14.80610751 -17.66292796 15.54713053 -19.52734375 16.28515625 C-20.33937256 16.61394775 -21.15140137 16.94273926 -21.98803711 17.28149414 C-24 18 -24 18 -26 18 C-30 12.58823529 -30 12.58823529 -30 10 C-26.62579827 8.70624133 -23.25049917 7.41536939 -19.875 6.125 C-18.92367187 5.76019531 -17.97234375 5.39539063 -16.9921875 5.01953125 C-3.85014205 0 -3.85014205 0 0 0 Z " fill="#353535" transform="translate(183,70)"/>
<path d="M0 0 C0.6875 2.0625 0.6875 2.0625 1 4 C1.66 4 2.32 4 3 4 C3.66 2.35 4.32 0.7 5 -1 C11.27444779 1.02392461 17.42984439 3.26976993 23.5625 5.6875 C24.78936523 6.16799805 24.78936523 6.16799805 26.04101562 6.65820312 C28.02813622 7.43678254 30.01418427 8.21809845 32 9 C31.25 11.9375 31.25 11.9375 30 15 C27.71647671 15.97279866 26.41737563 16.10402473 24.00463867 15.50268555 C23.3160376 15.2169165 22.62743652 14.93114746 21.91796875 14.63671875 C20.76651367 14.17168945 20.76651367 14.17168945 19.59179688 13.69726562 C18.79837891 13.36404297 18.00496094 13.03082031 17.1875 12.6875 C14.8483636 11.72523367 12.50848942 10.77260752 10.15087891 9.85644531 C8.31390802 9.12499311 6.51319793 8.30355994 4.72265625 7.46484375 C-1.3717157 6.70384662 -6.23924637 9.44620985 -11.75 11.875 C-13.99303458 12.83484567 -16.2377522 13.79077073 -18.484375 14.7421875 C-19.47147461 15.1738623 -20.45857422 15.60553711 -21.47558594 16.05029297 C-24 17 -24 17 -27 17 C-31 11.74285714 -31 11.74285714 -31 9 C-27.07151657 7.54578059 -23.13886796 6.10366017 -19.2019043 4.67260742 C-17.86312732 4.18405361 -16.52554642 3.6922092 -15.18920898 3.19702148 C-13.26851206 2.48594282 -11.34382935 1.78679599 -9.41796875 1.08984375 C-8.26063232 0.66566162 -7.1032959 0.24147949 -5.91088867 -0.19555664 C-3 -1 -3 -1 0 0 Z " fill="#353535" transform="translate(115,71)"/>
<path d="M0 0 C1.1875 2.0625 1.1875 2.0625 2 4 C2.99 2.68 3.98 1.36 5 0 C11.00103235 0.63647313 16.30423384 2.87721978 21.875 5.0625 C22.84953125 5.43955078 23.8240625 5.81660156 24.828125 6.20507812 C27.22077549 7.13164376 29.61126054 8.06340791 32 9 C31.38722388 11.96175123 30.74627478 13.38058783 29 16 C22.4601343 14.85265514 16.65724459 12.78326794 10.66967773 9.94482422 C3.69187787 6.88649717 -2.20501066 8.17465788 -9.1484375 10.84765625 C-10.89543565 11.57448082 -12.63764193 12.3129245 -14.375 13.0625 C-16.1308919 13.80792581 -17.88863112 14.54901939 -19.6484375 15.28515625 C-20.41333496 15.61394775 -21.17823242 15.94273926 -21.96630859 16.28149414 C-24 17 -24 17 -27 17 C-31 11.74285714 -31 11.74285714 -31 9 C-27.07151657 7.54578059 -23.13886796 6.10366017 -19.2019043 4.67260742 C-17.86312732 4.18405361 -16.52554642 3.6922092 -15.18920898 3.19702148 C-13.26851206 2.48594282 -11.34382935 1.78679599 -9.41796875 1.08984375 C-8.26063232 0.66566162 -7.1032959 0.24147949 -5.91088867 -0.19555664 C-3 -1 -3 -1 0 0 Z " fill="#343434" transform="translate(150,190)"/>
<path d="M0 0 C1.75 1.5625 1.75 1.5625 3 3 C3.66 1.68 4.32 0.36 5 -1 C10.50758799 -0.01395217 15.52844121 1.90898799 20.75 3.875 C21.72066406 4.22691406 22.69132812 4.57882813 23.69140625 4.94140625 C24.61308594 5.28816406 25.53476563 5.63492188 26.484375 5.9921875 C27.32709961 6.30526855 28.16982422 6.61834961 29.03808594 6.94091797 C31 8 31 8 32 11 C30.5625 13.6875 30.5625 13.6875 29 16 C25.77018378 14.87685891 22.54126553 13.75115766 19.3125 12.625 C18.40048828 12.30789062 17.48847656 11.99078125 16.54882812 11.6640625 C15.66259766 11.3546875 14.77636719 11.0453125 13.86328125 10.7265625 C13.05157471 10.44377441 12.23986816 10.16098633 11.40356445 9.86962891 C9.70508233 9.25510444 8.02523107 8.5878857 6.36157227 7.88452148 C-0.48592863 5.3198057 -9.11286 10.65523843 -15.4765625 13.20507812 C-16.8378125 13.7397168 -16.8378125 13.7397168 -18.2265625 14.28515625 C-19.04721191 14.61394775 -19.86786133 14.94273926 -20.71337891 15.28149414 C-23 16 -23 16 -27 16 C-28.98 12.535 -28.98 12.535 -31 9 C-28.18857876 7.89302184 -25.37592348 6.78936877 -22.5625 5.6875 C-21.77939453 5.37876953 -20.99628906 5.07003906 -20.18945312 4.75195312 C-17.79910984 3.81745678 -15.40236231 2.90313277 -13 2 C-12.18644043 1.69143066 -11.37288086 1.38286133 -10.53466797 1.06494141 C-9.35541748 0.64027588 -9.35541748 0.64027588 -8.15234375 0.20703125 C-7.44972412 -0.04973389 -6.74710449 -0.30649902 -6.02319336 -0.57104492 C-3.64495407 -1.07527642 -2.27094444 -0.82631567 0 0 Z " fill="#333333" transform="translate(81,131)"/>
<path d="M0 0 C0.33 1.32 0.66 2.64 1 4 C1.66 4 2.32 4 3 4 C3.33 2.68 3.66 1.36 4 0 C9.8234758 0.63739536 14.91846768 2.71738707 20.3125 4.875 C21.23095703 5.22691406 22.14941406 5.57882813 23.09570312 5.94140625 C23.96775391 6.28816406 24.83980469 6.63492188 25.73828125 6.9921875 C26.92997925 7.46180908 26.92997925 7.46180908 28.14575195 7.94091797 C30 9 30 9 31 12 C29.5625 14.6875 29.5625 14.6875 28 17 C27.13834229 16.69763428 27.13834229 16.69763428 26.25927734 16.38916016 C23.63135248 15.46729492 21.00317851 14.54614184 18.375 13.625 C17.47136719 13.30789062 16.56773437 12.99078125 15.63671875 12.6640625 C13.87107068 12.04544128 12.10245365 11.43522147 10.33081055 10.83398438 C8 10 8 10 4.98046875 8.5703125 C0.19844603 7.65527277 -3.61498455 9.52565239 -8.0625 11.25 C-8.94744141 11.57613281 -9.83238281 11.90226563 -10.74414062 12.23828125 C-14.18584983 13.51375338 -17.59890133 14.83326879 -20.98828125 16.2421875 C-23 17 -23 17 -25.125 16.875 C-27.63594311 15.70322655 -28.6567993 14.40362231 -30 12 C-29.67 11.01 -29.34 10.02 -29 9 C-26.6550293 7.83325195 -26.6550293 7.83325195 -23.57421875 6.73828125 C-22.46755859 6.34189453 -21.36089844 5.94550781 -20.22070312 5.53710938 C-19.05474609 5.13298828 -17.88878906 4.72886719 -16.6875 4.3125 C-15.53314453 3.89677734 -14.37878906 3.48105469 -13.18945312 3.05273438 C-4.55257081 0 -4.55257081 0 0 0 Z " fill="#343434" transform="translate(218,130)"/>
<path d="M0 0 C1.8125 1.5625 1.8125 1.5625 3 3 C3.66 1.68 4.32 0.36 5 -1 C8.66402203 -0.37344935 11.87061201 0.64218393 15.30078125 2.06640625 C16.27724609 2.46923828 17.25371094 2.87207031 18.25976562 3.28710938 C19.26716797 3.70798828 20.27457031 4.12886719 21.3125 4.5625 C22.33923828 4.98724609 23.36597656 5.41199219 24.42382812 5.84960938 C26.95092341 6.89570928 29.47620894 7.94595916 32 9 C30.125 13.75 30.125 13.75 29 16 C24.5670789 14.54922582 20.15988683 13.06910498 15.79296875 11.4296875 C15.046521 11.15398926 14.30007324 10.87829102 13.53100586 10.59423828 C12.02678112 10.03749964 10.52614181 9.47096242 9.02954102 8.89404297 C7.97077759 8.50563232 7.97077759 8.50563232 6.890625 8.109375 C6.26188477 7.87186523 5.63314453 7.63435547 4.98535156 7.38964844 C0.76828583 6.56200002 -3.04573276 8.30302829 -6.90625 9.8828125 C-7.81503906 10.24503906 -8.72382813 10.60726562 -9.66015625 10.98046875 C-11.556106 11.74458605 -13.44935102 12.51544836 -15.33984375 13.29296875 C-16.24863281 13.65261719 -17.15742188 14.01226562 -18.09375 14.3828125 C-18.91552734 14.71684082 -19.73730469 15.05086914 -20.58398438 15.39501953 C-23.47234674 16.11827761 -25.19111173 15.96503507 -28 15 C-29.8125 11.9375 -29.8125 11.9375 -31 9 C-27.67636465 7.64178363 -24.3388313 6.32037415 -21 5 C-20.02812744 4.60675537 -20.02812744 4.60675537 -19.03662109 4.20556641 C-16.92506493 3.35353497 -14.80702783 2.51947781 -12.6875 1.6875 C-12.00623047 1.40890137 -11.32496094 1.13030273 -10.62304688 0.84326172 C-6.70716291 -0.6728438 -4.0184192 -1.44250946 0 0 Z " fill="#333333" transform="translate(150,131)"/>
<path d="M0 0 C3 5.75 3 5.75 3 8 C-1.24299971 9.70549326 -5.4953784 11.38623294 -9.75 13.0625 C-11.55984375 13.79049805 -11.55984375 13.79049805 -13.40625 14.53320312 C-15.14648438 15.21479492 -15.14648438 15.21479492 -16.921875 15.91015625 C-17.99018555 16.33433838 -19.05849609 16.75852051 -20.15917969 17.19555664 C-23.0436894 18.01237165 -24.28342752 18.17459931 -27 17 C-29.38420461 14.44549506 -30 13.5595477 -30 10 C-26.05043587 8.57180601 -22.09941203 7.14775072 -18.14697266 5.72753906 C-16.80216068 5.24365357 -15.45775672 4.75863256 -14.11376953 4.27246094 C-12.18367547 3.57449334 -10.25215863 2.88060102 -8.3203125 2.1875 C-7.15773926 1.76855469 -5.99516602 1.34960938 -4.79736328 0.91796875 C-2 0 -2 0 0 0 Z " fill="#343434" transform="translate(183,10)"/>
<path d="M0 0 C0.66 1.98 1.32 3.96 2 6 C-4.66666667 8.66666667 -11.33333333 11.33333333 -18 14 C-18.87116455 14.3727002 -19.7423291 14.74540039 -20.63989258 15.12939453 C-23.5942218 16.21919881 -25.05713428 16.08421369 -28 15 C-29.875 13.125 -29.875 13.125 -31 11 C-30.67 10.01 -30.34 9.02 -30 8 C-28.0222168 7.04858398 -28.0222168 7.04858398 -25.44921875 6.24609375 C-24.52302734 5.94896484 -23.59683594 5.65183594 -22.64257812 5.34570312 C-21.66740234 5.04599609 -20.69222656 4.74628906 -19.6875 4.4375 C-17.77392007 3.83462632 -15.86112716 3.22924757 -13.94921875 2.62109375 C-13.09674561 2.3573999 -12.24427246 2.09370605 -11.3659668 1.82202148 C-8.98916811 1.06228153 -8.98916811 1.06228153 -6.86254883 -0.12475586 C-4.3015066 -1.32823422 -2.66122674 -0.73922965 0 0 Z " fill="#343434" transform="translate(184,250)"/>
<path d="M0 0 C1.64820195 2.60242414 2 3.86248779 2 7 C-2.24022676 8.73334196 -6.49342424 10.43224782 -10.75 12.125 C-11.9565625 12.61871094 -13.163125 13.11242187 -14.40625 13.62109375 C-15.56640625 14.07871094 -16.7265625 14.53632812 -17.921875 15.0078125 C-18.99018555 15.43723145 -20.05849609 15.86665039 -21.15917969 16.30908203 C-24 17 -24 17 -26.27050781 16.24951172 C-28.36260957 14.73802431 -29.63479551 13.18432718 -31 11 C-31 10.34 -31 9.68 -31 9 C-27.07151657 7.54578059 -23.13886796 6.10366017 -19.2019043 4.67260742 C-17.86312732 4.18405361 -16.52554642 3.6922092 -15.18920898 3.19702148 C-13.26851206 2.48594282 -11.34382935 1.78679599 -9.41796875 1.08984375 C-8.26063232 0.66566162 -7.1032959 0.24147949 -5.91088867 -0.19555664 C-3 -1 -3 -1 0 0 Z " fill="#353535" transform="translate(252,71)"/>
<path d="M0 0 C2 3 2 3 2 7 C-2.26493757 8.70268095 -6.53779251 10.38451445 -10.8125 12.0625 C-12.02744141 12.54783203 -13.24238281 13.03316406 -14.49414062 13.53320312 C-16.23920898 14.21479492 -16.23920898 14.21479492 -18.01953125 14.91015625 C-19.09307861 15.33433838 -20.16662598 15.75852051 -21.27270508 16.19555664 C-24 17 -24 17 -27 16 C-29.32265612 13.41927097 -30 12.54823932 -30 9 C-25.9422595 7.48689875 -21.87810033 5.99184012 -17.8125 4.5 C-16.66201172 4.07074219 -15.51152344 3.64148438 -14.32617188 3.19921875 C-13.21435547 2.79316406 -12.10253906 2.38710937 -10.95703125 1.96875 C-9.93585205 1.59169922 -8.91467285 1.21464844 -7.86254883 0.82617188 C-5.01732535 0.00500034 -2.93384265 -0.40444867 0 0 Z " fill="#343434" transform="translate(218,190)"/>
<path d="M0 0 C0.33 1.98 0.66 3.96 1 6 C-4.89435641 8.77589931 -10.84015545 11.41839851 -16.875 13.875 C-17.92429687 14.30554688 -18.97359375 14.73609375 -20.0546875 15.1796875 C-23.24385208 16.06791636 -24.90689469 16.14298637 -28 15 C-29.8125 11.9375 -29.8125 11.9375 -31 9 C-24.57549491 6.23487418 -18.10703318 3.59215771 -11.5625 1.125 C-10.42941406 0.69445312 -9.29632813 0.26390625 -8.12890625 -0.1796875 C-4.9037622 -1.02523088 -3.15297098 -0.9547314 0 0 Z " fill="#323232" transform="translate(286,131)"/>
<path d="M0 0 C9.35518546 2.41349993 18.126276 6.24256466 27 10 C25.125 14.75 25.125 14.75 24 17 C18.49241201 16.01395217 13.47155879 14.09101201 8.25 12.125 C7.27933594 11.77308594 6.30867188 11.42117188 5.30859375 11.05859375 C4.38691406 10.71183594 3.46523437 10.36507813 2.515625 10.0078125 C1.67290039 9.69473145 0.83017578 9.38165039 -0.03808594 9.05908203 C-2 8 -2 8 -3 5 C-1.5625 2.3125 -1.5625 2.3125 0 0 Z " fill="#343434" transform="translate(120,249)"/>
<path d="M0 0 C6.27444779 2.02392461 12.42984439 4.26976993 18.5625 6.6875 C19.78936523 7.16799805 19.78936523 7.16799805 21.04101562 7.65820312 C23.02813622 8.43678254 25.01418427 9.21809845 27 10 C26.25 14.75 26.25 14.75 24 17 C17.59702243 16.59805003 11.31743344 13.75601009 5.4375 11.375 C4.61958984 11.05015625 3.80167969 10.7253125 2.95898438 10.390625 C0.97024694 9.59978204 -1.01523399 8.80075781 -3 8 C-1.125 2.25 -1.125 2.25 0 0 Z " fill="#353535" transform="translate(86,189)"/>
<path d="M0 0 C5.88207656 0.61556615 10.96097435 2.82660781 16.375 5.0625 C17.76525391 5.62807617 17.76525391 5.62807617 19.18359375 6.20507812 C21.45802479 7.13126396 23.72999667 8.06302668 26 9 C26 12.76687864 25.76462683 13.91190305 24 17 C17.72555221 14.97607539 11.57015561 12.73023007 5.4375 10.3125 C4.21063477 9.83200195 4.21063477 9.83200195 2.95898438 9.34179688 C0.97186378 8.56321746 -1.01418427 7.78190155 -3 7 C-2.38722388 4.03824877 -1.74627478 2.61941217 0 0 Z " fill="#343434" transform="translate(120,11)"/>
<path d="M0 0 C8.70498897 3.24007034 17.40080002 6.48590385 26 10 C25.125 14.75 25.125 14.75 24 17 C17.99896765 16.36352687 12.69576616 14.12278022 7.125 11.9375 C6.15046875 11.56044922 5.1759375 11.18339844 4.171875 10.79492188 C1.77922451 9.86835624 -0.61126054 8.93659209 -3 8 C-2.45276317 4.62537285 -1.9451 2.91765 0 0 Z " fill="#363636" transform="translate(52,70)"/>
<path d="M0 0 C9.35518546 2.41349993 18.126276 6.24256466 27 10 C26.01 12.31 25.02 14.62 24 17 C17.87256561 15.35640583 11.87877171 13.34135205 5.9375 11.125 C5.27032959 10.89280762 4.60315918 10.66061523 3.91577148 10.42138672 C2.02734375 9.6953125 2.02734375 9.6953125 -1 8 C-2.05859375 5.4921875 -2.05859375 5.4921875 -2 3 C-1.34 2.01 -0.68 1.02 0 0 Z " fill="#333333" transform="translate(18,130)"/>
<path d="M0 0 C0 8.58 0 17.16 0 26 C-0.33 26 -0.66 26 -1 26 C-1.495 14.615 -1.495 14.615 -2 3 C-6.84798502 4.97081303 -6.84798502 4.97081303 -11.69287109 6.94921875 C-16.77777778 9 -16.77777778 9 -19 9 C-18.9609375 7.20703125 -18.9609375 7.20703125 -18 5 C-15.51211076 3.6788655 -13.24337824 2.65844137 -10.625 1.6875 C-9.93921875 1.41099609 -9.2534375 1.13449219 -8.546875 0.84960938 C-3.40654926 -1.13551642 -3.40654926 -1.13551642 0 0 Z " fill="#CBCBCB" transform="translate(111,81)"/>
<path d="M0 0 C0 0.66 0 1.32 0 2 C-8.91 5.465 -8.91 5.465 -18 9 C-18.33 7.68 -18.66 6.36 -19 5 C-16.39985473 3.96772138 -13.79573631 2.94894848 -11.1875 1.9375 C-10.44951172 1.64294922 -9.71152344 1.34839844 -8.95117188 1.04492188 C-3.33984375 -1.11328125 -3.33984375 -1.11328125 0 0 Z " fill="#D8D8D8" transform="translate(213,201)"/>
<path d="M0 0 C1 1 1 1 1.11352539 3.40844727 C1.10828857 4.45057373 1.10305176 5.4927002 1.09765625 6.56640625 C1.09443359 7.69111328 1.09121094 8.81582031 1.08789062 9.97460938 C1.07951172 11.15861328 1.07113281 12.34261719 1.0625 13.5625 C1.05798828 14.75037109 1.05347656 15.93824219 1.04882812 17.16210938 C1.03699675 20.10812226 1.02051287 23.05403681 1 26 C0.34 25.67 -0.32 25.34 -1 25 C-0.67 17.41 -0.34 9.82 0 2 C-3.63 3.32 -7.26 4.64 -11 6 C-11 4.68 -11 3.36 -11 2 C-9.73392393 1.46770674 -8.46189588 0.94955456 -7.1875 0.4375 C-6.47980469 0.14746094 -5.77210938 -0.14257812 -5.04296875 -0.44140625 C-3 -1 -3 -1 0 0 Z " fill="#C1C1C1" transform="translate(281,141)"/>
<path d="M0 0 C0 0.66 0 1.32 0 2 C-2.7899439 3.17094005 -5.58178597 4.33690927 -8.375 5.5 C-9.1690625 5.83386719 -9.963125 6.16773438 -10.78125 6.51171875 C-11.92207031 6.98544922 -11.92207031 6.98544922 -13.0859375 7.46875 C-13.7876709 7.76201172 -14.4894043 8.05527344 -15.21240234 8.35742188 C-17 9 -17 9 -19 9 C-18.9609375 7.20703125 -18.9609375 7.20703125 -18 5 C-15.51211076 3.6788655 -13.24337824 2.65844137 -10.625 1.6875 C-9.93921875 1.41099609 -9.2534375 1.13449219 -8.546875 0.84960938 C-3.40654926 -1.13551642 -3.40654926 -1.13551642 0 0 Z " fill="#D8D8D8" transform="translate(144,201)"/>
<path d="M0 0 C-2.53046686 3.79570029 -5.4032145 4.63684754 -9.5 6.1875 C-10.53447266 6.59645508 -10.53447266 6.59645508 -11.58984375 7.01367188 C-16.69754464 9 -16.69754464 9 -19 9 C-18.9609375 7.20703125 -18.9609375 7.20703125 -18 5 C-15.51211076 3.6788655 -13.24337824 2.65844137 -10.625 1.6875 C-9.93921875 1.41099609 -9.2534375 1.13449219 -8.546875 0.84960938 C-3.40654926 -1.13551642 -3.40654926 -1.13551642 0 0 Z " fill="#DEDEDE" transform="translate(179,260)"/>
<path d="M0 0 C-2.68344789 3.29737324 -6.2359501 4.61094587 -10.0625 6.1875 C-10.69994141 6.46013672 -11.33738281 6.73277344 -11.99414062 7.01367188 C-16.71851504 9 -16.71851504 9 -19 9 C-18.9609375 7.20703125 -18.9609375 7.20703125 -18 5 C-15.51211076 3.6788655 -13.24337824 2.65844137 -10.625 1.6875 C-9.93921875 1.41099609 -9.2534375 1.13449219 -8.546875 0.84960938 C-3.40654926 -1.13551642 -3.40654926 -1.13551642 0 0 Z " fill="#DADADA" transform="translate(246,82)"/>
<path d="M0 0 C-0.33 0.99 -0.66 1.98 -1 3 C-3.36695387 4.03865096 -5.61555495 4.89577096 -8.0625 5.6875 C-8.72572266 5.91244141 -9.38894531 6.13738281 -10.07226562 6.36914062 C-11.71130207 6.92334719 -13.35522593 7.46306085 -15 8 C-15 6.68 -15 5.36 -15 4 C-12.87875034 3.13656176 -10.75286928 2.28449352 -8.625 1.4375 C-6.84996094 0.72400391 -6.84996094 0.72400391 -5.0390625 -0.00390625 C-2 -1 -2 -1 0 0 Z " fill="#D6D6D6" transform="translate(176,82)"/>
<path d="M0 0 C-2.49996659 2.9777759 -5.04711071 3.94548483 -8.6875 5.1875 C-9.68136719 5.53167969 -10.67523438 5.87585938 -11.69921875 6.23046875 C-12.45847656 6.48441406 -13.21773437 6.73835937 -14 7 C-14 5.68 -14 4.36 -14 3 C-12.23358317 2.3012307 -10.46167336 1.61633417 -8.6875 0.9375 C-7.20830078 0.36322266 -7.20830078 0.36322266 -5.69921875 -0.22265625 C-3 -1 -3 -1 0 0 Z " fill="#DADADA" transform="translate(214,141)"/>
<path d="M0 0 C0 0.66 0 1.32 0 2 C-4.62 3.65 -9.24 5.3 -14 7 C-14 5.68 -14 4.36 -14 3 C-12.23358317 2.3012307 -10.46167336 1.61633417 -8.6875 0.9375 C-7.20830078 0.36322266 -7.20830078 0.36322266 -5.69921875 -0.22265625 C-3 -1 -3 -1 0 0 Z " fill="#DADADA" transform="translate(77,141)"/>
<path d="M0 0 C0.33 0.66 0.66 1.32 1 2 C-2.96 3.32 -6.92 4.64 -11 6 C-11 4.68 -11 3.36 -11 2 C-9.54494642 1.47007308 -8.08581873 0.9513211 -6.625 0.4375 C-5.81289062 0.14746094 -5.00078125 -0.14257812 -4.1640625 -0.44140625 C-2 -1 -2 -1 0 0 Z " fill="#D6D6D6" transform="translate(145,141)"/>
<path d="M0 0 C0 0.66 0 1.32 0 2 C-4.455 3.485 -4.455 3.485 -9 5 C-8.67 3.68 -8.34 2.36 -8 1 C-4.70594381 -0.82039948 -3.63772813 -1.21257604 0 0 Z " fill="#D7D7D7" transform="translate(169,264)"/>
<path d="M0 0 C0.33 0.66 0.66 1.32 1 2 C-3.455 3.485 -3.455 3.485 -8 5 C-8 3.68 -8 2.36 -8 1 C-3.375 -1.125 -3.375 -1.125 0 0 Z " fill="#D2D2D2" transform="translate(173,24)"/>
<path d="M0 0 C-2.57404971 3.86107457 -4.61020259 3.94319692 -9 5 C-8.8125 3.125 -8.8125 3.125 -8 1 C-4.70594381 -0.82039948 -3.63772813 -1.21257604 0 0 Z " fill="#DEDEDE" transform="translate(134,205)"/>
<path d="M0 0 C-2.57404971 3.86107457 -4.61020259 3.94319692 -9 5 C-8.8125 3.125 -8.8125 3.125 -8 1 C-4.70594381 -0.82039948 -3.63772813 -1.21257604 0 0 Z " fill="#DCDCDC" transform="translate(271,145)"/>
<path d="M0 0 C2 1 2 1 3 3 C0.69 3.66 -1.62 4.32 -4 5 C-3.6875 3.0625 -3.6875 3.0625 -3 1 C-2.01 0.67 -1.02 0.34 0 0 Z " fill="#DDDDDD" transform="translate(143,140)"/>
</svg>
