<?xml version="1.0" encoding="UTF-8"?>
<svg version="1.1" xmlns="http://www.w3.org/2000/svg" width="128" height="50">
<path d="M0 0 C1.32 0 2.64 0 4 0 C4 1.65 4 3.3 4 5 C22.15 5.33 40.3 5.66 59 6 C59 4.35 59 2.7 59 1 C62.01031744 0.06576355 62.86650268 -0.04449911 66 1 C66.495 3.475 66.495 3.475 67 6 C69.31 6.33 71.62 6.66 74 7 C74 7.66 74 8.32 74 9 C78.46590705 8.88136183 82.93161173 8.75708852 87.3972168 8.62768555 C88.91507755 8.58448452 90.43298226 8.54279952 91.95092773 8.50268555 C94.13799259 8.44462188 96.32483918 8.38103344 98.51171875 8.31640625 C99.82615967 8.27974854 101.14060059 8.24309082 102.49487305 8.20532227 C105.89539055 8.10784599 105.89539055 8.10784599 108.71801758 7.35522461 C111.48809982 6.92401998 112.66706766 7.53111668 115 9 C115.0582253 12.08325358 115.09367134 15.16636505 115.125 18.25 C115.14175781 19.12269531 115.15851563 19.99539062 115.17578125 20.89453125 C115.18222656 21.73886719 115.18867188 22.58320313 115.1953125 23.453125 C115.20578613 24.22817383 115.21625977 25.00322266 115.22705078 25.80175781 C114.97326556 28.25883539 114.22444152 29.87311542 113 32 C109.51230332 32.58977752 106.47305963 32.74422706 103 32 C100.47869191 29.85144343 98.43121705 27.4928307 96.25 25.00390625 C93.62204831 22.66338678 92.40432624 22.38874776 88.9375 22.4375 C87.638125 22.623125 86.33875 22.80875 85 23 C84.60167969 22.03320312 84.60167969 22.03320312 84.1953125 21.046875 C83.60363281 20.03367187 83.60363281 20.03367187 83 19 C79.94091587 18.18415432 79.94091587 18.18415432 77 18 C76.67 18.66 76.34 19.32 76 20 C73.4375 20.625 73.4375 20.625 71 21 C72.02072449 24.48747535 73.15722743 27.25728125 75.0625 30.375 C77.36449314 34.20024511 77.68983256 37.58011403 78 42 C74.7 42 71.4 42 68 42 C64.125 33.5 64.125 33.5 63 29 C60.03 28.67 57.06 28.34 54 28 C53.94392578 28.99966797 53.94392578 28.99966797 53.88671875 30.01953125 C53.39004411 36.98271493 52.05018792 43.33366568 50 50 C48.58297487 49.85769192 47.1663904 49.71099254 45.75 49.5625 C44.96109375 49.48128906 44.1721875 49.40007813 43.359375 49.31640625 C41.17635361 49.02365007 39.1226818 48.57935581 37 48 C37.62313991 43.53416396 38.30022673 39.07952687 39 34.625 C39.80564331 29.42439206 40.46760934 24.23517484 41 19 C39.89785156 19.0721875 38.79570313 19.144375 37.66015625 19.21875 C29.73204335 19.71370662 21.81996588 20.10354403 13.875 20.125 C12.86578491 20.13176758 12.86578491 20.13176758 11.83618164 20.13867188 C7.14036171 20.12469795 2.64010307 19.65106123 -2 19 C-2 18.34 -2 17.68 -2 17 C-5.63 16.67 -9.26 16.34 -13 16 C-13 14.02 -13 12.04 -13 10 C-10.36 10.33 -7.72 10.66 -5 11 C-5 10.01 -5 9.02 -5 8 C-4.01 7.67 -3.02 7.34 -2 7 C-0.77030122 3.48809191 -0.77030122 3.48809191 0 0 Z M55 23 C55 23.99 55 24.98 55 26 C55.99 26.33 56.98 26.66 58 27 C58 25.68 58 24.36 58 23 C57.01 23 56.02 23 55 23 Z M60 24 C60 24.66 60 25.32 60 26 C60.66 26 61.32 26 62 26 C62 25.34 62 24.68 62 24 C61.34 24 60.68 24 60 24 Z " fill="#515256" transform="translate(13,0)"/>
<path d="M0 0 C1.2065625 0.0309375 1.2065625 0.0309375 2.4375 0.0625 C3.4375 3.0625 3.4375 3.0625 2.4375 6.0625 C3.4275 6.3925 4.4175 6.7225 5.4375 7.0625 C5.1075 8.3825 4.7775 9.7025 4.4375 11.0625 C2.7875 11.3925 1.1375 11.7225 -0.5625 12.0625 C0.0975 10.4125 0.7575 8.7625 1.4375 7.0625 C-3.8425 7.0625 -9.1225 7.0625 -14.5625 7.0625 C-14.5625 9.0425 -14.5625 11.0225 -14.5625 13.0625 C-15.2225 13.0625 -15.8825 13.0625 -16.5625 13.0625 C-16.541875 13.84625 -16.52125 14.63 -16.5 15.4375 C-16.5625 18.0625 -16.5625 18.0625 -17.5625 20.0625 C-19.37492052 20.08937279 -21.18745233 20.10883715 -23 20.125 C-24.00933594 20.13660156 -25.01867188 20.14820312 -26.05859375 20.16015625 C-28.5625 20.0625 -28.5625 20.0625 -29.5625 19.0625 C-29.70365161 16.39191149 -29.60497107 13.73817762 -29.5625 11.0625 C-30.66464844 11.1346875 -31.76679687 11.206875 -32.90234375 11.28125 C-40.83045665 11.77620662 -48.74253412 12.16604403 -56.6875 12.1875 C-57.69671509 12.19426758 -57.69671509 12.19426758 -58.72631836 12.20117188 C-63.42213829 12.18719795 -67.92239693 11.71356123 -72.5625 11.0625 C-72.748125 10.134375 -72.748125 10.134375 -72.9375 9.1875 C-73.43447356 6.87129168 -73.43447356 6.87129168 -75.5625 5.0625 C-73.91758414 3.06123132 -73.0178521 2.14769594 -70.43139648 1.66377258 C-69.60712158 1.65266953 -68.78284668 1.64156647 -67.93359375 1.63012695 C-66.99410889 1.61033279 -66.05462402 1.59053864 -65.08666992 1.57014465 C-63.55876831 1.56055977 -63.55876831 1.56055977 -62 1.55078125 C-60.93950439 1.53283005 -59.87900879 1.51487885 -58.78637695 1.49638367 C-55.37846004 1.44217163 -51.97067726 1.40847489 -48.5625 1.375 C-46.32810511 1.3418079 -44.09372911 1.3073165 -41.859375 1.27148438 C-33.48439141 1.14570866 -25.11041174 1.04214563 -16.734375 1.07958984 C-15.84532471 1.083311 -14.95627441 1.08703217 -14.0402832 1.09086609 C-12.38774042 1.10036563 -10.73521579 1.11460758 -9.08276367 1.13435364 C-7.24256239 1.14685808 -5.40212445 1.11023879 -3.5625 1.0625 C-2.5625 0.0625 -2.5625 0.0625 0 0 Z " fill="#323235" transform="translate(83.5625,7.9375)"/>
<path d="M0 0 C2.21826172 0.13427734 2.21826172 0.13427734 4.21826172 2.13427734 C4.41762502 4.96640896 4.49647045 7.67900102 4.46826172 10.50927734 C4.47986328 11.66169922 4.47986328 11.66169922 4.49169922 12.83740234 C4.46762123 19.7959422 4.46762123 19.7959422 2.21826172 23.13427734 C-1.27159433 23.72442002 -4.303379 23.85692816 -7.78173828 23.13427734 C-12.17704632 19.96496027 -16.04781363 16.33605129 -17.78173828 11.13427734 C-20.09173828 10.80427734 -22.40173828 10.47427734 -24.78173828 10.13427734 C-24.78173828 9.47427734 -24.78173828 8.81427734 -24.78173828 8.13427734 C-17.85173828 8.13427734 -10.92173828 8.13427734 -3.78173828 8.13427734 C-3.78173828 7.47427734 -3.78173828 6.81427734 -3.78173828 6.13427734 C-4.75784058 6.14998779 -4.75784058 6.14998779 -5.75366211 6.16601562 C-8.70048159 6.2075757 -11.6472394 6.23360343 -14.59423828 6.25927734 C-15.61839844 6.27603516 -16.64255859 6.29279297 -17.69775391 6.31005859 C-18.68066406 6.31650391 -19.66357422 6.32294922 -20.67626953 6.32958984 C-21.58223877 6.34006348 -22.48820801 6.35053711 -23.42163086 6.36132812 C-25.78173828 6.13427734 -25.78173828 6.13427734 -28.78173828 4.13427734 C-30.43723359 3.74927843 -32.10398158 3.406346 -33.78173828 3.13427734 C-30.28378302 0.80230717 -28.68501151 0.83594353 -24.53955078 0.72021484 C-22.69296875 0.66220703 -22.69296875 0.66220703 -20.80908203 0.60302734 C-19.52130859 0.57208984 -18.23353516 0.54115234 -16.90673828 0.50927734 C-14.98667969 0.45126953 -14.98667969 0.45126953 -13.02783203 0.39208984 C-6.51223792 0.23724736 -6.51223792 0.23724736 0 0 Z " fill="#323134" transform="translate(123.78173828125,8.86572265625)"/>
<path d="M0 0 C1.26092972 0.00212242 1.26092972 0.00212242 2.54733276 0.00428772 C5.23732025 0.00989388 7.92722509 0.02244739 10.6171875 0.03515625 C12.43880088 0.04017046 14.26041557 0.0447335 16.08203125 0.04882812 C20.55211527 0.05986531 25.02213736 0.07713405 29.4921875 0.09765625 C29.4921875 1.41765625 29.4921875 2.73765625 29.4921875 4.09765625 C28.1721875 4.42765625 26.8521875 4.75765625 25.4921875 5.09765625 C25.4921875 5.75765625 25.4921875 6.41765625 25.4921875 7.09765625 C29.21832903 5.97911039 29.21832903 5.97911039 31.4921875 3.09765625 C33.77734375 2.68359375 33.77734375 2.68359375 36.5546875 2.47265625 C37.47378906 2.39789063 38.39289062 2.323125 39.33984375 2.24609375 C40.05011719 2.19710938 40.76039062 2.148125 41.4921875 2.09765625 C41.4921875 3.76432292 41.4921875 5.43098958 41.4921875 7.09765625 C40.5021875 7.09765625 39.5121875 7.09765625 38.4921875 7.09765625 C38.4921875 8.08765625 38.4921875 9.07765625 38.4921875 10.09765625 C37.8321875 10.09765625 37.1721875 10.09765625 36.4921875 10.09765625 C36.4921875 11.08765625 36.4921875 12.07765625 36.4921875 13.09765625 C34.0171875 12.10765625 34.0171875 12.10765625 31.4921875 11.09765625 C31.4921875 10.10765625 31.4921875 9.11765625 31.4921875 8.09765625 C30.39003906 8.16984375 29.28789063 8.24203125 28.15234375 8.31640625 C20.22423085 8.81136287 12.31215338 9.20120028 4.3671875 9.22265625 C3.35797241 9.22942383 3.35797241 9.22942383 2.32836914 9.23632812 C-2.36745079 9.2223542 -6.86770943 8.74871748 -11.5078125 8.09765625 C-11.5078125 7.76765625 -11.5078125 7.43765625 -11.5078125 7.09765625 C-0.16165667 6.4584362 11.12435102 5.92826796 22.4921875 6.09765625 C22.4921875 5.43765625 22.4921875 4.77765625 22.4921875 4.09765625 C21.93442627 4.25919189 21.37666504 4.42072754 20.80200195 4.5871582 C16.49145834 5.53984256 12.07667426 5.28227676 7.6796875 5.28515625 C6.70708984 5.29740234 5.73449219 5.30964844 4.73242188 5.32226562 C-0.75343096 5.33340818 -5.32592019 4.92613429 -10.5078125 3.09765625 C-10.5078125 2.43765625 -10.5078125 1.77765625 -10.5078125 1.09765625 C-7.22889325 -0.54180338 -3.60167716 -0.02264553 0 0 Z " fill="#565A5E" transform="translate(22.5078125,10.90234375)"/>
<path d="M0 0 C0.33 0 0.66 0 1 0 C1.05404449 2.75026417 1.09369306 5.49946203 1.125 8.25 C1.15013672 9.41595703 1.15013672 9.41595703 1.17578125 10.60546875 C1.23662606 17.72431144 1.23662606 17.72431144 -1 21 C-4.49187448 21.59048399 -7.52165829 21.73608061 -11 21 C-14.47965954 18.38643434 -17.2437986 15.35537562 -20 12 C-19 9 -19 9 -17.4375 7.8125 C-13.88877617 6.62959206 -10.73298379 6.87556721 -7 7 C-6.34 9.31 -5.68 11.62 -5 14 C-4.34 13.01 -3.68 12.02 -3 11 C-3 13.31 -3 15.62 -3 18 C-2.34 18 -1.68 18 -1 18 C-0.67 12.06 -0.34 6.12 0 0 Z " fill="#545457" transform="translate(127,11)"/>
<path d="M0 0 C1.2367598 -0.00450165 1.2367598 -0.00450165 2.49850464 -0.00909424 C3.38603424 0.00325256 4.27356384 0.01559937 5.18798828 0.02832031 C6.10411896 0.03019348 7.02024963 0.03206665 7.96414185 0.03399658 C9.90256384 0.04071984 11.84097221 0.05463976 13.77929688 0.07519531 C16.73987508 0.10625203 19.69991981 0.11615773 22.66064453 0.12207031 C24.54476557 0.13124483 26.42888122 0.14162202 28.31298828 0.15332031 C29.19646942 0.15757019 30.07995056 0.16182007 30.99020386 0.16619873 C35.07754748 0.213465 38.8967229 0.33498068 42.88330078 1.35644531 C42.88330078 1.68644531 42.88330078 2.01644531 42.88330078 2.35644531 C41.23330078 2.35644531 39.58330078 2.35644531 37.88330078 2.35644531 C38.37830078 4.33644531 38.37830078 4.33644531 38.88330078 6.35644531 C36.90330078 7.01644531 34.92330078 7.67644531 32.88330078 8.35644531 C32.88330078 7.69644531 32.88330078 7.03644531 32.88330078 6.35644531 C32.22330078 6.02644531 31.56330078 5.69644531 30.88330078 5.35644531 C32.86330078 5.35644531 34.84330078 5.35644531 36.88330078 5.35644531 C36.88330078 4.03644531 36.88330078 2.71644531 36.88330078 1.35644531 C36.24005859 1.38673828 35.59681641 1.41703125 34.93408203 1.44824219 C22.24193387 2.03667987 9.59041564 2.52462772 -3.11669922 2.35644531 C-3.11669922 3.01644531 -3.11669922 3.67644531 -3.11669922 4.35644531 C7.82301897 5.82205349 18.87284184 5.45114954 29.88330078 5.35644531 C29.88330078 6.01644531 29.88330078 6.67644531 29.88330078 7.35644531 C18.53094416 8.40898169 7.27383187 8.45957889 -4.11669922 8.35644531 C-4.44669922 7.36644531 -4.77669922 6.37644531 -5.11669922 5.35644531 C-5.77669922 4.69644531 -6.43669922 4.03644531 -7.11669922 3.35644531 C-4.82884265 0.63591804 -3.54186908 -0.01782531 0 0 Z " fill="#353638" transform="translate(15.11669921875,9.6435546875)"/>
<path d="M0 0 C-0.33 1.32 -0.66 2.64 -1 4 C-1.99 4 -2.98 4 -4 4 C-4 4.99 -4 5.98 -4 7 C-4.66 7 -5.32 7 -6 7 C-6 7.99 -6 8.98 -6 10 C-8.475 9.01 -8.475 9.01 -11 8 C-11 7.01 -11 6.02 -11 5 C-12.10214844 5.0721875 -13.20429687 5.144375 -14.33984375 5.21875 C-22.26795665 5.71370662 -30.18003412 6.10354403 -38.125 6.125 C-39.13421509 6.13176758 -39.13421509 6.13176758 -40.16381836 6.13867188 C-44.85963829 6.12469795 -49.35989693 5.65106123 -54 5 C-54 4.67 -54 4.34 -54 4 C-42.99127385 3.35038075 -32.03706505 2.86872212 -21.0065918 3.03710938 C-17.72644285 3.07395304 -15.13741651 3.0458055 -12 2 C-11.67 1.34 -11.34 0.68 -11 0 C-7.01133873 -0.99716532 -3.9676931 -1.0502717 0 0 Z " fill="#646568" transform="translate(65,14)"/>
<path d="M0 0 C1.32 0 2.64 0 4 0 C4.33 1.65 4.66 3.3 5 5 C4.34 5 3.68 5 3 5 C3.020625 5.78375 3.04125 6.5675 3.0625 7.375 C3 10 3 10 2 12 C0.18757948 12.02687279 -1.62495233 12.04633715 -3.4375 12.0625 C-4.44683594 12.07410156 -5.45617188 12.08570313 -6.49609375 12.09765625 C-9 12 -9 12 -10 11 C-10.04063832 9.33382885 -10.042721 7.66611905 -10 6 C-9.34 5.67 -8.68 5.34 -8 5 C-7.01 5.99 -6.02 6.98 -5 8 C-5 7.01 -5 6.02 -5 5 C-4.34 5 -3.68 5 -3 5 C-3 4.01 -3 3.02 -3 2 C-2.01 2 -1.02 2 0 2 C0 1.34 0 0.68 0 0 Z " fill="#45474B" transform="translate(64,16)"/>
<path d="M0 0 C21.78 0.495 21.78 0.495 44 1 C44 1.33 44 1.66 44 2 C30.47 2.33 16.94 2.66 3 3 C3 3.99 3 4.98 3 6 C3 6.99 3 7.98 3 9 C-0.63 8.67 -4.26 8.34 -8 8 C-8 6.02 -8 4.04 -8 2 C-5.36 2.33 -2.72 2.66 0 3 C0 2.01 0 1.02 0 0 Z " fill="#65686D" transform="translate(8,8)"/>
<path d="M0 0 C2.05078125 0.03255208 4.1015625 0.06510417 6.15234375 0.09765625 C6.15234375 0.75765625 6.15234375 1.41765625 6.15234375 2.09765625 C5.49234375 2.09765625 4.83234375 2.09765625 4.15234375 2.09765625 C4.15234375 2.75765625 4.15234375 3.41765625 4.15234375 4.09765625 C5.14234375 4.42765625 6.13234375 4.75765625 7.15234375 5.09765625 C6.16234375 5.59265625 6.16234375 5.59265625 5.15234375 6.09765625 C5.15234375 8.07765625 5.15234375 10.05765625 5.15234375 12.09765625 C2.18234375 12.09765625 -0.78765625 12.09765625 -3.84765625 12.09765625 C-4.17765625 12.75765625 -4.50765625 13.41765625 -4.84765625 14.09765625 C-5.17765625 12.77765625 -5.50765625 11.45765625 -5.84765625 10.09765625 C-5.18765625 10.09765625 -4.52765625 10.09765625 -3.84765625 10.09765625 C-3.84765625 8.44765625 -3.84765625 6.79765625 -3.84765625 5.09765625 C-3.18765625 5.09765625 -2.52765625 5.09765625 -1.84765625 5.09765625 C-2.12609375 4.13859375 -2.12609375 4.13859375 -2.41015625 3.16015625 C-2.55453125 2.47953125 -2.69890625 1.79890625 -2.84765625 1.09765625 C-1.84765625 0.09765625 -1.84765625 0.09765625 0 0 Z M-2.84765625 7.09765625 C-2.84765625 8.08765625 -2.84765625 9.07765625 -2.84765625 10.09765625 C-1.85765625 10.42765625 -0.86765625 10.75765625 0.15234375 11.09765625 C0.15234375 9.77765625 0.15234375 8.45765625 0.15234375 7.09765625 C-0.83765625 7.09765625 -1.82765625 7.09765625 -2.84765625 7.09765625 Z M2.15234375 8.09765625 C2.15234375 8.75765625 2.15234375 9.41765625 2.15234375 10.09765625 C2.81234375 10.09765625 3.47234375 10.09765625 4.15234375 10.09765625 C4.15234375 9.43765625 4.15234375 8.77765625 4.15234375 8.09765625 C3.49234375 8.09765625 2.83234375 8.09765625 2.15234375 8.09765625 Z " fill="#656668" transform="translate(70.84765625,15.90234375)"/>
<path d="M0 0 C1.02480469 0.04833984 2.04960938 0.09667969 3.10546875 0.14648438 C4.70068359 0.2305957 4.70068359 0.2305957 6.328125 0.31640625 C7.40707031 0.36861328 8.48601562 0.42082031 9.59765625 0.47460938 C12.25811922 0.60410094 14.91818952 0.73905986 17.578125 0.87890625 C17.578125 1.20890625 17.578125 1.53890625 17.578125 1.87890625 C20.053125 2.37390625 20.053125 2.37390625 22.578125 2.87890625 C22.578125 3.53890625 22.578125 4.19890625 22.578125 4.87890625 C12.018125 4.87890625 1.458125 4.87890625 -9.421875 4.87890625 C-9.421875 3.55890625 -9.421875 2.23890625 -9.421875 0.87890625 C-6.16929474 -0.11493772 -3.38722129 -0.16936106 0 0 Z " fill="#45474A" transform="translate(62.421875,9.12109375)"/>
<path d="M0 0 C1.32 0.99 2.64 1.98 4 3 C3.69055299 5.58373234 3.37756043 8.16695133 3.0625 10.75 C2.93198242 11.84441406 2.93198242 11.84441406 2.79882812 12.9609375 C2.37972591 16.37584442 1.882726 19.67603543 1 23 C-0.32 23 -1.64 23 -3 23 C-2.20264507 17.28562303 -1.31003233 11.58852409 -0.40234375 5.890625 C0.06893008 2.99118942 0.06893008 2.99118942 0 0 Z " fill="#656669" transform="translate(53,25)"/>
<path d="M0 0 C5.88988947 -0.02475223 11.77974854 -0.04288482 17.66967773 -0.05493164 C19.67261279 -0.05995478 21.67554419 -0.06677445 23.6784668 -0.07543945 C26.56039331 -0.08759345 29.44227125 -0.09324857 32.32421875 -0.09765625 C33.66355721 -0.10539818 33.66355721 -0.10539818 35.029953 -0.11329651 C39.1527264 -0.113667 42.97964792 -0.04768418 47 1 C47 1.33 47 1.66 47 2 C45.35 2 43.7 2 42 2 C42.495 3.98 42.495 3.98 43 6 C41.02 6.66 39.04 7.32 37 8 C37 7.34 37 6.68 37 6 C36.34 5.67 35.68 5.34 35 5 C36.98 5 38.96 5 41 5 C41 3.68 41 2.36 41 1 C40.36199463 1.03552979 39.72398926 1.07105957 39.06665039 1.10766602 C25.95097584 1.8130884 13.09231856 2.15625096 0 1 C0 0.67 0 0.34 0 0 Z " fill="#2A2B2D" transform="translate(11,10)"/>
<path d="M0 0 C0.75410156 0.00451172 1.50820313 0.00902344 2.28515625 0.01367188 C4.14847127 0.02546501 6.01174555 0.04340058 7.875 0.0625 C7.875 1.0525 7.875 2.0425 7.875 3.0625 C6.26625 3.000625 6.26625 3.000625 4.625 2.9375 C1.03780039 2.76865777 1.03780039 2.76865777 -1.125 4.1875 C-4.37220291 5.60815127 -6.91123069 4.17495861 -10.125 3.0625 C-10.125 2.4025 -10.125 1.7425 -10.125 1.0625 C-6.93675432 -0.53162284 -3.49603338 -0.03924735 0 0 Z " fill="#5B5F63" transform="translate(22.125,10.9375)"/>
<path d="M0 0 C5.28 0 10.56 0 16 0 C16.33 0.99 16.66 1.98 17 3 C10.6 6.07692308 10.6 6.07692308 7.5625 5.6875 C7.046875 5.460625 6.53125 5.23375 6 5 C6 4.34 6 3.68 6 3 C6.66 3 7.32 3 8 3 C8 2.34 8 1.68 8 1 C5.36 1 2.72 1 0 1 C0 0.67 0 0.34 0 0 Z " fill="#47494D" transform="translate(69,15)"/>
<path d="M0 0 C2.97 0 5.94 0 9 0 C9 1.32 9 2.64 9 4 C7.68 4.33 6.36 4.66 5 5 C5 5.66 5 6.32 5 7 C3.68 6.67 2.36 6.34 1 6 C1.33 5.34 1.66 4.68 2 4 C1.34 4 0.68 4 0 4 C0 2.68 0 1.36 0 0 Z " fill="#494C4F" transform="translate(43,11)"/>
<path d="M0 0 C3.5 0.3125 3.5 0.3125 7 1 C7.495 1.99 7.495 1.99 8 3 C-3.88 3 -15.76 3 -28 3 C-28 2.67 -28 2.34 -28 2 C-26.78098999 1.96241577 -26.78098999 1.96241577 -25.53735352 1.92407227 C-21.87889248 1.80850882 -18.22071472 1.68560416 -14.5625 1.5625 C-13.28310547 1.52318359 -12.00371094 1.48386719 -10.68554688 1.44335938 C-8.86313477 1.38051758 -8.86313477 1.38051758 -7.00390625 1.31640625 C-5.87799072 1.27974854 -4.7520752 1.24309082 -3.59204102 1.20532227 C-1.07146559 1.28781955 -1.07146559 1.28781955 0 0 Z " fill="#7C7C7C" transform="translate(120,7)"/>
<path d="M0 0 C0.82242188 0.05220703 1.64484375 0.10441406 2.4921875 0.15820312 C4.49522899 0.28630462 6.49768871 0.42345061 8.5 0.5625 C8.5 0.8925 8.5 1.2225 8.5 1.5625 C3.55 1.5625 -1.4 1.5625 -6.5 1.5625 C-6.83 2.2225 -7.16 2.8825 -7.5 3.5625 C-11.13 3.2325 -14.76 2.9025 -18.5 2.5625 C-18.17 1.9025 -17.84 1.2425 -17.5 0.5625 C-11.57386329 -0.55198742 -5.99050983 -0.42440908 0 0 Z " fill="#484A4D" transform="translate(59.5,6.4375)"/>
<path d="M0 0 C2.31 0.66 4.62 1.32 7 2 C7 2.66 7 3.32 7 4 C8.32 4.33 9.64 4.66 11 5 C11 5.66 11 6.32 11 7 C7.37 6.67 3.74 6.34 0 6 C0 4.02 0 2.04 0 0 Z " fill="#5C5C5E" transform="translate(0,10)"/>
<path d="M0 0 C0.33 0.99 0.66 1.98 1 3 C-1.38564077 2.42415568 -3.66682784 1.77772405 -6 1 C-6 2.32 -6 3.64 -6 5 C-5.34 5.33 -4.68 5.66 -4 6 C-10.93 6 -17.86 6 -25 6 C-25 5.67 -25 5.34 -25 5 C-19.06 5 -13.12 5 -7 5 C-7 3.35 -7 1.7 -7 0 C-4.3333581 -1.33332095 -2.83319697 -0.67102033 0 0 Z " fill="#79797A" transform="translate(79,1)"/>
<path d="M0 0 C1.32 0 2.64 0 4 0 C4 1.65 4 3.3 4 5 C5.32 5.66 6.64 6.32 8 7 C6.35 7.33 4.7 7.66 3 8 C3 7.34 3 6.68 3 6 C1.35 6.66 -0.3 7.32 -2 8 C-1.34 5.36 -0.68 2.72 0 0 Z " fill="#646466" transform="translate(13,0)"/>
<path d="M0 0 C1.32 0.99 2.64 1.98 4 3 C3.5 10.5 3.5 10.5 -1 15 C-0.67 10.05 -0.34 5.1 0 0 Z " fill="#6A6C6F" transform="translate(53,25)"/>
<path d="M0 0 C0.99 0.33 1.98 0.66 3 1 C4.3395912 0.6927797 5.67265104 0.35641778 7 0 C8.58211573 -0.06548492 10.16670081 -0.08578381 11.75 -0.0625 C12.54921875 -0.05347656 13.3484375 -0.04445313 14.171875 -0.03515625 C14.77515625 -0.02355469 15.3784375 -0.01195312 16 0 C16 0.33 16 0.66 16 1 C13.69 1.33 11.38 1.66 9 2 C9 2.33 9 2.66 9 3 C5.04 3 1.08 3 -3 3 C-2.01 2.01 -1.02 1.02 0 0 Z " fill="#525356" transform="translate(14,6)"/>
<path d="M0 0 C2.86724686 0.57344937 3.8614515 0.8614515 6 3 C5.625 5.125 5.625 5.125 5 7 C3.35 7 1.7 7 0 7 C0 4.66666667 0 2.33333333 0 0 Z " fill="#3F4144" transform="translate(73,2)"/>
<path d="M0 0 C0.33 0.66 0.66 1.32 1 2 C7.435 1.505 7.435 1.505 14 1 C14 1.99 14 2.98 14 4 C11.70858714 4.05384521 9.41681812 4.09272087 7.125 4.125 C5.21074219 4.15980469 5.21074219 4.15980469 3.2578125 4.1953125 C0 4 0 4 -2 2 C-1.34 2 -0.68 2 0 2 C0 1.34 0 0.68 0 0 Z " fill="#4B4D50" transform="translate(23,12)"/>
<path d="M0 0 C0.66 0 1.32 0 2 0 C2 0.66 2 1.32 2 2 C4.97 2 7.94 2 11 2 C11 2.66 11 3.32 11 4 C7.33694766 4.74926071 4.57644848 5.2380014 1 4 C0.67 2.68 0.34 1.36 0 0 Z " fill="#7B7D7E" transform="translate(96,18)"/>
<path d="M0 0 C0.33 0 0.66 0 1 0 C1.02712066 1.43739513 1.04645067 2.87493863 1.0625 4.3125 C1.07410156 5.11300781 1.08570312 5.91351563 1.09765625 6.73828125 C1 9 1 9 0 12 C-0.66 12 -1.32 12 -2 12 C-1.85962479 10.18706911 -1.71255111 8.3746557 -1.5625 6.5625 C-1.48128906 5.55316406 -1.40007812 4.54382813 -1.31640625 3.50390625 C-1 1 -1 1 0 0 Z " fill="#1B1B1C" transform="translate(126,17)"/>
<path d="M0 0 C4.29 0 8.58 0 13 0 C10.36673543 2.63326457 8.67446899 2.71180635 5 3 C2.125 2.0625 2.125 2.0625 0 1 C0 0.67 0 0.34 0 0 Z " fill="#67696A" transform="translate(31,17)"/>
<path d="M0 0 C1.32 0.33 2.64 0.66 4 1 C3.67 2.98 3.34 4.96 3 7 C2.01 6.67 1.02 6.34 0 6 C0 4.02 0 2.04 0 0 Z " fill="#757677" transform="translate(56,17)"/>
<path d="M0 0 C1.65 0 3.3 0 5 0 C4.01 0.495 4.01 0.495 3 1 C3 1.66 3 2.32 3 3 C4.32 3.33 5.64 3.66 7 4 C5.35 4.66 3.7 5.32 2 6 C1.01 4.68 0.02 3.36 -1 2 C-0.67 1.34 -0.34 0.68 0 0 Z " fill="#3C3C40" transform="translate(9,11)"/>
<path d="M0 0 C1.53202706 0.25195908 3.05257128 0.57596777 4.5625 0.9375 C5.38878906 1.13214844 6.21507813 1.32679688 7.06640625 1.52734375 C8.02353516 1.76130859 8.02353516 1.76130859 9 2 C9 2.66 9 3.32 9 4 C9.99 4.33 10.98 4.66 12 5 C10.68 5 9.36 5 8 5 C8 4.34 8 3.68 8 3 C5.69 3.66 3.38 4.32 1 5 C0.34 3.68 -0.32 2.36 -1 1 C-0.67 0.67 -0.34 0.34 0 0 Z " fill="#797A7C" transform="translate(78,5)"/>
<path d="M0 0 C1.98 0 3.96 0 6 0 C6 1.65 6 3.3 6 5 C4.68 4.67 3.36 4.34 2 4 C2 3.01 2 2.02 2 1 C1.34 0.67 0.68 0.34 0 0 Z " fill="#4E5154" transform="translate(37,11)"/>
<path d="M0 0 C0.99 0 1.98 0 3 0 C2.67 1.65 2.34 3.3 2 5 C1.01 5.33 0.02 5.66 -1 6 C-1 5.34 -1 4.68 -1 4 C-1.99 4 -2.98 4 -4 4 C-3.67 3.34 -3.34 2.68 -3 2 C-2.01 2.33 -1.02 2.66 0 3 C0 2.01 0 1.02 0 0 Z " fill="#7E7E81" transform="translate(8,8)"/>
<path d="M0 0 C1.65 0 3.3 0 5 0 C5 1.65 5 3.3 5 5 C4.67 4.34 4.34 3.68 4 3 C2.68 3.33 1.36 3.66 0 4 C0 2.68 0 1.36 0 0 Z " fill="#2B2B2D" transform="translate(121,9)"/>
<path d="M0 0 C0.33 0.99 0.66 1.98 1 3 C-1.38564077 2.42415568 -3.66682784 1.77772405 -6 1 C-6.33 1.99 -6.66 2.98 -7 4 C-7 2.68 -7 1.36 -7 0 C-4.3333581 -1.33332095 -2.83319697 -0.67102033 0 0 Z " fill="#828284" transform="translate(79,1)"/>
<path d="M0 0 C0 1.65 0 3.3 0 5 C-1.32 4.67 -2.64 4.34 -4 4 C-4 3.01 -4 2.02 -4 1 C-2 0 -2 0 0 0 Z " fill="#5D5F65" transform="translate(125,12)"/>
<path d="M0 0 C2.6875 0.3125 2.6875 0.3125 5 1 C4.67 1.99 4.34 2.98 4 4 C1.69 3.67 -0.62 3.34 -3 3 C-1.8125 1.4375 -1.8125 1.4375 0 0 Z " fill="#3A3B40" transform="translate(64,13)"/>
</svg>
