<?xml version="1.0" encoding="UTF-8"?>
<svg version="1.1" xmlns="http://www.w3.org/2000/svg" width="90" height="85">
<path d="M0 0 C0.99 0.66 1.98 1.32 3 2 C3 2.66 3 3.32 3 4 C3.99 4 4.98 4 6 4 C5.9278125 4.62003906 5.855625 5.24007813 5.78125 5.87890625 C5.18999701 11.52044522 4.86209156 17.1406669 4.75 22.8125 C4.72421875 24.03582031 4.6984375 25.25914063 4.671875 26.51953125 C5.11435085 31.21293578 6.92223546 34.38335319 9.5 38.25 C11.6994411 42.28230869 12.79126832 46.58512896 14 51 C14.99 51 15.98 51 17 51 C17.33 45.39 17.66 39.78 18 34 C19.485 34.495 19.485 34.495 21 35 C20.97679688 36.19238281 20.95359375 37.38476562 20.9296875 38.61328125 C20.91092822 40.17968124 20.89272819 41.746088 20.875 43.3125 C20.84986328 44.49102539 20.84986328 44.49102539 20.82421875 45.69335938 C20.81777344 46.45068359 20.81132813 47.20800781 20.8046875 47.98828125 C20.79421387 48.68477783 20.78374023 49.38127441 20.77294922 50.09887695 C20.89425405 52.331173 20.89425405 52.331173 23 55 C24.83157785 61.89668203 26.53347883 70.21965818 24.30078125 77.1796875 C23 79 23 79 20.65234375 79.79296875 C19.75644531 79.92316406 18.86054687 80.05335937 17.9375 80.1875 C14.6672107 80.45274003 14.6672107 80.45274003 12 82 C10.00458104 82.22528924 8.00840136 82.44761095 6.0078125 82.62109375 C3.69284593 82.92253842 3.69284593 82.92253842 1 85 C-0.93505859 85.25396729 -0.93505859 85.25396729 -3.1484375 85.25878906 C-3.97939941 85.26509338 -4.81036133 85.27139771 -5.66650391 85.27789307 C-6.56030762 85.2738446 -7.45411133 85.26979614 -8.375 85.265625 C-9.29587402 85.26753845 -10.21674805 85.2694519 -11.16552734 85.27142334 C-13.11230747 85.27278421 -15.05909669 85.26909463 -17.00585938 85.26074219 C-19.98848828 85.2500413 -22.97051486 85.26064082 -25.953125 85.2734375 C-27.84375133 85.27211589 -29.73437729 85.26955346 -31.625 85.265625 C-32.51880371 85.26967346 -33.41260742 85.27372192 -34.33349609 85.27789307 C-35.57993896 85.26843658 -35.57993896 85.26843658 -36.8515625 85.25878906 C-37.94718506 85.25640228 -37.94718506 85.25640228 -39.06494141 85.25396729 C-41 85 -41 85 -44 83 C-46.57648542 82.6325272 -49.12536129 82.49630771 -51.72265625 82.34375 C-54 82 -54 82 -56 80 C-57.155 79.855625 -58.31 79.71125 -59.5 79.5625 C-60.655 79.376875 -61.81 79.19125 -63 79 C-65.20192224 75.69711664 -65.23959968 74.72537273 -65.1953125 70.89453125 C-65.18886719 69.91162109 -65.18242188 68.92871094 -65.17578125 67.91601562 C-65.15902344 66.89185547 -65.14226562 65.86769531 -65.125 64.8125 C-65.11597656 63.77673828 -65.10695313 62.74097656 -65.09765625 61.67382812 C-65.0740786 59.11565315 -65.0411703 56.55794252 -65 54 C-63.515 53.505 -63.515 53.505 -62 53 C-62.33 48.71 -62.66 44.42 -63 40 C-62.01 40 -61.02 40 -60 40 C-59.67 41.98 -59.34 43.96 -59 46 C-55.17263811 46.40465093 -55.17263811 46.40465093 -53.296875 44.69921875 C-45.80429007 34.95507421 -48.40451142 20.53517016 -49.87890625 9.03125 C-50 7 -50 7 -49 4 C-44.46212043 1.05922723 -40.53589919 0.59883617 -35.265625 0.7421875 C-34.54638855 0.74880402 -33.8271521 0.75542053 -33.08612061 0.76223755 C-30.80696253 0.78549174 -28.52880673 0.82920211 -26.25 0.875 C-23.95703536 0.91008414 -21.66412389 0.9408409 -19.37103271 0.96633911 C-17.94861981 0.98329882 -16.52626427 1.00642694 -15.10406494 1.03634644 C-9.88398422 1.11579635 -5.31584048 -0.62105859 0 0 Z " fill="#444347" transform="translate(65,0)"/>
<path d="M0 0 C0.99 0.33 1.98 0.66 3 1 C2.97679688 2.19238281 2.95359375 3.38476562 2.9296875 4.61328125 C2.91092822 6.17968124 2.89272819 7.746088 2.875 9.3125 C2.84986328 10.49102539 2.84986328 10.49102539 2.82421875 11.69335938 C2.81777344 12.45068359 2.81132813 13.20800781 2.8046875 13.98828125 C2.79421387 14.68477783 2.78374023 15.38127441 2.77294922 16.09887695 C2.89425405 18.331173 2.89425405 18.331173 5 21 C6.83157785 27.89668203 8.53347883 36.21965818 6.30078125 43.1796875 C5 45 5 45 2.65234375 45.79296875 C1.75644531 45.92316406 0.86054687 46.05335937 -0.0625 46.1875 C-3.3327893 46.45274003 -3.3327893 46.45274003 -6 48 C-7.99541896 48.22528924 -9.99159864 48.44761095 -11.9921875 48.62109375 C-14.30715407 48.92253842 -14.30715407 48.92253842 -17 51 C-18.93505859 51.25396729 -18.93505859 51.25396729 -21.1484375 51.25878906 C-21.97939941 51.26509338 -22.81036133 51.27139771 -23.66650391 51.27789307 C-24.56030762 51.2738446 -25.45411133 51.26979614 -26.375 51.265625 C-27.29587402 51.26753845 -28.21674805 51.2694519 -29.16552734 51.27142334 C-31.11230747 51.27278421 -33.05909669 51.26909463 -35.00585938 51.26074219 C-37.98848828 51.2500413 -40.97051486 51.26064082 -43.953125 51.2734375 C-45.84375133 51.27211589 -47.73437729 51.26955346 -49.625 51.265625 C-50.96570557 51.27169769 -50.96570557 51.27169769 -52.33349609 51.27789307 C-53.16445801 51.27158875 -53.99541992 51.26528442 -54.8515625 51.25878906 C-55.94718506 51.25640228 -55.94718506 51.25640228 -57.06494141 51.25396729 C-59 51 -59 51 -62 49 C-64.57648542 48.6325272 -67.12536129 48.49630771 -69.72265625 48.34375 C-72 48 -72 48 -74 46 C-75.155 45.855625 -76.31 45.71125 -77.5 45.5625 C-78.655 45.376875 -79.81 45.19125 -81 45 C-83.20192224 41.69711664 -83.23959968 40.72537273 -83.1953125 36.89453125 C-83.18886719 35.91162109 -83.18242188 34.92871094 -83.17578125 33.91601562 C-83.15902344 32.89185547 -83.14226562 31.86769531 -83.125 30.8125 C-83.11597656 29.77673828 -83.10695313 28.74097656 -83.09765625 27.67382812 C-83.0740786 25.11565315 -83.0411703 22.55794252 -83 20 C-82.01 19.67 -81.02 19.34 -80 19 C-80.33 14.71 -80.66 10.42 -81 6 C-80.01 6 -79.02 6 -78 6 C-77.67 7.98 -77.34 9.96 -77 12 C-73.12202338 12.43386092 -73.12202338 12.43386092 -71.25 10.5 C-70.8375 10.005 -70.425 9.51 -70 9 C-70 10.65 -70 12.3 -70 14 C-70.66 14 -71.32 14 -72 14 C-72 15.32 -72 16.64 -72 18 C-73.98 18 -75.96 18 -78 18 C-78.33 20.31 -78.66 22.62 -79 25 C-78.01 25.33 -77.02 25.66 -76 26 C-76.66666667 28.66666667 -77.33333333 31.33333333 -78 34 C-77.01 34 -76.02 34 -75 34 C-74.67 37.3 -74.34 40.6 -74 44 C-73.34 44 -72.68 44 -72 44 C-72 44.66 -72 45.32 -72 46 C-71.01 45.34 -70.02 44.68 -69 44 C-69 43.01 -69 42.02 -69 41 C-65.535 40.505 -65.535 40.505 -62 40 C-62 40.66 -62 41.32 -62 42 C-60.515 42.495 -60.515 42.495 -59 43 C-58.83138242 40.43761495 -58.66504227 37.87511576 -58.5 35.3125 C-58.42845703 34.2306543 -58.42845703 34.2306543 -58.35546875 33.12695312 C-58.11796481 29.41171286 -57.94125363 25.72305126 -58 22 C-58.66 21.67 -59.32 21.34 -60 21 C-56.7 19.35 -53.4 17.7 -50 16 C-47.55591476 23.3549914 -45.52541447 30.2501365 -45 38 C-42.55566049 33.11132099 -43.94390379 26.14846902 -45 21 C-45.66 21 -46.32 21 -47 21 C-47 20.34 -47 19.68 -47 19 C-45.5437455 18.32880451 -44.08492133 17.66318193 -42.625 17 C-41.81289063 16.62875 -41.00078125 16.2575 -40.1640625 15.875 C-38 15 -38 15 -36 15 C-35.505 16.98 -35.505 16.98 -35 19 C-34.01 19 -33.02 19 -32 19 C-31.87261146 24.60509554 -31.87261146 24.60509554 -32.625 26.9375 C-33.09918368 29.54551023 -32.28342371 31.31633067 -31.484375 33.7890625 C-30.4710081 38.41459208 -30.68081314 43.29384955 -31 48 C-31.33 48.33 -31.66 48.66 -32 49 C-31.01 49 -30.02 49 -29 49 C-29.33 48.67 -29.66 48.34 -30 48 C-30.1245486 46.35769636 -30.17568524 44.70947724 -30.1875 43.0625 C-30.20167969 42.16660156 -30.21585938 41.27070312 -30.23046875 40.34765625 C-30 38 -30 38 -28 36 C-28 37.98 -28 39.96 -28 42 C-25.36 42 -22.72 42 -20 42 C-20 36.06 -20 30.12 -20 24 C-22.97 23.67 -25.94 23.34 -29 23 C-29.33 21.35 -29.66 19.7 -30 18 C-24.555 16.515 -24.555 16.515 -19 15 C-18.01 16.485 -18.01 16.485 -17 18 C-16.34 18 -15.68 18 -15 18 C-14.505 20.475 -14.505 20.475 -14 23 C-12.35 23.33 -10.7 23.66 -9 24 C-9 29.28 -9 34.56 -9 40 C-10.65 40 -12.3 40 -14 40 C-12.741875 40.37125 -11.48375 40.7425 -10.1875 41.125 C-9.47980469 41.33382812 -8.77210937 41.54265625 -8.04296875 41.7578125 C-5.68854587 42.26093748 -5.68854587 42.26093748 -3 40 C-3.165 39.360625 -3.33 38.72125 -3.5 38.0625 C-4.54139518 31.68395451 -4.48353622 26.05361955 -2 20 C-2.66 19.67 -3.32 19.34 -4 19 C-4 20.65 -4 22.3 -4 24 C-4.680625 23.01 -4.680625 23.01 -5.375 22 C-5.91125 21.34 -6.4475 20.68 -7 20 C-7.66 20 -8.32 20 -9 20 C-9 15.38 -9 10.76 -9 6 C-7 7 -7 7 -6.1484375 9.28515625 C-5.89320312 10.20167969 -5.63796875 11.11820313 -5.375 12.0625 C-4.98441406 13.44115234 -4.98441406 13.44115234 -4.5859375 14.84765625 C-4.39257812 15.55792969 -4.19921875 16.26820312 -4 17 C-3.01 17 -2.02 17 -1 17 C-0.67 11.39 -0.34 5.78 0 0 Z " fill="#525256" transform="translate(83,34)"/>
<path d="M0 0 C0.99 0.66 1.98 1.32 3 2 C3 2.66 3 3.32 3 4 C3.99 4 4.98 4 6 4 C5.90912109 4.93682617 5.90912109 4.93682617 5.81640625 5.89257812 C5.5403579 8.76135752 5.27014156 11.6306586 5 14.5 C4.90460938 15.48226563 4.80921875 16.46453125 4.7109375 17.4765625 C3.19954737 27.67371062 3.19954737 27.67371062 6 37 C5.625 39.6875 5.625 39.6875 5 42 C2.525 42.495 2.525 42.495 0 43 C0 39.04 0 35.08 0 31 C-0.66 34.96 -1.32 38.92 -2 43 C-2.66 41.68 -3.32 40.36 -4 39 C-6.41645782 38.83312552 -6.41645782 38.83312552 -9 39 C-9.66 39.66 -10.32 40.32 -11 41 C-11.33 39.35 -11.66 37.7 -12 36 C-12.66 36 -13.32 36 -14 36 C-14 34.35 -14 32.7 -14 31 C-21.26 30.67 -28.52 30.34 -36 30 C-36 30.99 -36 31.98 -36 33 C-34.68 33.33 -33.36 33.66 -32 34 C-33.32 34 -34.64 34 -36 34 C-36.33 34.99 -36.66 35.98 -37 37 C-37.495 35.515 -37.495 35.515 -38 34 C-38.66 34 -39.32 34 -40 34 C-40.33 38.29 -40.66 42.58 -41 47 C-41.66 47 -42.32 47 -43 47 C-43.99 44.03 -44.98 41.06 -46 38 C-46.66 38 -47.32 38 -48 38 C-48.09087891 36.02580078 -48.09087891 36.02580078 -48.18359375 34.01171875 C-48.2676643 32.23695232 -48.35233885 30.46221443 -48.4375 28.6875 C-48.50300049 27.31766968 -48.50300049 27.31766968 -48.56982422 25.92016602 C-48.85260377 20.2560211 -49.24700169 14.63005326 -49.9140625 8.99609375 C-50 7 -50 7 -49 4 C-44.46212043 1.05922723 -40.53589919 0.59883617 -35.265625 0.7421875 C-34.54638855 0.74880402 -33.8271521 0.75542053 -33.08612061 0.76223755 C-30.80696253 0.78549174 -28.52880673 0.82920211 -26.25 0.875 C-23.95703536 0.91008414 -21.66412389 0.9408409 -19.37103271 0.96633911 C-17.94861981 0.98329882 -16.52626427 1.00642694 -15.10406494 1.03634644 C-9.88398422 1.11579635 -5.31584048 -0.62105859 0 0 Z " fill="#5E5F5F" transform="translate(65,0)"/>
<path d="M0 0 C-1.33333333 2.66666667 -2.66666667 5.33333333 -4 8 C-3.2575 7.896875 -2.515 7.79375 -1.75 7.6875 C1 8 1 8 3.0625 10.375 C3.701875 11.24125 4.34125 12.1075 5 13 C8.58940449 15.48820546 11.98836115 15.20391924 16.25 15.125 C18.14492188 15.09792969 18.14492188 15.09792969 20.078125 15.0703125 C21.04234375 15.04710937 22.0065625 15.02390625 23 15 C22.67 18.3 22.34 21.6 22 25 C23.65 25.33 25.3 25.66 27 26 C27 26.66 27 27.32 27 28 C26.34 28 25.68 28 25 28 C25 30.31 25 32.62 25 35 C24.34 35 23.68 35 23 35 C23 33.35 23 31.7 23 30 C15.74 29.67 8.48 29.34 1 29 C1 29.99 1 30.98 1 32 C2.32 32.33 3.64 32.66 5 33 C3.68 33 2.36 33 1 33 C0.67 33.99 0.34 34.98 0 36 C-0.495 34.515 -0.495 34.515 -1 33 C-1.66 33 -2.32 33 -3 33 C-3.33 37.29 -3.66 41.58 -4 46 C-4.66 46 -5.32 46 -6 46 C-6.99 43.03 -7.98 40.06 -9 37 C-9.66 37 -10.32 37 -11 37 C-11.09087891 35.02580078 -11.09087891 35.02580078 -11.18359375 33.01171875 C-11.2676643 31.23695232 -11.35233885 29.46221443 -11.4375 27.6875 C-11.50300049 26.31766968 -11.50300049 26.31766968 -11.56982422 24.92016602 C-11.85260377 19.2560211 -12.24700169 13.63005326 -12.9140625 7.99609375 C-13 6 -13 6 -12 3 C-7.8693377 0.40632832 -4.84981776 -0.34641555 0 0 Z " fill="#606162" transform="translate(28,1)"/>
<path d="M0 0 C0.99 0.33 1.98 0.66 3 1 C2.97679688 2.19238281 2.95359375 3.38476562 2.9296875 4.61328125 C2.91092822 6.17968124 2.89272819 7.746088 2.875 9.3125 C2.85824219 10.09818359 2.84148437 10.88386719 2.82421875 11.69335938 C2.81777344 12.45068359 2.81132813 13.20800781 2.8046875 13.98828125 C2.79421387 14.68477783 2.78374023 15.38127441 2.77294922 16.09887695 C2.89425405 18.331173 2.89425405 18.331173 5 21 C6.83157785 27.89668203 8.53347883 36.21965818 6.30078125 43.1796875 C5 45 5 45 2.65234375 45.79296875 C1.75644531 45.92316406 0.86054687 46.05335937 -0.0625 46.1875 C-3.3327893 46.45274003 -3.3327893 46.45274003 -6 48 C-7.97211066 48.26294809 -9.94496202 48.52209102 -11.921875 48.74609375 C-14.31173671 49.03808813 -16.64860008 49.48563127 -19 50 C-18.67 48.68 -18.34 47.36 -18 46 C-17.01 46 -16.02 46 -15 46 C-15 45.34 -15 44.68 -15 44 C-15.66 44 -16.32 44 -17 44 C-17 39.38 -17 34.76 -17 30 C-17.66 29.67 -18.32 29.34 -19 29 C-19 28.01 -19 27.02 -19 26 C-18.360625 25.87625 -17.72125 25.7525 -17.0625 25.625 C-16.381875 25.41875 -15.70125 25.2125 -15 25 C-14.67 24.34 -14.34 23.68 -14 23 C-12.35 23.33 -10.7 23.66 -9 24 C-9 29.28 -9 34.56 -9 40 C-10.65 40 -12.3 40 -14 40 C-12.741875 40.37125 -11.48375 40.7425 -10.1875 41.125 C-9.47980469 41.33382812 -8.77210937 41.54265625 -8.04296875 41.7578125 C-5.68854587 42.26093748 -5.68854587 42.26093748 -3 40 C-3.165 39.360625 -3.33 38.72125 -3.5 38.0625 C-4.54139518 31.68395451 -4.48353622 26.05361955 -2 20 C-2.66 19.67 -3.32 19.34 -4 19 C-4 20.65 -4 22.3 -4 24 C-4.45375 23.34 -4.9075 22.68 -5.375 22 C-5.91125 21.34 -6.4475 20.68 -7 20 C-7.66 20 -8.32 20 -9 20 C-9 15.38 -9 10.76 -9 6 C-7 7 -7 7 -6.1484375 9.28515625 C-5.89320312 10.20167969 -5.63796875 11.11820313 -5.375 12.0625 C-5.11460938 12.98160156 -4.85421875 13.90070312 -4.5859375 14.84765625 C-4.39257812 15.55792969 -4.19921875 16.26820312 -4 17 C-3.01 17 -2.02 17 -1 17 C-0.67 11.39 -0.34 5.78 0 0 Z " fill="#3E3E40" transform="translate(83,34)"/>
<path d="M0 0 C3 1 3 1 4.6875 3.875 C6 7 6 7 6 10 C6.66 10 7.32 10 8 10 C8 10.66 8 11.32 8 12 C1.25 12.125 1.25 12.125 -1 11 C-1.33 12.65 -1.66 14.3 -2 16 C0.41645782 16.16687448 0.41645782 16.16687448 3 16 C3.66 15.34 4.32 14.68 5 14 C5 14.66 5 15.32 5 16 C6.65 16 8.3 16 10 16 C9.34 16.66 8.68 17.32 8 18 C8.33515625 18.81855469 8.6703125 19.63710938 9.015625 20.48046875 C10.18306032 24.6545133 10.08460061 28.03661551 9.75 32.3125 C9.71003906 33.04017578 9.67007812 33.76785156 9.62890625 34.51757812 C9.50234765 36.35267785 9.26043277 38.17907088 9 40 C8.01 40.495 8.01 40.495 7 41 C7 40.34 7 39.68 7 39 C5.515 39.495 5.515 39.495 4 40 C3.67 39.34 3.34 38.68 3 38 C1.35 38 -0.3 38 -2 38 C-1.67 39.32 -1.34 40.64 -1 42 C-2.98 42.495 -2.98 42.495 -5 43 C-5 42.34 -5 41.68 -5 41 C-5.66 41 -6.32 41 -7 41 C-7.33 37.7 -7.66 34.4 -8 31 C-8.99 31 -9.98 31 -11 31 C-10.47731534 28.23723823 -9.89130413 25.6739124 -9 23 C-10.65 23 -12.3 23 -14 23 C-13.34 22.67 -12.68 22.34 -12 22 C-11.59270772 19.67843403 -11.25561323 17.3431213 -11 15 C-9.35 15 -7.7 15 -6 15 C-5.71125 13.948125 -5.4225 12.89625 -5.125 11.8125 C-3.82476162 7.40613661 -2.5491042 3.8236563 0 0 Z " fill="#3C3C3F" transform="translate(16,37)"/>
<path d="M0 0 C0.66 0.66 1.32 1.32 2 2 C4.35539502 1.6797374 4.35539502 1.6797374 7 1 C8.93502491 0.78847906 10.87283455 0.60108624 12.8125 0.4375 C14.27623047 0.31181641 14.27623047 0.31181641 15.76953125 0.18359375 C16.50558594 0.12300781 17.24164063 0.06242187 18 0 C18 0.66 18 1.32 18 2 C17.34 2 16.68 2 16 2 C16 2.66 16 3.32 16 4 C13.03 4.66 10.06 5.32 7 6 C7.66 7.32 8.32 8.64 9 10 C11.64 10 14.28 10 17 10 C17 16.6 17 23.2 17 30 C14.36 30 11.72 30 9 30 C8.505 28.02 8.505 28.02 8 26 C7.97301811 27.62490954 7.95361243 29.24994633 7.9375 30.875 C7.92589844 31.77992187 7.91429687 32.68484375 7.90234375 33.6171875 C7.83750743 36.0168585 7.83750743 36.0168585 9 38 C7.35 38 5.7 38 4 38 C4.495 37.01 4.495 37.01 5 36 C5.08308638 34.62451844 5.10736016 33.24514204 5.09765625 31.8671875 C5.09443359 31.06152344 5.09121094 30.25585938 5.08789062 29.42578125 C5.07951172 28.58402344 5.07113281 27.74226563 5.0625 26.875 C5.05798828 26.02550781 5.05347656 25.17601563 5.04882812 24.30078125 C5.03702874 22.20049091 5.01909306 20.1002367 5 18 C4.34 17.67 3.68 17.34 3 17 C3.66 13.7 4.32 10.4 5 7 C4.01 7 3.02 7 2 7 C1.505 5.02 1.505 5.02 1 3 C0.37351563 3.28875 -0.25296875 3.5775 -0.8984375 3.875 C-2.12433594 4.431875 -2.12433594 4.431875 -3.375 5 C-4.18710937 5.37125 -4.99921875 5.7425 -5.8359375 6.125 C-8 7 -8 7 -10 7 C-10 7.66 -10 8.32 -10 9 C-9.34 9 -8.68 9 -8 9 C-5.93189553 14.04100465 -5.53755748 18.62276143 -6 24 C-6.33 24.66 -6.66 25.32 -7 26 C-7.2275015 27.87056791 -7.40962811 29.74685958 -7.5625 31.625 C-7.64628906 32.62789062 -7.73007812 33.63078125 -7.81640625 34.6640625 C-7.90728516 35.82035156 -7.90728516 35.82035156 -8 37 C-8.33 37 -8.66 37 -9 37 C-9.03738281 35.68386719 -9.07476562 34.36773437 -9.11328125 33.01171875 C-9.44073839 23.67963394 -9.76468823 14.87167254 -13 6 C-15.9254644 5.7763932 -15.9254644 5.7763932 -18 7 C-19.155 6.979375 -20.31 6.95875 -21.5 6.9375 C-25.05878466 6.59587188 -25.05878466 6.59587188 -27 9 C-27 8.34 -27 7.68 -27 7 C-28.65 7 -30.3 7 -32 7 C-31.67 5.35 -31.34 3.7 -31 2 C-28.03 2.33 -25.06 2.66 -22 3 C-22 2.34 -22 1.68 -22 1 C-21.27554687 1.01160156 -20.55109375 1.02320313 -19.8046875 1.03515625 C-13.19618263 1.09683563 -6.50530486 -0.54210874 0 0 Z " fill="#252426" transform="translate(46,46)"/>
<path d="M0 0 C-1.33333333 2.66666667 -2.66666667 5.33333333 -4 8 C-3.2575 7.896875 -2.515 7.79375 -1.75 7.6875 C1 8 1 8 3.0625 10.375 C3.701875 11.24125 4.34125 12.1075 5 13 C8.58940449 15.48820546 11.98836115 15.20391924 16.25 15.125 C18.14492188 15.09792969 18.14492188 15.09792969 20.078125 15.0703125 C21.04234375 15.04710937 22.0065625 15.02390625 23 15 C22.67 18.3 22.34 21.6 22 25 C23.65 25.33 25.3 25.66 27 26 C27 26.66 27 27.32 27 28 C26.34 28 25.68 28 25 28 C25 30.31 25 32.62 25 35 C24.34 35 23.68 35 23 35 C23 33.35 23 31.7 23 30 C21.82630859 29.92652344 21.82630859 29.92652344 20.62890625 29.8515625 C19.11103516 29.73941406 19.11103516 29.73941406 17.5625 29.625 C16.55316406 29.55539063 15.54382813 29.48578125 14.50390625 29.4140625 C13.67761719 29.27742188 12.85132812 29.14078125 12 29 C11.67 28.34 11.34 27.68 11 27 C11.66 25.35 12.32 23.7 13 22 C8.71 22 4.42 22 0 22 C0 20.68 0 19.36 0 18 C-1.65 18 -3.3 18 -5 18 C-5 14 -5 14 -4 13 C-4.99 13 -5.98 13 -7 13 C-7.66 11.02 -8.32 9.04 -9 7 C-10.32 7.33 -11.64 7.66 -13 8 C-12.875 5.6875 -12.875 5.6875 -12 3 C-7.9511138 0.26935582 -4.83180659 -0.34512904 0 0 Z " fill="#656665" transform="translate(28,1)"/>
<path d="M0 0 C0.33 1.32 0.66 2.64 1 4 C1.99 4 2.98 4 4 4 C4.12738854 9.60509554 4.12738854 9.60509554 3.375 11.9375 C2.90083836 14.545389 3.71399511 16.31448499 4.51953125 18.78515625 C5.52763589 23.43227277 5.13979519 28.27026288 5 33 C4.67 33 4.34 33 4 33 C3.67 31.02 3.34 29.04 3 27 C2.67 27.33 2.34 27.66 2 28 C0.48071962 28.07179964 -1.04167482 28.08392007 -2.5625 28.0625 C-3.38878906 28.05347656 -4.21507812 28.04445313 -5.06640625 28.03515625 C-6.02353516 28.01775391 -6.02353516 28.01775391 -7 28 C-7 30.31 -7 32.62 -7 35 C-8.32 35 -9.64 35 -11 35 C-11 28.07 -11 21.14 -11 14 C-10.67 14 -10.34 14 -10 14 C-9.67 16.97 -9.34 19.94 -9 23 C-6.55566049 18.11132099 -7.94390379 11.14846902 -9 6 C-9.66 6 -10.32 6 -11 6 C-11 5.34 -11 4.68 -11 4 C-9.5437455 3.32880451 -8.08492133 2.66318193 -6.625 2 C-5.81289063 1.62875 -5.00078125 1.2575 -4.1640625 0.875 C-2 0 -2 0 0 0 Z " fill="#46474A" transform="translate(47,49)"/>
<path d="M0 0 C1.66666667 3.33333333 3.33333333 6.66666667 5 10 C5.36867188 10.57234375 5.73734375 11.1446875 6.1171875 11.734375 C7.39725751 15.01951043 6.94776366 17.76415242 6.625 21.25 C6.51414062 22.51328125 6.40328125 23.7765625 6.2890625 25.078125 C6.19367188 26.04234375 6.09828125 27.0065625 6 28 C6.66 28 7.32 28 8 28 C8 26.35 8 24.7 8 23 C8.33 23 8.66 23 9 23 C9.33 24.98 9.66 26.96 10 29 C10.33 28.34 10.66 27.68 11 27 C12.32 27.33 13.64 27.66 15 28 C14.34 28.33 13.68 28.66 13 29 C11.02222049 35.32889445 11.68832253 42.60557236 13 49 C10.46875317 50.5029278 8.79254012 51.2006987 5.88671875 50.46484375 C3.89135862 49.7028501 1.93909378 48.89496636 0 48 C0 47.67 0 47.34 0 47 C1.65 47 3.3 47 5 47 C5.33 42.05 5.66 37.1 6 32 C4.35 31.67 2.7 31.34 1 31 C0.67 31.66 0.34 32.32 0 33 C0 30.69 0 28.38 0 26 C-0.66 26 -1.32 26 -2 26 C-2 27.65 -2 29.3 -2 31 C-2.33 31 -2.66 31 -3 31 C-3.33 28.36 -3.66 25.72 -4 23 C-2.68 23 -1.36 23 0 23 C0 22.01 0 21.02 0 20 C-0.99 20.66 -1.98 21.32 -3 22 C-1 18 -1 18 1 14 C1.66 14 2.32 14 3 14 C2.505 13.175 2.01 12.35 1.5 11.5 C-0.32352081 7.24511812 -0.23673689 4.57691329 0 0 Z " fill="#323134" transform="translate(68,26)"/>
<path d="M0 0 C-0.75 7.625 -0.75 7.625 -3 11 C-1.68 11 -0.36 11 1 11 C0.67 15.95 0.34 20.9 0 26 C1.65 25.67 3.3 25.34 5 25 C4.34 26.32 3.68 27.64 3 29 C1.68 29 0.36 29 -1 29 C-1.495 26.525 -1.495 26.525 -2 24 C-3.98 24 -5.96 24 -8 24 C-7.34 20.37 -6.68 16.74 -6 13 C-10.62 13.33 -15.24 13.66 -20 14 C-18.45425083 10.90850167 -16.88216781 8.12971675 -15 5.25 C-14.484375 4.45078125 -13.96875 3.6515625 -13.4375 2.828125 C-12.963125 2.22484375 -12.48875 1.6215625 -12 1 C-11.34 1 -10.68 1 -10 1 C-10 1.99 -10 2.98 -10 4 C-9.34 4 -8.68 4 -8 4 C-8 3.01 -8 2.02 -8 1 C-5.07175348 0.02391783 -3.04386724 -0.08226668 0 0 Z " fill="#444445" transform="translate(57,3)"/>
<path d="M0 0 C0.66 0.99 1.32 1.98 2 3 C2.66 3 3.32 3 4 3 C4 6.96 4 10.92 4 15 C3.34 13.68 2.68 12.36 2 11 C2 12.32 2 13.64 2 15 C2 19.66666667 2 24.33333333 2 29 C2.66 29 3.32 29 4 29 C4 29.66 4 30.32 4 31 C3.01 31 2.02 31 1 31 C1 31.99 1 32.98 1 34 C1.66 34.33 2.32 34.66 3 35 C2 36 2 36 -0.72265625 36.09765625 C-1.82480469 36.08605469 -2.92695312 36.07445312 -4.0625 36.0625 C-5.71958984 36.04896484 -5.71958984 36.04896484 -7.41015625 36.03515625 C-8.26480469 36.02355469 -9.11945312 36.01195312 -10 36 C-10.9807664 33.05770079 -11.16488128 31.0091216 -11.1875 27.9375 C-11.20167969 27.05964844 -11.21585938 26.18179688 -11.23046875 25.27734375 C-11 23 -11 23 -9 21 C-9 22.98 -9 24.96 -9 27 C-6.36 27 -3.72 27 -1 27 C-1 21.06 -1 15.12 -1 9 C-3.97 8.67 -6.94 8.34 -10 8 C-10.33 6.35 -10.66 4.7 -11 3 C-9.54293274 2.49632243 -8.08429904 1.99717444 -6.625 1.5 C-5.81289063 1.2215625 -5.00078125 0.943125 -4.1640625 0.65625 C-2 0 -2 0 0 0 Z " fill="#525357" transform="translate(64,49)"/>
<path d="M0 0 C2.625 0.375 2.625 0.375 5 1 C4.01 1.33 3.02 1.66 2 2 C2.66 3.32 3.32 4.64 4 6 C6.64 6 9.28 6 12 6 C12 12.6 12 19.2 12 26 C9.36 26 6.72 26 4 26 C3.67 24.68 3.34 23.36 3 22 C2.97301811 23.62490954 2.95361243 25.24994633 2.9375 26.875 C2.92589844 27.77992187 2.91429687 28.68484375 2.90234375 29.6171875 C2.83750743 32.0168585 2.83750743 32.0168585 4 34 C2.35 34 0.7 34 -1 34 C-0.67 33.34 -0.34 32.68 0 32 C0.08308638 30.62451844 0.10736016 29.24514204 0.09765625 27.8671875 C0.09443359 27.06152344 0.09121094 26.25585938 0.08789062 25.42578125 C0.07951172 24.58402344 0.07113281 23.74226563 0.0625 22.875 C0.05798828 22.02550781 0.05347656 21.17601563 0.04882812 20.30078125 C0.03702874 18.20049091 0.01909306 16.1002367 0 14 C-0.66 13.67 -1.32 13.34 -2 13 C-1.34 9.7 -0.68 6.4 0 3 C-0.66 2.67 -1.32 2.34 -2 2 C-1.34 1.34 -0.68 0.68 0 0 Z " fill="#353539" transform="translate(51,50)"/>
<path d="M0 0 C5.94 0.99 5.94 0.99 12 2 C12 2.99 12 3.98 12 5 C10.35 5 8.7 5 7 5 C7 6.32 7 7.64 7 9 C6.34 9 5.68 9 5 9 C5.45822468 12.46941546 5.89131683 15.67395049 7 19 C8.65 19 10.3 19 12 19 C12 16.36 12 13.72 12 11 C12.33 11 12.66 11 13 11 C13.33 8.03 13.66 5.06 14 2 C14.66 2 15.32 2 16 2 C16.98743109 9.00316511 17.45650882 16.02142295 16 23 C15.34 23.33 14.68 23.66 14 24 C14 23.34 14 22.68 14 22 C13.01 22.33 12.02 22.66 11 23 C10.67 22.34 10.34 21.68 10 21 C8.35 21 6.7 21 5 21 C5.33 22.32 5.66 23.64 6 25 C4.68 25.33 3.36 25.66 2 26 C2 25.34 2 24.68 2 24 C1.34 24 0.68 24 0 24 C0 16.08 0 8.16 0 0 Z " fill="#363739" transform="translate(9,54)"/>
<path d="M0 0 C0.66 0.33 1.32 0.66 2 1 C2 2.32 2 3.64 2 5 C3.4166747 6.7511573 3.4166747 6.7511573 5 8 C2.525 7.01 2.525 7.01 0 6 C0 5.01 0 4.02 0 3 C-2.64 3.33 -5.28 3.66 -8 4 C-8 4.99 -8 5.98 -8 7 C-8.66 7 -9.32 7 -10 7 C-10 6.01 -10 5.02 -10 4 C-10.66 4 -11.32 4 -12 4 C-12.309375 5.0209375 -12.309375 5.0209375 -12.625 6.0625 C-14.45408866 9.97009851 -17.10279034 12.83857939 -20 16 C-23.33727786 14.82744291 -25.77437487 13.81131596 -28 11 C-28 10.34 -28 9.68 -28 9 C-29.65 9.33 -31.3 9.66 -33 10 C-33 6 -33 6 -31.38916016 3.27832031 C-29 1 -29 1 -26.09912109 0.44824219 C-24.45290771 0.49706543 -24.45290771 0.49706543 -22.7734375 0.546875 C-21.5771875 0.5675 -20.3809375 0.588125 -19.1484375 0.609375 C-17.28058594 0.67898437 -17.28058594 0.67898437 -15.375 0.75 C-12.90373505 0.81101889 -10.43237928 0.86849613 -7.9609375 0.921875 C-6.86571777 0.95893555 -5.77049805 0.99599609 -4.64208984 1.03417969 C-2.02124564 1.19212544 -2.02124564 1.19212544 0 0 Z " fill="#545454" transform="translate(57,0)"/>
<path d="M0 0 C0.99 0 1.98 0 3 0 C3.33 1.98 3.66 3.96 4 6 C7.87797662 6.43386092 7.87797662 6.43386092 9.75 4.5 C10.1625 4.005 10.575 3.51 11 3 C11 4.65 11 6.3 11 8 C10.34 8 9.68 8 9 8 C9 9.32 9 10.64 9 12 C7.02 12 5.04 12 3 12 C2.67 14.31 2.34 16.62 2 19 C2.99 19.33 3.98 19.66 5 20 C4.33333333 22.66666667 3.66666667 25.33333333 3 28 C3.99 28 4.98 28 6 28 C6.66 31.63 7.32 35.26 8 39 C6.72125 39.061875 5.4425 39.12375 4.125 39.1875 C3.04605469 39.23970703 3.04605469 39.23970703 1.9453125 39.29296875 C1.30335937 39.19628906 0.66140625 39.09960938 0 39 C-2.20192224 35.69711664 -2.23959968 34.72537273 -2.1953125 30.89453125 C-2.18886719 29.91162109 -2.18242188 28.92871094 -2.17578125 27.91601562 C-2.15902344 26.89185547 -2.14226562 25.86769531 -2.125 24.8125 C-2.11597656 23.77673828 -2.10695312 22.74097656 -2.09765625 21.67382812 C-2.0740786 19.11565315 -2.0411703 16.55794252 -2 14 C-1.01 13.67 -0.02 13.34 1 13 C0.67 8.71 0.34 4.42 0 0 Z " fill="#414244" transform="translate(2,40)"/>
<path d="M0 0 C0.99 0 1.98 0 3 0 C3.66 1.98 4.32 3.96 5 6 C6.65 5.34 8.3 4.68 10 4 C9.67 4.99 9.34 5.98 9 7 C8.34 7 7.68 7 7 7 C7 8.32 7 9.64 7 11 C8.65 11 10.3 11 12 11 C12.33 11.99 12.66 12.98 13 14 C16.96 14.33 20.92 14.66 25 15 C24.67 17.31 24.34 19.62 24 22 C21.03 22 18.06 22 15 22 C15 21.34 15 20.68 15 20 C14.34 20 13.68 20 13 20 C12.34 20.99 11.68 21.98 11 23 C9.68 22.67 8.36 22.34 7 22 C7.54723683 18.62537285 8.0549 16.91765 10 14 C8.68 13.34 7.36 12.68 6 12 C5.67 12.66 5.34 13.32 5 14 C4.34 14 3.68 14 3 14 C3 12.02 3 10.04 3 8 C2.01 8 1.02 8 0 8 C-0.38063221 5.6739143 -0.71269945 3.33944736 -1 1 C-0.67 0.67 -0.34 0.34 0 0 Z " fill="#585858" transform="translate(16,8)"/>
<path d="M0 0 C7.625 0.875 7.625 0.875 11 2 C11.94921875 3.84765625 11.94921875 3.84765625 12.6875 6.0625 C12.93886719 6.79597656 13.19023438 7.52945313 13.44921875 8.28515625 C13.63097656 8.85105469 13.81273438 9.41695312 14 10 C15.0209375 9.5359375 15.0209375 9.5359375 16.0625 9.0625 C19.36965912 7.86629351 22.51545878 7.40994603 26 7 C26 7.66 26 8.32 26 9 C23.77714947 9.4988096 21.55372856 9.99405539 19.328125 10.48046875 C17.56596648 10.87370211 15.81188224 11.30334922 14.0625 11.75 C13.0415625 11.87375 13.0415625 11.87375 12 12 C11.34 11.34 10.68 10.68 10 10 C8.00921686 9.83202382 8.00921686 9.83202382 5.75390625 10.05859375 C4.91666016 10.11466797 4.07941406 10.17074219 3.21679688 10.22851562 C2.34087891 10.29748047 1.46496094 10.36644531 0.5625 10.4375 C-1.16498022 10.56645455 -2.89284624 10.69036621 -4.62109375 10.80859375 C-5.3886499 10.86845459 -6.15620605 10.92831543 -6.94702148 10.98999023 C-9 11 -9 11 -12 10 C-11.4375 6.625 -11.4375 6.625 -10 3 C-7.21848089 1.87763264 -5.03578851 1 -2 1 C-1.67 3.31 -1.34 5.62 -1 8 C-0.34 8 0.32 8 1 8 C0.67 5.36 0.34 2.72 0 0 Z " fill="#323134" transform="translate(36,37)"/>
<path d="M0 0 C1.65 0.33 3.3 0.66 5 1 C5 6.28 5 11.56 5 17 C3.35 17 1.7 17 0 17 C0.66 17.66 1.32 18.32 2 19 C1.625 21.125 1.625 21.125 1 23 C1.66 23.33 2.32 23.66 3 24 C2.01 24 1.02 24 0 24 C-0.33 24.99 -0.66 25.98 -1 27 C-2.32 27 -3.64 27 -5 27 C-4.67 25.68 -4.34 24.36 -4 23 C-3.01 23 -2.02 23 -1 23 C-1 22.34 -1 21.68 -1 21 C-1.66 21 -2.32 21 -3 21 C-3 16.38 -3 11.76 -3 7 C-3.66 6.67 -4.32 6.34 -5 6 C-5 5.01 -5 4.02 -5 3 C-4.360625 2.87625 -3.72125 2.7525 -3.0625 2.625 C-2.0415625 2.315625 -2.0415625 2.315625 -1 2 C-0.67 1.34 -0.34 0.68 0 0 Z " fill="#3B3C3E" transform="translate(69,57)"/>
<path d="M0 0 C0.99 0.33 1.98 0.66 3 1 C2.98839844 2.20398437 2.97679688 3.40796875 2.96484375 4.6484375 C2.95546566 6.22395679 2.94636548 7.79947775 2.9375 9.375 C2.92912109 10.1690625 2.92074219 10.963125 2.91210938 11.78125 C2.76959849 16.02392222 2.76959849 16.02392222 4 20 C3.34 20 2.68 20 2 20 C2.144375 21.16917969 2.28875 22.33835937 2.4375 23.54296875 C2.62515554 25.09112699 2.8126469 26.63930513 3 28.1875 C3.14308594 29.34088867 3.14308594 29.34088867 3.2890625 30.51757812 C3.75192894 34.36928811 4.12467468 38.11170851 4 42 C3.34 41.67 2.68 41.34 2 41 C1.375 38.9375 1.375 38.9375 1 37 C0.34 37 -0.32 37 -1 37 C-1 36.01 -1 35.02 -1 34 C-0.01 33.505 -0.01 33.505 1 33 C0.690625 32.236875 0.38125 31.47375 0.0625 30.6875 C-0.67893593 28.81210323 -1.36228217 26.91315348 -2 25 C-1.01 25 -0.02 25 1 25 C0.67 23.02 0.34 21.04 0 19 C-1.32 19 -2.64 19 -4 19 C-4 20.65 -4 22.3 -4 24 C-4.45375 23.34 -4.9075 22.68 -5.375 22 C-5.91125 21.34 -6.4475 20.68 -7 20 C-7.66 20 -8.32 20 -9 20 C-9 15.38 -9 10.76 -9 6 C-7 7 -7 7 -6.1484375 9.28515625 C-5.89320312 10.20167969 -5.63796875 11.11820313 -5.375 12.0625 C-5.11460938 12.98160156 -4.85421875 13.90070312 -4.5859375 14.84765625 C-4.39257812 15.55792969 -4.19921875 16.26820312 -4 17 C-3.01 17 -2.02 17 -1 17 C-0.67 11.39 -0.34 5.78 0 0 Z " fill="#484949" transform="translate(83,34)"/>
<path d="M0 0 C3.125 0.1875 3.125 0.1875 6.125 2.1875 C6.125 2.8475 6.125 3.5075 6.125 4.1875 C7.115 4.1875 8.105 4.1875 9.125 4.1875 C9.125 5.1775 9.125 6.1675 9.125 7.1875 C8.568125 6.89875 8.01125 6.61 7.4375 6.3125 C5.04005355 5.1461747 2.60903061 4.1535119 0.125 3.1875 C0.455 3.8475 0.785 4.5075 1.125 5.1875 C2.115 5.5175 3.105 5.8475 4.125 6.1875 C3.795 8.1675 3.465 10.1475 3.125 12.1875 C2.135 12.5175 1.145 12.8475 0.125 13.1875 C0.640625 13.6 1.15625 14.0125 1.6875 14.4375 C2.161875 15.015 2.63625 15.5925 3.125 16.1875 C2.8125 18.375 2.8125 18.375 2.125 20.1875 C0.145 19.8575 -1.835 19.5275 -3.875 19.1875 C-3.875 17.5375 -3.875 15.8875 -3.875 14.1875 C-5.195 14.1875 -6.515 14.1875 -7.875 14.1875 C-7.27638258 11.83578869 -6.60575648 9.5015622 -5.875 7.1875 C-3.875 6.1875 -3.875 6.1875 -2.875 6.1875 C-3.1534375 4.9809375 -3.1534375 4.9809375 -3.4375 3.75 C-3.581875 2.904375 -3.72625 2.05875 -3.875 1.1875 C-2.875 0.1875 -2.875 0.1875 0 0 Z " fill="#696A6A" transform="translate(61.875,-0.1875)"/>
<path d="M0 0 C0.88021369 6.71162938 1.11381955 13.23405981 1 20 C-1.31 20 -3.62 20 -6 20 C-6.82351864 13.61773055 -7.12086218 7.43255401 -7 1 C-2.25 0 -2.25 0 0 0 Z " fill="#35353A" transform="translate(34,57)"/>
<path d="M0 0 C2.3431213 0.25561323 4.67843403 0.59270772 7 1 C8.1482685 3.296537 8.11561175 4.58313167 8.09765625 7.1328125 C8.09443359 7.93847656 8.09121094 8.74414062 8.08789062 9.57421875 C8.07951172 10.41597656 8.07113281 11.25773437 8.0625 12.125 C8.05798828 12.97449219 8.05347656 13.82398437 8.04882812 14.69921875 C8.03702874 16.79950909 8.01909306 18.8997633 8 21 C5.69 21 3.38 21 1 21 C1.01160156 19.81921875 1.02320313 18.6384375 1.03515625 17.421875 C1.04453752 15.86458492 1.05363736 14.30729312 1.0625 12.75 C1.07087891 11.97269531 1.07925781 11.19539063 1.08789062 10.39453125 C1.09111328 9.64042969 1.09433594 8.88632812 1.09765625 8.109375 C1.10289307 7.41811523 1.10812988 6.72685547 1.11352539 6.01464844 C0.99437971 3.90026102 0.57618237 2.03358485 0 0 Z " fill="#333337" transform="translate(40,55)"/>
<path d="M0 0 C6.93 0.495 6.93 0.495 14 1 C13.01 1.33 12.02 1.66 11 2 C11.33 2.99 11.66 3.98 12 5 C13.32 5 14.64 5 16 5 C16 5.99 16 6.98 16 8 C18.475 8.495 18.475 8.495 21 9 C21 9.66 21 10.32 21 11 C20.34 11 19.68 11 19 11 C19 13.31 19 15.62 19 18 C18.34 18 17.68 18 17 18 C17 16.35 17 14.7 17 13 C15.82630859 12.92652344 15.82630859 12.92652344 14.62890625 12.8515625 C13.61699219 12.77679688 12.60507812 12.70203125 11.5625 12.625 C10.55316406 12.55539063 9.54382813 12.48578125 8.50390625 12.4140625 C7.67761719 12.27742188 6.85132813 12.14078125 6 12 C4.66667905 9.3333581 5.32897967 7.83319697 6 5 C5.01 4.360625 4.02 3.72125 3 3.0625 C2.01 2.381875 1.02 1.70125 0 1 C0 0.67 0 0.34 0 0 Z " fill="#5E5E5E" transform="translate(34,18)"/>
<path d="M0 0 C0.33 0.66 0.66 1.32 1 2 C2.65 2 4.3 2 6 2 C5.34 2.66 4.68 3.32 4 4 C3.53709779 6.66242821 3.53709779 6.66242821 3.375 9.625 C3.30023438 10.62789062 3.22546875 11.63078125 3.1484375 12.6640625 C3.09945313 13.43492188 3.05046875 14.20578125 3 15 C2.67 15 2.34 15 2 15 C1.67 17.31 1.34 19.62 1 22 C-1.375 22.1875 -1.375 22.1875 -4 22 C-6.4294516 18.3558226 -6.16179575 16.28758728 -6 12 C-5.34 12 -4.68 12 -4 12 C-4 10.68 -4 9.36 -4 8 C-2.35 8 -0.7 8 1 8 C0.67 5.36 0.34 2.72 0 0 Z " fill="#404144" transform="translate(20,51)"/>
<path d="M0 0 C1.32 0.33 2.64 0.66 4 1 C3.01 1.495 3.01 1.495 2 2 C0.02222049 8.32889445 0.68832253 15.60557236 2 22 C-0.53124683 23.5029278 -2.20745988 24.2006987 -5.11328125 23.46484375 C-7.10864138 22.7028501 -9.06090622 21.89496636 -11 21 C-11 20.67 -11 20.34 -11 20 C-9.35 20 -7.7 20 -6 20 C-6 14.72 -6 9.44 -6 4 C-7.32 3.34 -8.64 2.68 -10 2 C-8.02 2 -6.04 2 -4 2 C-3.67 8.27 -3.34 14.54 -3 21 C-2.34 21 -1.68 21 -1 21 C-1.66 15.06 -2.32 9.12 -3 3 C-2.34 3 -1.68 3 -1 3 C-0.67 2.01 -0.34 1.02 0 0 Z " fill="#232325" transform="translate(79,53)"/>
<path d="M0 0 C0.99 0 1.98 0 3 0 C3.33 1.98 3.66 3.96 4 6 C7.87797662 6.43386092 7.87797662 6.43386092 9.75 4.5 C10.1625 4.005 10.575 3.51 11 3 C11 4.65 11 6.3 11 8 C10.34 8 9.68 8 9 8 C9 9.32 9 10.64 9 12 C7.02 12 5.04 12 3 12 C2.67 14.31 2.34 16.62 2 19 C2.99 19.33 3.98 19.66 5 20 C5 20.99 5 21.98 5 23 C3.02 22.34 1.04 21.68 -1 21 C-0.67 19.02 -0.34 17.04 0 15 C-0.66 14.67 -1.32 14.34 -2 14 C-1.01 13.67 -0.02 13.34 1 13 C0.67 8.71 0.34 4.42 0 0 Z " fill="#595A5B" transform="translate(2,40)"/>
<path d="M0 0 C1.65 0 3.3 0 5 0 C5 4.62 5 9.24 5 14 C6.65 13.67 8.3 13.34 10 13 C9.34 14.32 8.68 15.64 8 17 C6.68 17 5.36 17 4 17 C3.67 15.35 3.34 13.7 3 12 C1.02 12 -0.96 12 -3 12 C-2.69230293 10.18667846 -2.37870936 8.37435655 -2.0625 6.5625 C-1.80146484 5.04849609 -1.80146484 5.04849609 -1.53515625 3.50390625 C-1 1 -1 1 0 0 Z " fill="#2A292B" transform="translate(52,15)"/>
<path d="M0 0 C6.27 0 12.54 0 19 0 C19 2.31 19 4.62 19 7 C18.01 6.67 17.02 6.34 16 6 C16 5.34 16 4.68 16 4 C14.68 4 13.36 4 12 4 C12 4.66 12 5.32 12 6 C9.36 6 6.72 6 4 6 C4 5.01 4 4.02 4 3 C2.68 3 1.36 3 0 3 C0 2.01 0 1.02 0 0 Z " fill="#2D2C2E" transform="translate(29,30)"/>
<path d="M0 0 C2.625 0.375 2.625 0.375 5 1 C4.01 1.33 3.02 1.66 2 2 C2.15597656 2.556875 2.31195313 3.11375 2.47265625 3.6875 C3.65110398 8.30763944 4.1081253 11.90876312 3.296875 16.6796875 C2.12440349 25.55474749 2.12440349 25.55474749 4 34 C2.35 34 0.7 34 -1 34 C-0.67 33.34 -0.34 32.68 0 32 C0.08308638 30.62451844 0.10736016 29.24514204 0.09765625 27.8671875 C0.09443359 27.06152344 0.09121094 26.25585938 0.08789062 25.42578125 C0.07951172 24.58402344 0.07113281 23.74226563 0.0625 22.875 C0.05798828 22.02550781 0.05347656 21.17601563 0.04882812 20.30078125 C0.03702874 18.20049091 0.01909306 16.1002367 0 14 C-0.66 13.67 -1.32 13.34 -2 13 C-1.34 9.7 -0.68 6.4 0 3 C-0.66 2.67 -1.32 2.34 -2 2 C-1.34 1.34 -0.68 0.68 0 0 Z " fill="#353638" transform="translate(51,50)"/>
<path d="M0 0 C5.94 0.99 5.94 0.99 12 2 C12 2.99 12 3.98 12 5 C10.35 5 8.7 5 7 5 C7 6.32 7 7.64 7 9 C6.01 9 5.02 9 4 9 C3.34 8.01 2.68 7.02 2 6 C2 10.62 2 15.24 2 20 C1.34 20 0.68 20 0 20 C0 13.4 0 6.8 0 0 Z " fill="#252628" transform="translate(9,54)"/>
<path d="M0 0 C-1.01830146 2.03660292 -2.0243596 4.0410267 -3.1875 6 C-4.17413108 8.42863035 -3.86626039 9.57447091 -3 12 C-4.32 12.33 -5.64 12.66 -7 13 C-7.66 11.02 -8.32 9.04 -9 7 C-10.32 7.33 -11.64 7.66 -13 8 C-12.875 5.6875 -12.875 5.6875 -12 3 C-7.9511138 0.26935582 -4.83180659 -0.34512904 0 0 Z " fill="#646564" transform="translate(28,1)"/>
<path d="M0 0 C0.33 2.31 0.66 4.62 1 7 C1.66 7 2.32 7 3 7 C3 7.66 3 8.32 3 9 C-1.47254497 10.49084832 -5.52745503 10.49084832 -10 9 C-9.4375 5.625 -9.4375 5.625 -8 2 C-5.21848089 0.87763264 -3.03578851 0 0 0 Z " fill="#3A373D" transform="translate(34,38)"/>
<path d="M0 0 C0.99 0 1.98 0 3 0 C3.33 0.99 3.66 1.98 4 3 C6.31 3 8.62 3 11 3 C10.67 6.63 10.34 10.26 10 14 C9.34 12.68 8.68 11.36 8 10 C5.58354218 9.83312552 5.58354218 9.83312552 3 10 C2.34 10.66 1.68 11.32 1 12 C0.22596442 7.93631321 -0.0984702 4.13574827 0 0 Z " fill="#535357" transform="translate(53,29)"/>
<path d="M0 0 C1.3921875 0.2784375 1.3921875 0.2784375 2.8125 0.5625 C6.01343771 1.24123881 6.01343771 1.24123881 9 0 C9.66 0.33 10.32 0.66 11 1 C11 1.66 11 2.32 11 3 C12.98 3 14.96 3 17 3 C17 3.33 17 3.66 17 4 C16.28972656 4.13277344 15.57945313 4.26554687 14.84765625 4.40234375 C13.92855469 4.57894531 13.00945312 4.75554687 12.0625 4.9375 C11.14597656 5.11152344 10.22945312 5.28554687 9.28515625 5.46484375 C7.04710156 5.77714988 7.04710156 5.77714988 6 7 C3.32941149 7.14115161 0.67567762 7.04247107 -2 7 C-1.34 4.69 -0.68 2.38 0 0 Z " fill="#5D5D61" transform="translate(71,75)"/>
<path d="M0 0 C2.31 0.33 4.62 0.66 7 1 C5.63356852 4.98542514 3.89890986 7.92539863 1 11 C0.01 11 -0.98 11 -2 11 C-2 9.02 -2 7.04 -2 5 C-2.99 5 -3.98 5 -5 5 C-5 4.34 -5 3.68 -5 3 C-3.35 3 -1.7 3 0 3 C0 2.01 0 1.02 0 0 Z " fill="#4F5050" transform="translate(38,3)"/>
<path d="M0 0 C1.1577506 3.47325181 1.06866652 6.36067448 1 10 C0.67 9.01 0.34 8.02 0 7 C-3.3 7.33 -6.6 7.66 -10 8 C-10.33 6.35 -10.66 4.7 -11 3 C-9.54293274 2.49632243 -8.08429904 1.99717444 -6.625 1.5 C-5.81289063 1.2215625 -5.00078125 0.943125 -4.1640625 0.65625 C-2 0 -2 0 0 0 Z " fill="#6A6B6E" transform="translate(64,49)"/>
<path d="M0 0 C0.33 0 0.66 0 1 0 C1.06058594 0.84304687 1.12117188 1.68609375 1.18359375 2.5546875 C1.26738281 3.65039062 1.35117188 4.74609375 1.4375 5.875 C1.51871094 6.96554688 1.59992188 8.05609375 1.68359375 9.1796875 C1.83001703 11.94728971 1.83001703 11.94728971 3 14 C2.34 14 1.68 14 1 14 C1.144375 15.16917969 1.28875 16.33835937 1.4375 17.54296875 C1.62515554 19.09112699 1.8126469 20.63930513 2 22.1875 C2.09539062 22.95642578 2.19078125 23.72535156 2.2890625 24.51757812 C2.75192894 28.36928811 3.12467468 32.11170851 3 36 C2.34 35.67 1.68 35.34 1 35 C0.375 32.9375 0.375 32.9375 0 31 C-0.66 31 -1.32 31 -2 31 C-2 30.01 -2 29.02 -2 28 C-1.34 27.67 -0.68 27.34 0 27 C-0.309375 26.236875 -0.61875 25.47375 -0.9375 24.6875 C-1.67893593 22.81210323 -2.36228217 20.91315348 -3 19 C-2.01 19 -1.02 19 0 19 C-0.26103516 17.98873047 -0.26103516 17.98873047 -0.52734375 16.95703125 C-1.09350437 13.41501812 -0.86291122 10.25905566 -0.5625 6.6875 C-0.46066406 5.43324219 -0.35882813 4.17898437 -0.25390625 2.88671875 C-0.17011719 1.93410156 -0.08632812 0.98148438 0 0 Z " fill="#4F4F52" transform="translate(84,40)"/>
<path d="M0 0 C0.33 1.32 0.66 2.64 1 4 C3.97 4.495 3.97 4.495 7 5 C7 5.99 7 6.98 7 8 C0.565 8.495 0.565 8.495 -6 9 C-4.25618453 5.51236907 -2.47193291 2.96631949 0 0 Z " fill="#292929" transform="translate(43,8)"/>
<path d="M0 0 C0.33 0 0.66 0 1 0 C1.027193 1.58323688 1.04648306 3.16661062 1.0625 4.75 C1.07410156 5.63171875 1.08570312 6.5134375 1.09765625 7.421875 C1.00826198 9.7818838 0.66912821 11.74498524 0 14 C0.99 14.33 1.98 14.66 3 15 C2.67 15.66 2.34 16.32 2 17 C2.99 16.34 3.98 15.68 5 15 C4.1875 17.4375 4.1875 17.4375 3 20 C2.01 20.33 1.02 20.66 0 21 C-0.99 20.34 -1.98 19.68 -3 19 C-2.34 19 -1.68 19 -1 19 C-1 18.34 -1 17.68 -1 17 C-1.66 17 -2.32 17 -3 17 C-2.69188262 14.54104382 -2.37871012 12.08291693 -2.0625 9.625 C-1.97548828 8.92632812 -1.88847656 8.22765625 -1.79882812 7.5078125 C-1.11328125 2.2265625 -1.11328125 2.2265625 0 0 Z " fill="#444348" transform="translate(65,29)"/>
<path d="M0 0 C0 0.66 0 1.32 0 2 C-0.66 2 -1.32 2 -2 2 C-2 2.66 -2 3.32 -2 4 C-5.28863753 5.09621251 -7.65477133 5.00119454 -11.0625 4.83984375 C-13.32928336 4.86977156 -13.32928336 4.86977156 -16 7 C-16.33 6.01 -16.66 5.02 -17 4 C-11.08466019 0.83598103 -6.67953919 -0.15533812 0 0 Z " fill="#28282A" transform="translate(64,46)"/>
<path d="M0 0 C2.6635969 0.35994553 4.58183452 0.71161002 6.8125 2.25 C8.39364795 4.58011277 8.22337696 6.24501755 8 9 C6.68 9 5.36 9 4 9 C3.67 9.99 3.34 10.98 3 12 C0.525 11.01 0.525 11.01 -2 10 C-1.67 9.34 -1.34 8.68 -1 8 C0.98 8.495 0.98 8.495 3 9 C3.33 7.02 3.66 5.04 4 3 C2.68 2.67 1.36 2.34 0 2 C0 1.34 0 0.68 0 0 Z " fill="#383738" transform="translate(62,3)"/>
<path d="M0 0 C1.32 0.33 2.64 0.66 4 1 C4.17835515 5.54805635 3.99785435 8.8794254 2 13 C1.34 13 0.68 13 0 13 C-0.33 11.35 -0.66 9.7 -1 8 C-1.33 8.99 -1.66 9.98 -2 11 C-1.85892253 9.54119891 -1.71197585 8.08296449 -1.5625 6.625 C-1.48128906 5.81289063 -1.40007812 5.00078125 -1.31640625 4.1640625 C-1 2 -1 2 0 0 Z " fill="#434446" transform="translate(69,57)"/>
<path d="M0 0 C0.33 0 0.66 0 1 0 C1.33 1.65 1.66 3.3 2 5 C5.87797662 5.43386092 5.87797662 5.43386092 7.75 3.5 C8.1625 3.005 8.575 2.51 9 2 C9 3.65 9 5.3 9 7 C8.34 7 7.68 7 7 7 C7 8.32 7 9.64 7 11 C5.02 11 3.04 11 1 11 C-0.20272819 8.59454362 -0.10071472 7.05003047 -0.0625 4.375 C-0.05347656 3.55773438 -0.04445312 2.74046875 -0.03515625 1.8984375 C-0.02355469 1.27195313 -0.01195312 0.64546875 0 0 Z " fill="#454647" transform="translate(4,41)"/>
<path d="M0 0 C0 1.32 0 2.64 0 4 C-2.31 4.66 -4.62 5.32 -7 6 C-7 7.65 -7 9.3 -7 11 C-7.66 10.67 -8.32 10.34 -9 10 C-9 8.68 -9 7.36 -9 6 C-9.66 6 -10.32 6 -11 6 C-11 5.34 -11 4.68 -11 4 C-9.5437455 3.32880451 -8.08492133 2.66318193 -6.625 2 C-5.81289063 1.62875 -5.00078125 1.2575 -4.1640625 0.875 C-2 0 -2 0 0 0 Z " fill="#66676B" transform="translate(47,49)"/>
<path d="M0 0 C0.66 0.33 1.32 0.66 2 1 C2.90672553 3.7201766 3.17003843 5.56105342 3.28125 8.37890625 C3.31863281 9.21744141 3.35601562 10.05597656 3.39453125 10.91992188 C3.46499941 12.68554067 3.53531122 14.45116571 3.60546875 16.21679688 C3.64285156 17.05404297 3.68023437 17.89128906 3.71875 18.75390625 C3.74904297 19.52033447 3.77933594 20.2867627 3.81054688 21.07641602 C3.892459 23.08274513 3.892459 23.08274513 5 25 C3.35 25 1.7 25 0 25 C0.33 24.34 0.66 23.68 1 23 C1.08308638 21.62451844 1.10736016 20.24514204 1.09765625 18.8671875 C1.09443359 18.06152344 1.09121094 17.25585938 1.08789062 16.42578125 C1.07951172 15.58402344 1.07113281 14.74226563 1.0625 13.875 C1.05798828 13.02550781 1.05347656 12.17601563 1.04882812 11.30078125 C1.03702874 9.20049091 1.01909306 7.1002367 1 5 C0.34 4.67 -0.32 4.34 -1 4 C-0.67 2.68 -0.34 1.36 0 0 Z " fill="#2A2A2D" transform="translate(50,59)"/>
<path d="M0 0 C2 2 2 2 2 5 C-2.455 6.485 -2.455 6.485 -7 8 C-7 7.34 -7 6.68 -7 6 C-7.66 5.67 -8.32 5.34 -9 5 C-6.03 3.35 -3.06 1.7 0 0 Z " fill="#787A7E" transform="translate(32,50)"/>
<path d="M0 0 C1.04449911 3.13349732 0.93423645 3.98968256 0 7 C0.66 7.33 1.32 7.66 2 8 C1.01 8.33 0.02 8.66 -1 9 C-4.1875 6.6875 -4.1875 6.6875 -7 4 C-7 3.34 -7 2.68 -7 2 C-4.69 1.34 -2.38 0.68 0 0 Z " fill="#3F3F3F" transform="translate(36,7)"/>
<path d="M0 0 C5.625 -0.25 5.625 -0.25 9 2 C9 2.66 9 3.32 9 4 C9.99 4 10.98 4 12 4 C12 4.99 12 5.98 12 7 C11.443125 6.690625 10.88625 6.38125 10.3125 6.0625 C6.33309368 4.23412412 3.20211839 3.59929387 -1 5 C-0.67 3.35 -0.34 1.7 0 0 Z " fill="#71716F" transform="translate(59,0)"/>
<path d="M0 0 C6.27 0 12.54 0 19 0 C18.67 0.66 18.34 1.32 18 2 C16.96875 1.95875 15.9375 1.9175 14.875 1.875 C11.06194703 1.80973275 11.06194703 1.80973275 7.875 3.0625 C4.7325249 4.08722014 3.12600449 3.91941309 0 3 C0 2.01 0 1.02 0 0 Z " fill="#39393A" transform="translate(29,30)"/>
<path d="M0 0 C0.66 0.66 1.32 1.32 2 2 C1.625 4.125 1.625 4.125 1 6 C1.66 6 2.32 6 3 6 C3 6.99 3 7.98 3 9 C1.35 9.33 -0.3 9.66 -2 10 C-3.4783226 7.04335481 -3.06032783 4.25770263 -3 1 C-2.01 0.67 -1.02 0.34 0 0 Z " fill="#444548" transform="translate(4,62)"/>
<path d="M0 0 C0.99 0 1.98 0 3 0 C3.66 1.98 4.32 3.96 5 6 C6.65 5.34 8.3 4.68 10 4 C9.67 4.99 9.34 5.98 9 7 C6.4375 8.1875 6.4375 8.1875 4 9 C4 8.01 4 7.02 4 6 C2.68 6 1.36 6 0 6 C-0.38218767 4.34385343 -0.71395102 2.67542976 -1 1 C-0.67 0.67 -0.34 0.34 0 0 Z " fill="#3D3D3D" transform="translate(16,8)"/>
<path d="M0 0 C0.99 0.33 1.98 0.66 3 1 C3.33 4.96 3.66 8.92 4 13 C3.34 13 2.68 13 2 13 C0.21590198 9.93753253 -0.22880021 7.77920727 -0.125 4.25 C-0.10695313 3.45078125 -0.08890625 2.6515625 -0.0703125 1.828125 C-0.04710938 1.22484375 -0.02390625 0.6215625 0 0 Z " fill="#39393B" transform="translate(85,54)"/>
<path d="M0 0 C-0.33 3.63 -0.66 7.26 -1 11 C-1.66 9.68 -2.32 8.36 -3 7 C-5.41645782 6.83312552 -5.41645782 6.83312552 -8 7 C-8.66 7.66 -9.32 8.32 -10 9 C-10.33 7.68 -10.66 6.36 -11 5 C-7.535 4.505 -7.535 4.505 -4 4 C-4 3.01 -4 2.02 -4 1 C-1 0 -1 0 0 0 Z " fill="#4B4A4E" transform="translate(64,32)"/>
<path d="M0 0 C2.5 1.125 2.5 1.125 5 3 C5.3125 6.1875 5.3125 6.1875 5 9 C3.35 9 1.7 9 0 9 C-1.125 2.25 -1.125 2.25 0 0 Z " fill="#6B6C6E" transform="translate(28,14)"/>
<path d="M0 0 C0.66 1.32 1.32 2.64 2 4 C-1.3 4.33 -4.6 4.66 -8 5 C-8 3.68 -8 2.36 -8 1 C-5.07175348 0.02391783 -3.04386724 -0.08226668 0 0 Z " fill="#1D1D1E" transform="translate(46,46)"/>
<path d="M0 0 C6.75 -0.125 6.75 -0.125 9 1 C8.67 2.32 8.34 3.64 8 5 C6.68 5 5.36 5 4 5 C4 4.34 4 3.68 4 3 C3.34 3 2.68 3 2 3 C2 4.65 2 6.3 2 8 C1.67 8 1.34 8 1 8 C0.67 5.36 0.34 2.72 0 0 Z " fill="#2C2A2D" transform="translate(64,49)"/>
<path d="M0 0 C0.99 0 1.98 0 3 0 C3 0.66 3 1.32 3 2 C3.99 2 4.98 2 6 2 C5.67 2.99 5.34 3.98 5 5 C4.01 5.33 3.02 5.66 2 6 C2 5.34 2 4.68 2 4 C1.34 4 0.68 4 0 4 C-0.99 5.485 -0.99 5.485 -2 7 C-2.99 6.34 -3.98 5.68 -5 5 C-4.34 5 -3.68 5 -3 5 C-2.67 3.68 -2.34 2.36 -2 1 C-1.34 1.33 -0.68 1.66 0 2 C0 1.34 0 0.68 0 0 Z " fill="#4A4A4A" transform="translate(29,24)"/>
<path d="M0 0 C1.1446875 0.3403125 1.1446875 0.3403125 2.3125 0.6875 C1.0625 3.1875 1.0625 3.1875 -0.6875 5.6875 C-2.0075 5.6875 -3.3275 5.6875 -4.6875 5.6875 C-5.6775 6.0175 -6.6675 6.3475 -7.6875 6.6875 C-4.45731707 -0.51829268 -4.45731707 -0.51829268 0 0 Z " fill="#2A2929" transform="translate(30.6875,2.3125)"/>
<path d="M0 0 C0.66 0 1.32 0 2 0 C3.35439668 2.70879335 3.06501451 5.00933268 3 8 C1.68 8.33 0.36 8.66 -1 9 C-1 8.01 -1 7.02 -1 6 C-1.99 6.66 -2.98 7.32 -4 8 C-2.66666667 5.33333333 -1.33333333 2.66666667 0 0 Z " fill="#39393D" transform="translate(69,40)"/>
<path d="M0 0 C2.33333333 4.66666667 4.66666667 9.33333333 7 14 C6.01 14.495 6.01 14.495 5 15 C1.84416467 13.42208234 1.28897103 11.22242758 0 8 C-0.23974103 5.27478055 -0.14196504 2.74465742 0 0 Z " fill="#3B3B3B" transform="translate(68,26)"/>
<path d="M0 0 C1.32 0 2.64 0 4 0 C4 0.99 4 1.98 4 3 C4.99 2.67 5.98 2.34 7 2 C7 2.99 7 3.98 7 5 C8.32 5.33 9.64 5.66 11 6 C9.0625 6.5625 9.0625 6.5625 7 7 C6.67 6.67 6.34 6.34 6 6 C5.67 6.66 5.34 7.32 5 8 C4.34 8 3.68 8 3 8 C3 6.02 3 4.04 3 2 C2.01 2 1.02 2 0 2 C0 1.34 0 0.68 0 0 Z " fill="#555656" transform="translate(16,14)"/>
<path d="M0 0 C1.65 0 3.3 0 5 0 C5 3 5 3 3.3125 5.25 C1 7 1 7 -1.75 6.75 C-2.4925 6.5025 -3.235 6.255 -4 6 C-4 5.01 -4 4.02 -4 3 C-3.67 3.66 -3.34 4.32 -3 5 C-2.01 4.34 -1.02 3.68 0 3 C0 2.01 0 1.02 0 0 Z " fill="#818184" transform="translate(14,75)"/>
<path d="M0 0 C0.99 0.33 1.98 0.66 3 1 C2.84660156 1.67417969 2.69320312 2.34835938 2.53515625 3.04296875 C1.91516143 6.46877952 1.6647426 9.83893447 1.4375 13.3125 C1.35371094 14.56675781 1.26992187 15.82101563 1.18359375 17.11328125 C1.12300781 18.06589844 1.06242187 19.01851562 1 20 C0.67 20 0.34 20 0 20 C-1.01593448 13.11422188 -0.83854735 6.90188971 0 0 Z " fill="#606162" transform="translate(83,34)"/>
<path d="M0 0 C0.99 0.33 1.98 0.66 3 1 C3 2.32 3 3.64 3 5 C2.01 5 1.02 5 0 5 C0.66 6.32 1.32 7.64 2 9 C1.01 9 0.02 9 -1 9 C-1.33 9.66 -1.66 10.32 -2 11 C-1.85957123 9.35369672 -1.71250671 7.70795821 -1.5625 6.0625 C-1.48128906 5.14597656 -1.40007812 4.22945312 -1.31640625 3.28515625 C-1 1 -1 1 0 0 Z " fill="#454647" transform="translate(81,54)"/>
<path d="M0 0 C-0.33 1.32 -0.66 2.64 -1 4 C-3.64 4.66 -6.28 5.32 -9 6 C-9 5.34 -9 4.68 -9 4 C-9.66 3.67 -10.32 3.34 -11 3 C-9.54293274 2.49632243 -8.08429904 1.99717444 -6.625 1.5 C-5.81289063 1.2215625 -5.00078125 0.943125 -4.1640625 0.65625 C-2 0 -2 0 0 0 Z " fill="#8E8F90" transform="translate(64,49)"/>
<path d="M0 0 C0.66 0 1.32 0 2 0 C2.22197585 2.10277123 2.42713637 4.20732302 2.625 6.3125 C2.74101562 7.48425781 2.85703125 8.65601562 2.9765625 9.86328125 C3 13 3 13 1 16 C0 15 0 15 -0.09765625 11.62109375 C-0.09098369 10.22652923 -0.07902532 8.83198257 -0.0625 7.4375 C-0.05798828 6.72658203 -0.05347656 6.01566406 -0.04882812 5.28320312 C-0.03700864 3.52209987 -0.01907263 1.76103964 0 0 Z " fill="#4B4C50" transform="translate(25,58)"/>
<path d="M0 0 C0.33 1.32 0.66 2.64 1 4 C3.97 4.495 3.97 4.495 7 5 C7 5.99 7 6.98 7 8 C1.25 7.125 1.25 7.125 -1 6 C-0.67 4.02 -0.34 2.04 0 0 Z " fill="#1F1F1F" transform="translate(43,8)"/>
<path d="M0 0 C1.65 0 3.3 0 5 0 C4.67 1.65 4.34 3.3 4 5 C2.35 5.33 0.7 5.66 -1 6 C-0.67 4.02 -0.34 2.04 0 0 Z " fill="#5C5D60" transform="translate(66,37)"/>
<path d="M0 0 C0.66 0 1.32 0 2 0 C1.67 4.29 1.34 8.58 1 13 C0.34 13 -0.32 13 -1 13 C-1.66 11.02 -2.32 9.04 -3 7 C-2.34 6.67 -1.68 6.34 -1 6 C-0.34227572 2.97065509 -0.34227572 2.97065509 0 0 Z " fill="#57575A" transform="translate(23,34)"/>
<path d="M0 0 C0.66 0 1.32 0 2 0 C2 1.65 2 3.3 2 5 C2.99 4.67 3.98 4.34 5 4 C4.34 6.31 3.68 8.62 3 11 C1 10 1 10 0 7 C-0.03954234 4.66700175 -0.04401732 2.33291811 0 0 Z " fill="#3B3A3D" transform="translate(49,31)"/>
<path d="M0 0 C0.99 0.33 1.98 0.66 3 1 C3.6875 3.0625 3.6875 3.0625 4 5 C1.35261084 6.4606285 0.10551666 7 -3 7 C-2.38722388 4.03824877 -1.74627478 2.61941217 0 0 Z " fill="#404041" transform="translate(16,37)"/>
<path d="M0 0 C0.99 0.33 1.98 0.66 3 1 C3 1.66 3 2.32 3 3 C2.34 3 1.68 3 1 3 C1 3.99 1 4.98 1 6 C2.32 6.33 3.64 6.66 5 7 C3.68 7 2.36 7 1 7 C0.67 7.99 0.34 8.98 0 10 C-2 7 -2 7 -1.6875 5 C-1.460625 4.34 -1.23375 3.68 -1 3 C-0.67 2.01 -0.34 1.02 0 0 Z " fill="#575758" transform="translate(28,27)"/>
<path d="M0 0 C0.66 0.33 1.32 0.66 2 1 C2 2.65 2 4.3 2 6 C0.68 6 -0.64 6 -2 6 C-2.33 6.99 -2.66 7.98 -3 9 C-5.475 8.01 -5.475 8.01 -8 7 C-7.67 6.34 -7.34 5.68 -7 5 C-5.02 5.495 -5.02 5.495 -3 6 C-2.67 5.01 -2.34 4.02 -2 3 C-2 3.66 -2 4.32 -2 5 C-1.01 5 -0.02 5 1 5 C0.67 3.35 0.34 1.7 0 0 Z " fill="#434343" transform="translate(68,6)"/>
<path d="M0 0 C1.5 1.375 1.5 1.375 3 3 C3 3.66 3 4.32 3 5 C2.01 5 1.02 5 0 5 C-0.33 6.98 -0.66 8.96 -1 11 C-1.33 11 -1.66 11 -2 11 C-2.05399736 9.54207116 -2.09279177 8.08357288 -2.125 6.625 C-2.15980469 5.40683594 -2.15980469 5.40683594 -2.1953125 4.1640625 C-2 2 -2 2 0 0 Z " fill="#4E4F51" transform="translate(66,20)"/>
<path d="M0 0 C1.9375 0.3125 1.9375 0.3125 4 1 C5.09658936 4.28976808 4.79953138 5.71303767 4 9 C3.525625 8.505 3.05125 8.01 2.5625 7.5 C1.24076302 5.88457803 1.24076302 5.88457803 0 6 C0 4.02 0 2.04 0 0 Z " fill="#28282A" transform="translate(10,54)"/>
<path d="M0 0 C0.33 0.66 0.66 1.32 1 2 C2.65 2 4.3 2 6 2 C5.34 2.66 4.68 3.32 4 4 C3.53709779 6.66242821 3.53709779 6.66242821 3.375 9.625 C3.30023437 10.62789062 3.22546875 11.63078125 3.1484375 12.6640625 C3.09945313 13.43492188 3.05046875 14.20578125 3 15 C2.67 15 2.34 15 2 15 C1.93941406 14.33613281 1.87882812 13.67226562 1.81640625 12.98828125 C1.20136493 6.45091919 1.20136493 6.45091919 0 0 Z " fill="#48484A" transform="translate(20,51)"/>
<path d="M0 0 C0.94875 0.04125 1.8975 0.0825 2.875 0.125 C1.50516497 3.28615776 0.8859362 4.1177092 -2.125 6.125 C-2.125 5.135 -2.125 4.145 -2.125 3.125 C-3.115 2.795 -4.105 2.465 -5.125 2.125 C-3.125 0.125 -3.125 0.125 0 0 Z " fill="#7F7F7E" transform="translate(25.125,0.875)"/>
<path d="M0 0 C0.99 0 1.98 0 3 0 C3 0.99 3 1.98 3 3 C2.34 3 1.68 3 1 3 C1 4.32 1 5.64 1 7 C1.66 7.33 2.32 7.66 3 8 C1.02 8 -0.96 8 -3 8 C-2.34 7.67 -1.68 7.34 -1 7 C-0.59270772 4.67843403 -0.25561323 2.3431213 0 0 Z " fill="#2F3031" transform="translate(5,52)"/>
<path d="M0 0 C0.66 0.33 1.32 0.66 2 1 C1.19185349 2.33597652 0.37836819 3.668725 -0.4375 5 C-0.88996094 5.7425 -1.34242187 6.485 -1.80859375 7.25 C-2.20175781 7.8275 -2.59492188 8.405 -3 9 C-3.33 9 -3.66 9 -4 9 C-4.125 3.25 -4.125 3.25 -3 1 C-2.01 0.67 -1.02 0.34 0 0 Z " fill="#6A6B6D" transform="translate(25,21)"/>
<path d="M0 0 C1.32 0 2.64 0 4 0 C4 0.66 4 1.32 4 2 C3.34 2 2.68 2 2 2 C2 4.31 2 6.62 2 9 C1.34 9 0.68 9 0 9 C0 6.03 0 3.06 0 0 Z " fill="#C4C4C2" transform="translate(51,27)"/>
<path d="M0 0 C0.33 0.99 0.66 1.98 1 3 C2.32 2.67 3.64 2.34 5 2 C3.6875 4.5 3.6875 4.5 2 7 C1.01 7 0.02 7 -1 7 C-0.67 4.69 -0.34 2.38 0 0 Z " fill="#494A4A" transform="translate(37,7)"/>
<path d="M0 0 C1.2065625 0.0309375 1.2065625 0.0309375 2.4375 0.0625 C1.8515625 6.21484375 1.8515625 6.21484375 1.4375 8.0625 C0.4475 8.5575 0.4475 8.5575 -0.5625 9.0625 C-0.2325 6.7525 0.0975 4.4425 0.4375 2.0625 C-0.8825 1.7325 -2.2025 1.4025 -3.5625 1.0625 C-2.5625 0.0625 -2.5625 0.0625 0 0 Z " fill="#2F2F2F" transform="translate(54.5625,2.9375)"/>
<path d="M0 0 C0.33 0 0.66 0 1 0 C1 2.31 1 4.62 1 7 C2.65 6.67 4.3 6.34 6 6 C5.34 7.32 4.68 8.64 4 10 C2.68 10 1.36 10 0 10 C0 6.7 0 3.4 0 0 Z " fill="#3C3C3C" transform="translate(56,22)"/>
<path d="M0 0 C2 3.875 2 3.875 2 5 C-0.64 5 -3.28 5 -6 5 C-4.6875 3.5 -4.6875 3.5 -3 2 C-2.01 2 -1.02 2 0 2 C0 1.34 0 0.68 0 0 Z " fill="#505257" transform="translate(47,51)"/>
<path d="M0 0 C0.5625 1.9375 0.5625 1.9375 1 4 C0 5 0 5 -3.0625 5.0625 C-4.5165625 5.0315625 -4.5165625 5.0315625 -6 5 C-3.375 1.125 -3.375 1.125 0 0 Z " fill="#5C5D5F" transform="translate(63,28)"/>
<path d="M0 0 C0.33 1.32 0.66 2.64 1 4 C0.01 4.495 0.01 4.495 -1 5 C-1 6.32 -1 7.64 -1 9 C-1.66 9 -2.32 9 -3 9 C-3.75 6.75 -3.75 6.75 -4 4 C-2.0625 1.6875 -2.0625 1.6875 0 0 Z " fill="#535453" transform="translate(12,43)"/>
<path d="M0 0 C0.99 0 1.98 0 3 0 C3.33 3.3 3.66 6.6 4 10 C3.34 9.67 2.68 9.34 2 9 C1.3671875 6.93359375 1.3671875 6.93359375 0.875 4.4375 C0.70742188 3.61121094 0.53984375 2.78492188 0.3671875 1.93359375 C0.24601562 1.29550781 0.12484375 0.65742188 0 0 Z " fill="#6A6B6A" transform="translate(16,16)"/>
<path d="M0 0 C1.32 0.66 2.64 1.32 4 2 C4 2.66 4 3.32 4 4 C4.99 4 5.98 4 7 4 C7 4.99 7 5.98 7 7 C3.63408134 5.55746343 1.48952921 3.66735273 -1 1 C-0.67 0.67 -0.34 0.34 0 0 Z " fill="#807F7E" transform="translate(64,0)"/>
<path d="M0 0 C1.32 0 2.64 0 4 0 C4.33 1.32 4.66 2.64 5 4 C3.68 4.33 2.36 4.66 1 5 C0.67 3.35 0.34 1.7 0 0 Z " fill="#434446" transform="translate(10,75)"/>
<path d="M0 0 C0.99 0 1.98 0 3 0 C2.67 1.98 2.34 3.96 2 6 C0.35 6 -1.3 6 -3 6 C-2.01 5.67 -1.02 5.34 0 5 C0 3.35 0 1.7 0 0 Z " fill="#454447" transform="translate(87,71)"/>
<path d="M0 0 C0.99 0.495 0.99 0.495 2 1 C2.73075648 3.3140622 3.40138258 5.64828869 4 8 C2.68 8 1.36 8 0 8 C0 5.36 0 2.72 0 0 Z " fill="#646464" transform="translate(74,40)"/>
<path d="M0 0 C2.475 0.99 2.475 0.99 5 2 C4.67 2.99 4.34 3.98 4 5 C2.68 5 1.36 5 0 5 C0 3.35 0 1.7 0 0 Z " fill="#525252" transform="translate(58,24)"/>
<path d="M0 0 C0.99 0 1.98 0 3 0 C2.67 1.32 2.34 2.64 2 4 C0.35 4.33 -1.3 4.66 -3 5 C-1.125 1.125 -1.125 1.125 0 0 Z " fill="#555657" transform="translate(41,5)"/>
<path d="M0 0 C1.98 0 3.96 0 6 0 C6 0.99 6 1.98 6 3 C4.35 3.33 2.7 3.66 1 4 C0.67 2.68 0.34 1.36 0 0 Z " fill="#4C4C4F" transform="translate(1,68)"/>
<path d="M0 0 C2.64 0 5.28 0 8 0 C7.67 0.66 7.34 1.32 7 2 C4.67843403 2.40729228 2.3431213 2.74438677 0 3 C0 2.01 0 1.02 0 0 Z " fill="#111011" transform="translate(38,48)"/>
<path d="M0 0 C0.99 0 1.98 0 3 0 C3 2.31 3 4.62 3 7 C2.67 6.34 2.34 5.68 2 5 C1.34 5 0.68 5 0 5 C0 3.35 0 1.7 0 0 Z " fill="#4E4D4F" transform="translate(53,29)"/>
<path d="M0 0 C3.465 1.98 3.465 1.98 7 4 C4.39417629 4.93065133 3.35801776 5.14917407 0.75 4.0625 C0.1725 3.711875 -0.405 3.36125 -1 3 C-0.67 2.01 -0.34 1.02 0 0 Z " fill="#5A5A59" transform="translate(30,12)"/>
</svg>
