<?xml version="1.0" encoding="UTF-8"?>
<svg version="1.1" xmlns="http://www.w3.org/2000/svg" width="258" height="202">
<path d="M0 0 C85.14 0 170.28 0 258 0 C258 66.66 258 133.32 258 202 C172.86 202 87.72 202 0 202 C0 135.34 0 68.68 0 0 Z " fill="#E8E8E8" transform="translate(0,0)"/>
<path d="M0 0 C9.14304114 2.55948025 17.8453305 6.00881601 26.63085938 9.59179688 C34.58698664 12.90762698 34.58698664 12.90762698 43 13 C45.42422186 10.11490087 45.42422186 10.11490087 47 7 C47.33 7 47.66 7 48 7 C48 23.5 48 40 48 57 C40.1245389 57 40.1245389 57 36.54931641 55.63891602 C35.75224274 55.34183243 34.95516907 55.04474884 34.13394165 54.73866272 C33.29825653 54.41369308 32.46257141 54.08872345 31.6015625 53.75390625 C30.72599701 53.42333725 29.85043152 53.09276825 28.94833374 52.75218201 C26.16967048 51.69968625 23.39753282 50.63102519 20.625 49.5625 C18.73865919 48.84730967 16.85194386 48.13310632 14.96484375 47.41992188 C13.17674629 46.74046965 11.38897383 46.06016139 9.6015625 45.37890625 C8.75373199 45.05596085 7.90590149 44.73301544 7.03237915 44.40028381 C1.11857652 42.11857652 1.11857652 42.11857652 0 41 C-0.08871273 37.97022196 -0.1151935 34.96332978 -0.09765625 31.93359375 C-0.0962413 31.02497086 -0.09482635 30.11634796 -0.09336853 29.18019104 C-0.08775193 26.26592779 -0.07519665 23.35174019 -0.0625 20.4375 C-0.05748714 18.46679798 -0.05292386 16.49609476 -0.04882812 14.52539062 C-0.03777711 9.68356441 -0.02050138 4.84179505 0 0 Z " fill="#2F2F2F" transform="translate(20,143)"/>
<path d="M0 0 C10.67336654 3.67657103 21.26865375 7.36690841 31.640625 11.8359375 C35.50593747 13.17531322 38.93570944 13.61841813 43 14 C43.268125 13.21625 43.53625 12.4325 43.8125 11.625 C45 9 45 9 48 7 C48 23.5 48 40 48 57 C40.12624822 57 40.12624822 57 35.62890625 55.2421875 C34.64929932 54.86642578 33.66969238 54.49066406 32.66040039 54.10351562 C31.1269397 53.49540039 31.1269397 53.49540039 29.5625 52.875 C27.42713222 52.04935272 25.29171538 51.22383232 23.15625 50.3984375 C22.11339844 49.99077148 21.07054687 49.58310547 19.99609375 49.16308594 C15.20600841 47.30357106 10.38284484 45.53438991 5.55883789 43.76513672 C1.11045694 42.11045694 1.11045694 42.11045694 0 41 C-0.08871273 37.97022196 -0.1151935 34.96332978 -0.09765625 31.93359375 C-0.0962413 31.02497086 -0.09482635 30.11634796 -0.09336853 29.18019104 C-0.08775193 26.26592779 -0.07519665 23.35174019 -0.0625 20.4375 C-0.05748714 18.46679798 -0.05292386 16.49609476 -0.04882812 14.52539062 C-0.03777711 9.68356441 -0.02050138 4.84179505 0 0 Z " fill="#2F2F2F" transform="translate(80,42)"/>
<path d="M0 0 C0 13.2 0 26.4 0 40 C-6.2803125 42.5678125 -6.2803125 42.5678125 -12.6875 45.1875 C-13.97873779 45.71625732 -15.26997559 46.24501465 -16.6003418 46.78979492 C-18.87368364 47.71755253 -21.14956766 48.63909277 -23.42724609 49.55615234 C-25.79642376 50.51360189 -28.15892347 51.4877559 -30.51416016 52.47900391 C-31.62968262 52.93581543 -32.74520508 53.39262695 -33.89453125 53.86328125 C-34.8791333 54.27489502 -35.86373535 54.68650879 -36.87817383 55.1105957 C-40 56 -40 56 -48 56 C-48 38.84 -48 21.68 -48 4 C-47.34 4 -46.68 4 -46 4 C-44.4921875 5.96875 -44.4921875 5.96875 -42.875 8.5 C-42.33617187 9.3353125 -41.79734375 10.170625 -41.2421875 11.03125 C-40.62730469 12.00578125 -40.62730469 12.00578125 -40 13 C-33.89182537 12.44621421 -28.82359606 10.54192679 -23.1875 8.1875 C-21.49348958 7.49348958 -19.79947917 6.79947917 -18.10546875 6.10546875 C-15.48127431 5.02509686 -12.85892846 3.94101008 -10.24072266 2.84619141 C-9.35304199 2.48058105 -8.46536133 2.1149707 -7.55078125 1.73828125 C-6.74938721 1.40481689 -5.94799316 1.07135254 -5.12231445 0.7277832 C-3 0 -3 0 0 0 Z " fill="#303030" transform="translate(239,144)"/>
<path d="M0 0 C0 13.2 0 26.4 0 40 C-8.75 43.5 -8.75 43.5 -11.6875 44.66796875 C-16.31039738 46.50726176 -20.91670611 48.37645344 -25.5 50.3125 C-26.38075195 50.67923828 -27.26150391 51.04597656 -28.16894531 51.42382812 C-29.85012204 52.12479549 -31.52686368 52.83652731 -33.19824219 53.56054688 C-33.97329102 53.88087891 -34.74833984 54.20121094 -35.546875 54.53125 C-36.21557617 54.81548828 -36.88427734 55.09972656 -37.57324219 55.39257812 C-40 56 -40 56 -48 56 C-48 38.84 -48 21.68 -48 4 C-47.34 4 -46.68 4 -46 4 C-44.4921875 5.96875 -44.4921875 5.96875 -42.875 8.5 C-42.33617188 9.3353125 -41.79734375 10.170625 -41.2421875 11.03125 C-40.62730469 12.00578125 -40.62730469 12.00578125 -40 13 C-35.28464367 12.38916038 -31.12305467 11.04666015 -26.73828125 9.27734375 C-26.06580856 9.01240616 -25.39333588 8.74746857 -24.70048523 8.47450256 C-22.56890982 7.63438476 -20.4404346 6.78679349 -18.3125 5.9375 C-16.17374598 5.08493247 -14.03436871 4.2341954 -11.89237976 3.38978577 C-10.56380908 2.86601647 -9.2370693 2.33757317 -7.91242981 1.80393982 C-5.10191232 0.69562609 -3.05364384 0 0 0 Z " fill="#303030" transform="translate(120,144)"/>
<path d="M0 0 C5.30800226 1.07503021 10.29111799 2.32353159 15.3203125 4.3828125 C16.43277344 4.82753906 17.54523438 5.27226562 18.69140625 5.73046875 C20.98990219 6.66398758 23.28677075 7.60152292 25.58203125 8.54296875 C33.55834502 11.8998681 33.55834502 11.8998681 42 12 C44.42422186 9.11490087 44.42422186 9.11490087 46 6 C46.33 6 46.66 6 47 6 C47 22.5 47 39 47 56 C39.12455802 56 39.12455802 56 35.64111328 54.63891602 C34.86406036 54.34183243 34.08700745 54.04474884 33.28640747 53.73866272 C32.47259613 53.41369308 31.65878479 53.08872345 30.8203125 52.75390625 C29.54025833 52.25805275 29.54025833 52.25805275 28.23434448 51.75218201 C25.52681389 50.69989099 22.82611018 49.63114778 20.125 48.5625 C18.28685466 47.84728788 16.44831654 47.13308434 14.609375 46.41992188 C12.86683797 45.74047908 11.12463796 45.06017116 9.3828125 44.37890625 C8.55685577 44.05596085 7.73089905 43.73301544 6.87991333 43.40028381 C1.11878223 41.11878223 1.11878223 41.11878223 0 40 C-0.08868299 37.04294679 -0.11520296 34.10934944 -0.09765625 31.15234375 C-0.0962413 30.2659169 -0.09482635 29.37949005 -0.09336853 28.46620178 C-0.08775215 25.62326746 -0.07519691 22.78041069 -0.0625 19.9375 C-0.05748711 18.01497509 -0.05292384 16.09244896 -0.04882812 14.16992188 C-0.03777741 9.44658451 -0.02050183 4.72330542 0 0 Z " fill="#2E2E2E" transform="translate(140,144)"/>
<path d="M0 0 C0 13.2 0 26.4 0 40 C-7.79634186 43.24847578 -15.58090855 46.4335457 -23.46020508 49.45922852 C-28.28045568 51.3155151 -33.05017232 53.25045421 -37.76171875 55.37109375 C-40 56 -40 56 -47 56 C-47 38.84 -47 21.68 -47 4 C-43.88742431 7.11257569 -42.0659594 9.28127309 -40 13 C-34.44664038 12.44901393 -29.97195903 10.97266793 -24.875 8.75 C-23.38066719 8.11740457 -21.88586966 7.48590585 -20.390625 6.85546875 C-19.28557617 6.38633057 -19.28557617 6.38633057 -18.15820312 5.90771484 C-14.99783448 4.57850097 -11.81793938 3.31175543 -8.625 2.0625 C-7.60664063 1.66160156 -6.58828125 1.26070312 -5.5390625 0.84765625 C-3 0 -3 0 0 0 Z " fill="#2E2E2E" transform="translate(179,43)"/>
<path d="M0 0 C1.25631416 0.49823557 2.5134766 0.99433755 3.77148438 1.48828125 C10.31433984 4.08878024 16.77708992 6.83932731 23.1875 9.75 C20.41859585 11.5959361 18.20220309 12.5688457 15.09375 13.66796875 C14.07216797 14.03245117 13.05058594 14.39693359 11.99804688 14.77246094 C9.76498959 15.55831266 7.53191632 16.34411893 5.29882812 17.12988281 C0.02978573 18.99193174 -5.20739965 20.87434872 -10.375 23.00390625 C-11.21482422 23.34204346 -12.05464844 23.68018066 -12.91992188 24.02856445 C-14.46709245 24.65674728 -16.0058169 25.30633692 -17.53320312 25.98120117 C-23.56237374 28.38635215 -26.99092876 27.21106634 -32.8125 24.75 C-34.64530431 24.06102888 -36.47829219 23.37251759 -38.31387329 22.690979 C-41.05562179 21.66734757 -43.78587715 20.61477708 -46.51635742 19.56152344 C-48.63560087 18.74592019 -50.75815791 17.93936573 -52.88085938 17.1328125 C-54.23979633 16.60992822 -55.59852786 16.08650969 -56.95703125 15.5625 C-58.17753174 15.09457031 -59.39803223 14.62664063 -60.65551758 14.14453125 C-63.42513804 12.92110908 -65.51085344 11.68943311 -67.8125 9.75 C-62.52675468 7.58251391 -57.22920511 5.44802375 -51.91894531 3.34130859 C-50.11957582 2.62239711 -48.32355026 1.89505006 -46.53125 1.15869141 C-29.27978898 -5.91710315 -17.68713074 -7.31993313 0 0 Z " fill="#2F2F2F" transform="translate(153.8125,6.25)"/>
<path d="M0 0 C2.46297499 1.01685859 4.93779056 1.99890292 7.41674805 2.97607422 C8.99108754 3.60565814 10.56468616 4.23709859 12.13745117 4.87060547 C13.24501518 5.31447098 13.24501518 5.31447098 14.37495422 5.76730347 C19.50012968 7.89283748 19.50012968 7.89283748 20.61791992 10.12841797 C19.22379883 10.61761719 19.22379883 10.61761719 17.80151367 11.11669922 C16.56530273 11.55369141 15.3290918 11.99068359 14.05541992 12.44091797 C12.83725586 12.87017578 11.6190918 13.29943359 10.36401367 13.74169922 C7.98083663 14.62389718 5.61723488 15.56247831 3.28588867 16.57373047 C-1.2447614 18.4940699 -5.85481417 20.09320479 -10.50708008 21.69091797 C-12.2600441 22.29534407 -14.01265962 22.90078204 -15.76489258 23.50732422 C-16.98354004 23.92522217 -16.98354004 23.92522217 -18.22680664 24.3515625 C-20.51779962 25.1443297 -20.51779962 25.1443297 -23.18676758 26.40576172 C-28.15028796 28.03966078 -33.25068376 25.13598933 -37.87817383 23.29248047 C-38.58933853 23.01246185 -39.30050323 22.73244324 -40.03321838 22.44393921 C-41.53254417 21.85249742 -43.03106063 21.25900032 -44.52880859 20.66357422 C-46.8066305 19.75856302 -49.08726831 18.86096573 -51.3684082 17.96435547 C-52.83017053 17.38667002 -54.29176472 16.80855889 -55.75317383 16.22998047 C-56.42835556 15.96424225 -57.10353729 15.69850403 -57.79917908 15.42471313 C-61.76630426 13.84292458 -65.58960335 12.09162556 -69.38208008 10.12841797 C-66.02894051 7.27110605 -62.41657726 5.8366712 -58.31958008 4.37841797 C-56.88311047 3.86094237 -55.44692444 3.34267908 -54.01098633 2.82373047 C-53.2570459 2.55206055 -52.50310547 2.28039062 -51.72631836 2.00048828 C-49.32844368 1.10846492 -46.96370021 0.1544109 -44.59692383 -0.81689453 C-43.7906958 -1.13819336 -42.98446777 -1.45949219 -42.15380859 -1.79052734 C-40.61440365 -2.40459577 -39.08152357 -3.03543137 -37.55761719 -3.68701172 C-24.09684069 -8.94014244 -12.66117403 -5.22908416 0 0 Z " fill="#2F2F2F" transform="translate(215.382080078125,107.87158203125)"/>
<path d="M0 0 C2.53578688 1.01649118 5.08294717 1.99868953 7.6340332 2.97607422 C9.25391491 3.60568126 10.87308514 4.23712263 12.49145508 4.87060547 C13.25170486 5.16651581 14.01195465 5.46242615 14.79524231 5.76730347 C20.07302483 7.89311997 20.07302483 7.89311997 21.19067383 10.12841797 C16.11222548 11.99307503 11.02843183 13.84020158 5.92114258 15.62451172 C4.81113892 16.01292236 4.81113892 16.01292236 3.67871094 16.40917969 C2.21800989 16.91939729 0.75661271 17.42762755 -0.70556641 17.93359375 C-5.15971277 19.49069625 -9.48257675 21.23863163 -13.80932617 23.12841797 C-15.67592885 23.89907966 -17.55047488 24.65093649 -19.43432617 25.37841797 C-20.78397461 25.91208984 -20.78397461 25.91208984 -22.16088867 26.45654297 C-27.85278466 27.90050478 -33.32333779 24.89276184 -38.57495117 22.81982422 C-39.40895447 22.49304184 -40.24295776 22.16625946 -41.10223389 21.82957458 C-42.85798986 21.13993376 -44.61287759 20.44807891 -46.36694336 19.75415039 C-49.06073944 18.69035986 -51.75902327 17.63857597 -54.45776367 16.58740234 C-56.16377848 15.91560123 -57.86951761 15.24309953 -59.57495117 14.56982422 C-60.38530823 14.25517715 -61.19566528 13.94053009 -62.03057861 13.61634827 C-67.69479031 11.35748969 -67.69479031 11.35748969 -68.80932617 9.12841797 C-65.96865083 7.94240888 -63.12730155 6.75806892 -60.28491211 5.57617188 C-58.05707388 4.64816677 -55.8309909 3.71592986 -53.60717773 2.77832031 C-50.39280076 1.43197143 -47.16530842 0.12185391 -43.93432617 -1.18408203 C-42.86569336 -1.63847656 -41.79706055 -2.09287109 -40.69604492 -2.56103516 C-25.75249407 -8.52589789 -14.33760847 -5.74975008 0 0 Z " fill="#2F2F2F" transform="translate(95.809326171875,107.87158203125)"/>
<path d="M0 0 C0.83848804 1.45537568 1.67063934 2.91440373 2.5 4.375 C2.9640625 5.18710938 3.428125 5.99921875 3.90625 6.8359375 C5 9 5 9 5 11 C5.66 11 6.32 11 7 11 C7.268125 10.278125 7.53625 9.55625 7.8125 8.8125 C8.98982498 6.02409874 10.39145884 3.55904276 12 1 C16.82170961 1.61569594 21.07677509 3.02831124 25.55859375 4.8359375 C26.26597183 5.11595612 26.97334991 5.39597473 27.7021637 5.68447876 C29.94952077 6.57578826 32.19346683 7.47535964 34.4375 8.375 C35.9405477 8.97187698 37.44380118 9.56823603 38.94726562 10.1640625 C45.33269975 12.70120281 51.69340588 15.27174913 58 18 C56.68938409 22.23429756 55.05643741 26.07407404 53 30 C48.12480618 29.28563685 43.82672516 27.43454251 39.296875 25.5859375 C37.57719598 24.90010549 35.85713133 24.2152398 34.13671875 23.53125 C31.44281519 22.45623879 28.75176261 21.37572044 26.06689453 20.27832031 C23.46294143 19.21683015 20.84996064 18.18087255 18.234375 17.1484375 C17.44343445 16.81830658 16.6524939 16.48817566 15.83758545 16.14804077 C7.44706835 12.8844966 0.94629069 14.30191135 -7.30859375 17.58203125 C-7.96021988 17.83748215 -8.61184601 18.09293304 -9.28321838 18.35612488 C-11.33885119 19.16472721 -13.38810615 19.9882319 -15.4375 20.8125 C-16.80494294 21.35321507 -18.17277963 21.89293546 -19.54101562 22.43164062 C-24.40415317 24.35132913 -29.26220897 26.28179348 -34.09423828 28.27880859 C-34.98224121 28.64441895 -35.87024414 29.0100293 -36.78515625 29.38671875 C-37.91449585 29.85984497 -37.91449585 29.85984497 -39.06665039 30.3425293 C-41 31 -41 31 -44 31 C-46.04296875 28.375 -46.04296875 28.375 -48.1875 25 C-48.55552734 24.42765625 -48.92355469 23.8553125 -49.30273438 23.265625 C-50.21125071 21.84975538 -51.10686477 20.42562203 -52 19 C-49.3750098 16.3750098 -46.45872209 15.70286605 -43 14.625 C-37.7877715 12.98471277 -32.72706296 11.12135522 -27.66357422 9.06591797 C-22.9983777 7.19898415 -18.28151739 5.47530087 -13.5625 3.75 C-12.58345703 3.38648437 -11.60441406 3.02296875 -10.59570312 2.6484375 C-9.65791016 2.30554688 -8.72011719 1.96265625 -7.75390625 1.609375 C-6.91158447 1.29967773 -6.0692627 0.98998047 -5.20141602 0.67089844 C-3 0 -3 0 0 0 Z " fill="#313131" transform="translate(126,121)"/>
<path d="M0 0 C1.00508801 1.78881736 2.00392736 3.58114696 3 5.375 C3.556875 6.37273437 4.11375 7.37046875 4.6875 8.3984375 C6 11 6 11 6 13 C-0.6358954 15.57048895 -7.27476138 18.13318415 -13.91577148 20.69042969 C-16.17558183 21.56167404 -18.43470075 22.434714 -20.69311523 23.30957031 C-23.93554357 24.56525496 -27.18038681 25.81450488 -30.42578125 27.0625 C-31.43836502 27.45622803 -32.45094879 27.84995605 -33.49421692 28.25561523 C-34.90534004 28.79617554 -34.90534004 28.79617554 -36.3449707 29.34765625 C-37.17325882 29.66742432 -38.00154694 29.98719238 -38.85493469 30.31665039 C-41 31 -41 31 -44 31 C-46.04296875 28.375 -46.04296875 28.375 -48.1875 25 C-48.55552734 24.42765625 -48.92355469 23.8553125 -49.30273438 23.265625 C-50.21125071 21.84975538 -51.10686477 20.42562203 -52 19 C-49.62704099 16.62704099 -47.85223872 16.11328757 -44.6796875 15.046875 C-43.59389404 14.67763916 -42.50810059 14.30840332 -41.3894043 13.92797852 C-40.22965088 13.53924561 -39.06989746 13.1505127 -37.875 12.75 C-35.50337247 11.94297317 -33.13227712 11.13438073 -30.76171875 10.32421875 C-29.60462402 9.92895996 -28.4475293 9.53370117 -27.25537109 9.12646484 C-19.86171305 6.5680174 -12.47120668 3.8997831 -5.26953125 0.83984375 C-3 0 -3 0 0 0 Z " fill="#313131" transform="translate(245,121)"/>
<path d="M0 0 C1.38671875 1.9609375 1.38671875 1.9609375 2.6875 4.375 C3.12449219 5.16648437 3.56148437 5.95796875 4.01171875 6.7734375 C5 9 5 9 5 12 C4.03811768 12.36762451 3.07623535 12.73524902 2.08520508 13.11401367 C-1.54733424 14.50238589 -5.17980449 15.89093873 -8.81225586 17.27954102 C-10.37245892 17.87594303 -11.93267973 18.47229865 -13.49291992 19.06860352 C-15.00866719 19.64791033 -16.5243029 20.22750909 -18.03982544 20.80740356 C-19.53962351 21.38023619 -21.04017312 21.95110504 -22.54147339 22.51998901 C-26.007263 23.83631545 -29.4551181 25.17649862 -32.87353516 26.61181641 C-34.02515137 27.0866748 -35.17676758 27.5615332 -36.36328125 28.05078125 C-37.36270752 28.47657471 -38.36213379 28.90236816 -39.3918457 29.34106445 C-42 30 -42 30 -44.24584961 29.25268555 C-46.51804519 27.63005012 -47.7432451 25.84384096 -49.25 23.5 C-49.77078125 22.7059375 -50.2915625 21.911875 -50.828125 21.09375 C-52 19 -52 19 -52 17 C-41.30672059 12.70215244 -30.51905481 8.66545818 -19.67605591 4.76260376 C-18.26659787 4.25404944 -16.85828653 3.74230581 -15.45114136 3.22738647 C-13.45104549 2.49664163 -11.44697005 1.77807868 -9.44140625 1.0625 C-8.27295166 0.64097656 -7.10449707 0.21945313 -5.90063477 -0.21484375 C-3 -1 -3 -1 0 0 Z " fill="#313131" transform="translate(186,21)"/>
<path d="M0 0 C4.65840652 0.61635122 8.67785878 1.87612854 13.05078125 3.58203125 C13.7090239 3.83748215 14.36726654 4.09293304 15.04545593 4.35612488 C16.43232061 4.89559741 17.81811561 5.43782712 19.20288086 5.98266602 C21.2937269 6.80511546 23.38770013 7.6191201 25.48242188 8.43164062 C32.39818206 11.12478982 39.25132992 13.90654746 46 17 C44.68938409 21.23429756 43.05643741 25.07407404 41 29 C37.65983264 28.40036008 34.61085788 27.58139388 31.4453125 26.36328125 C30.5901001 26.03602051 29.7348877 25.70875977 28.85375977 25.37158203 C27.95326904 25.02208496 27.05277832 24.67258789 26.125 24.3125 C25.19550537 23.95526855 24.26601074 23.59803711 23.30834961 23.22998047 C16.55564127 20.62656868 9.83143458 17.95637495 3.12890625 15.2265625 C0.11381977 14.04461849 -2.91862078 12.99459299 -6 12 C-4.43358249 7.69235185 -2.31663844 3.93828536 0 0 Z " fill="#323232" transform="translate(19,122)"/>
<path d="M0 0 C15.3825846 5.88008189 30.73105774 11.83038225 46 18 C44.02 21.96 42.04 25.92 40 30 C31.1711042 27.53272338 22.71003421 24.28054949 14.1875 20.9375 C12.78203731 20.38962426 11.37643914 19.84209593 9.97070312 19.29492188 C4.63885451 17.21728245 -0.68979854 15.1324826 -6 13 C-5.34215037 9.70319035 -4.10579427 7.15882078 -2.4375 4.25 C-1.98246094 3.45078125 -1.52742188 2.6515625 -1.05859375 1.828125 C-0.53458984 0.92320313 -0.53458984 0.92320313 0 0 Z " fill="#323232" transform="translate(79,20)"/>
</svg>
