<?xml version="1.0" encoding="UTF-8"?>
<svg version="1.1" xmlns="http://www.w3.org/2000/svg" width="248" height="209">
<path d="M0 0 C81.84 0 163.68 0 248 0 C248 68.97 248 137.94 248 209 C166.16 209 84.32 209 0 209 C0 140.03 0 71.06 0 0 Z " fill="#E9E9E9" transform="translate(0,0)"/>
<path d="M0 0 C0 26.07 0 52.14 0 79 C-3.3 80.32 -6.6 81.64 -10 83 C-11.58039063 83.63679688 -13.16078125 84.27359375 -14.7890625 84.9296875 C-16.40104167 85.578125 -18.01302083 86.2265625 -19.625 86.875 C-20.39972656 87.18824219 -21.17445313 87.50148438 -21.97265625 87.82421875 C-27.75804704 90.14763169 -33.58391894 92.35421078 -39.42454529 94.53396606 C-47.50197564 97.5527028 -55.54823102 100.65203656 -63.5949707 103.75146484 C-66.22251523 104.76348642 -68.85048627 105.77439443 -71.47851562 106.78515625 C-73.16669124 107.434832 -74.85484318 108.08456925 -76.54296875 108.734375 C-77.32004684 109.03333679 -78.09712494 109.33229858 -78.89775085 109.64031982 C-79.62653946 109.92111389 -80.35532806 110.20190796 -81.10620117 110.49121094 C-81.78548676 110.75156128 -82.46477234 111.01191162 -83.16464233 111.28015137 C-84.7159208 111.88858083 -86.24962663 112.54153049 -87.77856445 113.20410156 C-90 114 -90 114 -94 114 C-94 78.69 -94 43.38 -94 7 C-90.57514398 10.42485602 -88.07471661 13.06427932 -85.4375 16.9375 C-84.84710938 17.79988281 -84.25671875 18.66226563 -83.6484375 19.55078125 C-83.10445312 20.35902344 -82.56046875 21.16726562 -82 22 C-81.33871094 22.98033203 -81.33871094 22.98033203 -80.6640625 23.98046875 C-79.76950662 25.3159582 -78.88345827 26.65714343 -78 28 C-72.50728279 27.45001401 -68.10025584 26.01835345 -63.0625 23.8125 C-61.54126307 23.16585096 -60.01910644 22.52136178 -58.49609375 21.87890625 C-57.7366748 21.55809082 -56.97725586 21.23727539 -56.19482422 20.90673828 C-53.03579207 19.60166093 -49.83444779 18.42485656 -46.625 17.25 C-37.82270878 14.01720416 -29.16283768 10.43452901 -20.49072266 6.87011719 C-3.75725348 0 -3.75725348 0 0 0 Z " fill="#2F2F2F" transform="translate(217,85)"/>
<path d="M0 0 C11.25494071 3.37648221 11.25494071 3.37648221 15.59375 5.015625 C16.5520874 5.37615967 17.5104248 5.73669434 18.49780273 6.1081543 C19.98389038 6.67336792 19.98389038 6.67336792 21.5 7.25 C23.07213257 7.84325073 23.07213257 7.84325073 24.67602539 8.44848633 C31.6680976 11.09363111 38.63534682 13.79895777 45.59228516 16.53491211 C51.51893841 18.85028696 57.50188826 20.98592288 63.52124023 23.04760742 C66.16858474 23.96082991 68.73270475 24.86260087 71.2265625 26.14453125 C74.37629872 27.6638974 77.59553847 27.58721718 81 27 C83.43119623 25.12984906 84.64069173 23.71861655 86 21 C86.66 21 87.32 21 88 21 C88.268125 20.21625 88.53625 19.4325 88.8125 18.625 C90 16 90 16 93 14 C93 47.33 93 80.66 93 115 C80.62226035 111.62425282 80.62226035 111.62425282 74.84765625 109.36328125 C74.22932922 109.12282074 73.6110022 108.88236023 72.97393799 108.63461304 C71.00133563 107.86588239 69.03193393 107.08930709 67.0625 106.3125 C65.67945658 105.77209173 64.29623514 105.23213882 62.9128418 104.69262695 C54.57176895 101.43361249 46.26148896 98.10122406 37.96337891 94.734375 C31.40636281 92.10105742 24.76171904 89.75213176 18.05786133 87.52026367 C11.75200706 85.38723471 6.15892178 82.7995099 0 80 C0 53.6 0 27.2 0 0 Z " fill="#2D2D2D" transform="translate(22,84)"/>
<path d="M0 0 C1.48258301 0.55192017 1.48258301 0.55192017 2.99511719 1.11499023 C8.8307699 3.30215905 14.61435344 5.5859588 20.34375 8.0390625 C34.05337446 13.79851814 48.04987924 19.12622303 62.1171875 23.94921875 C62.90085693 24.21919678 63.68452637 24.4891748 64.49194336 24.76733398 C66.01128251 25.28795341 67.53287599 25.80205068 69.05688477 26.30883789 C74.26475958 28.09201915 74.26475958 28.09201915 75.375 30.3125 C74.26382813 30.69921875 73.15265625 31.0859375 72.0078125 31.484375 C70.50516773 32.01030067 69.00256588 32.53634898 67.5 33.0625 C66.77296875 33.31515625 66.0459375 33.5678125 65.296875 33.828125 C61.40862654 35.19242271 57.56571884 36.62349448 53.75 38.1796875 C47.66570473 40.63927121 41.47723908 42.79955386 35.28646851 44.9725647 C21.87940666 49.67489541 21.87940666 49.67489541 8.5625 54.625 C2.95692082 56.75573949 -2.6873345 58.7272226 -8.375 60.625 C-9.13917236 60.87999268 -9.90334473 61.13498535 -10.69067383 61.39770508 C-12.66453339 62.04899207 -14.64447499 62.68177264 -16.625 63.3125 C-17.2890686 63.52476227 -17.95313721 63.73702454 -18.6373291 63.95571899 C-22.13725489 64.58394525 -25.2663471 62.82215244 -28.46875 61.5234375 C-29.61615662 61.07298569 -29.61615662 61.07298569 -30.78674316 60.61343384 C-33.23705918 59.64845137 -35.68090792 58.66812448 -38.125 57.6875 C-39.73919224 57.04979042 -41.3537722 56.41306131 -42.96875 55.77734375 C-50.49810131 52.80479793 -57.99336075 49.75999354 -65.45703125 46.62597656 C-72.5667698 43.67819655 -79.7263312 40.85173055 -86.875 38 C-88.50654288 37.34838857 -90.13805352 36.69669641 -91.76953125 36.04492188 C-95.72098381 34.46651874 -99.67286857 32.88920252 -103.625 31.3125 C-103.625 30.6525 -103.625 29.9925 -103.625 29.3125 C-97.93673741 27.14315582 -92.24825016 24.9744021 -86.55957031 22.80615234 C-84.63177684 22.07128132 -82.70404067 21.33625994 -80.77636719 20.60107422 C-71.52831523 17.07411163 -62.28002737 13.54896553 -53.0078125 10.0859375 C-45.48615411 7.27551429 -38.0134579 4.34758454 -30.546875 1.39453125 C-18.56553758 -3.32291632 -12.20915302 -4.64299009 0 0 Z " fill="#2E2E2E" transform="translate(137.625,3.6875)"/>
<path d="M0 0 C1.46972656 1.77832031 1.46972656 1.77832031 2.640625 4.078125 C3.07117188 4.90957031 3.50171875 5.74101563 3.9453125 6.59765625 C4.37585938 7.47292969 4.80640625 8.34820312 5.25 9.25 C5.69601563 10.10980469 6.14203125 10.96960938 6.6015625 11.85546875 C8.6716439 15.92662884 10.24531666 19.4658945 11 24 C10.44650879 24.19110352 9.89301758 24.38220703 9.32275391 24.57910156 C6.75597201 25.46692498 4.19048878 26.35844716 1.625 27.25 C0.75488281 27.55035156 -0.11523438 27.85070312 -1.01171875 28.16015625 C-6.15027104 29.94913371 -11.21947844 31.85300808 -16.26171875 33.89697266 C-21.92226314 36.17713845 -27.6210288 38.36093083 -33.3125 40.5625 C-34.30888992 40.94810089 -34.30888992 40.94810089 -35.32540894 41.3414917 C-45.55928057 45.3004439 -55.80483938 49.22811042 -66.0625 53.125 C-67.87971558 53.81638062 -67.87971558 53.81638062 -69.73364258 54.52172852 C-70.86439209 54.95026123 -71.9951416 55.37879395 -73.16015625 55.8203125 C-74.14636963 56.19430176 -75.13258301 56.56829102 -76.14868164 56.95361328 C-79.08089987 58.02968892 -82.03211217 59.02711136 -85 60 C-87.08518434 57.12633843 -89.1678091 54.25083111 -91.25 51.375 C-91.83652344 50.56675781 -92.42304688 49.75851563 -93.02734375 48.92578125 C-102 36.52536868 -102 36.52536868 -102 34 C-93.5600172 30.7496857 -85.16967147 27.59930721 -76.453125 25.15234375 C-73.36750056 24.12263876 -70.44803244 22.9444262 -67.45703125 21.671875 C-60.88454075 18.89674458 -54.19719415 16.58533141 -47.4375 14.3125 C-39.67549079 11.68370848 -31.94148663 9.01812863 -24.28515625 6.09375 C-23.06062744 5.62799561 -21.83609863 5.16224121 -20.57446289 4.68237305 C-18.23486051 3.78574652 -15.89920214 2.8787432 -13.56811523 1.96020508 C-11.98752319 1.35535278 -11.98752319 1.35535278 -10.375 0.73828125 C-9.45460938 0.37774658 -8.53421875 0.01721191 -7.5859375 -0.35424805 C-4.57252719 -1.10674713 -2.91163441 -1.07950219 0 0 Z " fill="#2F2F2F" transform="translate(229,42)"/>
<path d="M0 0 C7.41076974 2.34024308 14.58494815 5.18429758 21.78271484 8.10253906 C25.89270504 9.76608497 30.00882615 11.41432652 34.125 13.0625 C34.9806958 13.40539063 35.8363916 13.74828125 36.71801758 14.1015625 C42.48147577 16.40628096 48.26575597 18.64604909 54.06640625 20.85546875 C57.04748525 22.0185262 59.99200317 23.24980883 62.9375 24.5 C68.49771783 26.84502556 74.14731713 28.86490812 79.83984375 30.86328125 C83.30114339 32.10832228 86.65006667 33.48455397 90 35 C88.49622155 40.19784289 86.17231165 44.58839566 83.5 49.25 C83.09652344 49.96929687 82.69304687 50.68859375 82.27734375 51.4296875 C79.26968344 56.73031656 79.26968344 56.73031656 77 59 C76.41734375 58.75878418 75.8346875 58.51756836 75.234375 58.26904297 C61.48650132 52.5866966 47.68866074 47.16554312 33.71264648 42.07305908 C31.05990309 41.10601354 28.40778846 40.1372481 25.75561523 39.16864014 C23.80736973 38.45841394 21.85786596 37.7517345 19.90820312 37.04541016 C13.09041127 34.56046224 6.3474399 31.96530901 -0.33203125 29.12841797 C-4.52840903 27.35355907 -8.76397417 25.6775412 -13 24 C-9.01878493 15.77507216 -4.69712212 7.83780141 0 0 Z " fill="#2F2F2F" transform="translate(20,41)"/>
</svg>
