<?xml version="1.0" encoding="UTF-8"?>
<svg version="1.1" xmlns="http://www.w3.org/2000/svg" width="109" height="44">
<path d="M0 0 C2.31 0 4.62 0 7 0 C7 0.99 7 1.98 7 3 C7.7425 3.226875 8.485 3.45375 9.25 3.6875 C12.68689574 5.3278366 14.01871604 6.74503349 16 10 C16.60163258 12.70233303 16.81167701 15.22223595 17 18 C17.99 18 18.98 18 20 18 C20 19.98 20 21.96 20 24 C19.40058594 24.08636719 18.80117187 24.17273438 18.18359375 24.26171875 C15.38610617 25.20755981 14.68966987 26.38301369 13.0625 28.8125 C9.50659159 33.80685378 5.9457819 37.12238466 0 39 C-0.99 39 -1.98 39 -3 39 C-3 39.99 -3 40.98 -3 42 C-5.31 42 -7.62 42 -10 42 C-11.5114302 39.06110794 -12.16517991 37.63068692 -11.3125 34.375 C-10.06337966 32.114687 -9.01822502 30.59776148 -7 29 C-6.34 29 -5.68 29 -5 29 C-4.67 27.35 -4.34 25.7 -4 24 C-5.32 24.33 -6.64 24.66 -8 25 C-8 24.34 -8 23.68 -8 23 C-6.68 22.67 -5.36 22.34 -4 22 C-4 21.01 -4 20.02 -4 19 C-2.68 18.67 -1.36 18.34 0 18 C3 23.75 3 23.75 3 26 C2.34 26 1.68 26 1 26 C0.67 25.34 0.34 24.68 0 24 C-0.99 25.65 -1.98 27.3 -3 29 C-2.34 29 -1.68 29 -1 29 C-0.67 29.66 -0.34 30.32 0 31 C3.53600465 29.08864614 5.78972846 27.37357234 8 24 C7.34 24 6.68 24 6 24 C6.33 22.02 6.66 20.04 7 18 C7.99 17.67 8.98 17.34 10 17 C8.70855022 14.00007271 8.70855022 14.00007271 7 11 C6.01 10.67 5.02 10.34 4 10 C4 10.99 4 11.98 4 13 C1.69 13 -0.62 13 -3 13 C-3 12.34 -3 11.68 -3 11 C-6.057952 12.73559438 -8.63379989 14.38472619 -11 17 C-10.34 17.33 -9.68 17.66 -9 18 C-9.33 19.98 -9.66 21.96 -10 24 C-11.32 24 -12.64 24 -14 24 C-14 24.66 -14 25.32 -14 26 C-15.98 26 -17.96 26 -20 26 C-20 25.34 -20 24.68 -20 24 C-21.32 24 -22.64 24 -24 24 C-23.67 22.02 -23.34 20.04 -23 18 C-22.4225 17.95875 -21.845 17.9175 -21.25 17.875 C-17.89783769 16.57138132 -16.96345551 13.97323263 -15 11 C-11.47264925 7.41357879 -7.92718412 4.36866226 -3 3 C-2.01 3 -1.02 3 0 3 C0 2.01 0 1.02 0 0 Z " fill="#595959" transform="translate(89,0)"/>
<path d="M0 0 C2.14576637 -0.02685938 4.29162645 -0.04633088 6.4375 -0.0625 C7.63246094 -0.07410156 8.82742187 -0.08570313 10.05859375 -0.09765625 C13 0 13 0 14 1 C14.54958683 3.95701611 15.04539548 6.90310359 15.5 9.875 C15.6338208 10.73456299 15.7676416 11.59412598 15.90551758 12.47973633 C16.84441377 18.64258365 17.54930189 24.78036602 18 31 C14.37 31 10.74 31 7 31 C6.67 30.01 6.34 29.02 6 28 C2.7 28 -0.6 28 -4 28 C-4.33 28.99 -4.66 29.98 -5 31 C-8.63 31 -12.26 31 -16 31 C-15.14321785 26.71608926 -14.56105535 24.86960128 -12.3828125 21.34765625 C-11.59583984 20.05891602 -11.59583984 20.05891602 -10.79296875 18.74414062 C-9.96732422 17.41672852 -9.96732422 17.41672852 -9.125 16.0625 C-4.25970562 8.19816836 -4.25970562 8.19816836 0 0 Z M4 13 C3.34 14.65 2.68 16.3 2 18 C2.99 18 3.98 18 5 18 C5 16.35 5 14.7 5 13 C4.67 13 4.34 13 4 13 Z " fill="#EB1D25" transform="translate(16,13)"/>
<path d="M0 0 C2.39652528 -0.08139142 4.79025436 -0.14067009 7.1875 -0.1875 C7.86103516 -0.21263672 8.53457031 -0.23777344 9.22851562 -0.26367188 C14.75539454 -0.34455303 17.82564283 0.97559849 21.8125 4.6875 C24.76168 10.43064 22.88935054 18.08703257 21 24 C20.34 24.99 19.68 25.98 19 27 C18.34 27 17.68 27 17 27 C17 27.66 17 28.32 17 29 C11.68468311 30.77410051 7.14381195 31.2577668 1.5625 31.125 C0.83095703 31.11597656 0.09941406 31.10695313 -0.65429688 31.09765625 C-2.43634298 31.07436153 -4.21821759 31.0385019 -6 31 C-4.59250484 20.51786497 -2.38060702 10.29670316 0 0 Z M9 8 C8.66127487 9.41538717 8.32925376 10.83237963 8 12.25 C7.814375 13.03890625 7.62875 13.8278125 7.4375 14.640625 C6.87845172 17.25556002 6.87845172 17.25556002 7 21 C8.32 20.67 9.64 20.34 11 20 C11.66 16.37 12.32 12.74 13 9 C11.68 8.67 10.36 8.34 9 8 Z " fill="#EB1D25" transform="translate(41,13)"/>
<path d="M0 0 C0.99 0.33 1.98 0.66 3 1 C4.1875 4.5625 4.1875 4.5625 5 8 C4.34 8 3.68 8 3 8 C2.67 7.34 2.34 6.68 2 6 C1.54625 6.825 1.0925 7.65 0.625 8.5 C0.08875 9.325 -0.4475 10.15 -1 11 C-1.66 11 -2.32 11 -3 11 C-2.67 9.35 -2.34 7.7 -2 6 C-3.32 6.33 -4.64 6.66 -6 7 C-6 6.34 -6 5.68 -6 5 C-4.68 4.67 -3.36 4.34 -2 4 C-2 3.01 -2 2.02 -2 1 C-1.34 0.67 -0.68 0.34 0 0 Z " fill="#E7131D" transform="translate(87,18)"/>
</svg>
