<?xml version="1.0" encoding="UTF-8"?>
<svg version="1.1" xmlns="http://www.w3.org/2000/svg" width="17" height="17">
<path d="M0 0 C3.5 0.25 3.5 0.25 5.5 2.25 C5.4175 3.1575 5.335 4.065 5.25 5 C5.61899937 9.79699175 7.94641567 11.14061371 11.5 14.25 C11.17 15.24 10.84 16.23 10.5 17.25 C6.84683329 16.00023244 5.71934164 15.57901247 3.5 12.25 C1.17284 11.87599214 -1.16117862 11.54235267 -3.5 11.25 C-5.5 9.25 -5.5 9.25 -5.75 5.75 C-5.40898007 0.975721 -4.774279 0.34101993 0 0 Z M-0.5 1.25 C-1.82 2.57 -3.14 3.89 -4.5 5.25 C-3.84 6.57 -3.18 7.89 -2.5 9.25 C-0.83388095 9.292721 0.83382885 9.29063832 2.5 9.25 C3.79633621 8.18354885 3.79633621 8.18354885 3.5625 5.6875 C3.541875 4.883125 3.52125 4.07875 3.5 3.25 C2.18 2.59 0.86 1.93 -0.5 1.25 Z " fill="#131313" transform="translate(5.5,-0.25)"/>
</svg>
